<?xml version="1.0" standalone="no"?>
<!DOCTYPE svg PUBLIC "-//W3C//DTD SVG 1.1//EN" "http://www.w3.org/Graphics/SVG/1.1/DTD/svg11.dtd" >
<svg xmlns="http://www.w3.org/2000/svg">
<metadata></metadata>
<defs>
<font id="libre_baskervilleitalic" horiz-adv-x="763" >
<font-face units-per-em="1000" ascent="800" descent="-200" />
<missing-glyph horiz-adv-x="275" />
<glyph unicode="ff" horiz-adv-x="633" d="M246 450l-94 -377q-45 -180 -100 -256.5t-140 -76.5q-49 0 -77.5 21t-28.5 56q0 24 13.5 38.5t35.5 14.5q18 0 28.5 -11t14 -24t12.5 -24t25 -11q24 0 43.5 23t29.5 64l145 563h-96l13 46h95q45 161 98 222.5t147 61.5q87 0 136 -33q60 83 147 83q55 0 92.5 -25t37.5 -62 q0 -24 -14 -39t-37 -15t-35 15t-15 33t-12 33t-27 15q-85 0 -144 -289h121l-14 -46h-118l-93 -377q-45 -182 -98 -257.5t-135 -75.5q-46 0 -72.5 18.5t-26.5 49.5q0 21 12 34t32 13q15 0 25.5 -8.5t15.5 -19t14.5 -19t22.5 -8.5q43 0 66 87l144 563h-189zM447 496 q25 104 63 190q-32 49 -96 49q-54 0 -88 -51.5t-69 -187.5h190z" />
<glyph unicode="fi" horiz-adv-x="614" d="M246 450l-94 -377q-33 -133 -70.5 -206.5t-78.5 -100t-101 -26.5q-41 0 -68.5 22t-27.5 54q0 25 13 39.5t36 14.5q19 0 29.5 -11t13.5 -24t12.5 -24t26.5 -11q23 0 42 23.5t29 63.5l145 563h-96l13 46h95q43 176 102 255t139 79q58 0 96.5 -24.5t38.5 -61.5 q0 -23 -13 -39t-35 -16q-26 0 -38.5 15t-14.5 33t-12 33t-31 15q-39 0 -76.5 -79.5t-63.5 -209.5h88q45 0 92.5 5t56.5 5q16 0 23.5 -5.5t7.5 -21.5q0 -22 -21 -92l-67 -219q-16 -56 -16 -76q0 -25 22 -25q26 0 56 36.5t45 67.5l31 -17q-25 -60 -76 -112t-109 -52 q-62 0 -62 75q0 41 28 137l38 128q16 56 16 78q0 26 -19 34t-68 8h-77z" />
<glyph unicode="fl" horiz-adv-x="617" d="M354 202l130 477q5 20 5 33q0 29 -15 46t-41 17q-52 0 -97 -72t-79 -207h108l-14 -46h-105l-94 -377q-45 -180 -100 -256.5t-140 -76.5q-49 0 -77.5 21t-28.5 56q0 24 13.5 38.5t35.5 14.5q18 0 28.5 -11t14 -24t12.5 -24t25 -11q24 0 43.5 23t29.5 64l145 563h-96l13 46 h95q46 170 109.5 247t157.5 77q49 0 81 -16l104 25l-179 -657q-16 -57 -16 -79q0 -26 21 -26q22 0 58 35t59 79l30 -17q-35 -75 -92.5 -124.5t-109.5 -49.5q-61 0 -61 66q0 49 27 146z" />
<glyph unicode="ffi" horiz-adv-x="893" d="M602 450h-74l-93 -377q-45 -182 -98 -257.5t-135 -75.5q-46 0 -72.5 18.5t-26.5 49.5q0 21 12 34t32 13q15 0 25.5 -8.5t15.5 -19t14.5 -19t22.5 -8.5q43 0 66 87l144 563h-189l-94 -377q-45 -180 -100 -256.5t-140 -76.5q-49 0 -77.5 21t-28.5 56q0 24 13.5 38.5 t35.5 14.5q18 0 28.5 -11t14 -24t12.5 -24t25 -11q24 0 43.5 23t29.5 64l145 563h-96l13 46h95q45 161 98 222.5t147 61.5q87 0 136 -33q60 83 147 83q55 0 92.5 -25t37.5 -62q0 -24 -14 -39t-37 -15t-35 15t-15 33t-12 33t-27 15q-85 0 -144 -289h66q53 0 106 5t62 5 q16 0 23.5 -5.5t7.5 -21.5q0 -22 -21 -92l-67 -219q-16 -56 -16 -76q0 -25 22 -25q26 0 56 36.5t45 67.5l31 -17q-25 -60 -76 -112t-109 -52q-62 0 -62 75q0 41 28 137l38 128q16 56 16 78q0 26 -19 34t-68 8zM447 496q25 104 63 190q-32 49 -96 49q-54 0 -88 -51.5 t-69 -187.5h190z" />
<glyph unicode="ffl" horiz-adv-x="899" d="M636 202l130 477q5 20 5 33q0 29 -15 46t-41 17q-52 0 -97 -72t-79 -207h108l-14 -46h-105l-94 -377q-45 -180 -100 -256.5t-140 -76.5q-44 0 -70 18t-26 49q0 24 13.5 38.5t35.5 14.5q16 0 25 -9.5t12 -20.5t11 -20.5t22 -9.5q24 0 43.5 23t29.5 64l145 563h-189 l-94 -377q-45 -180 -100 -256.5t-140 -76.5q-49 0 -77.5 21t-28.5 56q0 24 13.5 38.5t35.5 14.5q18 0 28.5 -11t14 -24t12.5 -24t25 -11q24 0 43.5 23t29.5 64l145 563h-96l13 46h95q45 161 98 222.5t147 61.5q92 0 145 -39q64 79 159 79q49 0 81 -16l104 25l-179 -657 q-16 -57 -16 -79q0 -26 21 -26q22 0 58 35t59 79l30 -17q-35 -75 -92.5 -124.5t-109.5 -49.5q-61 0 -61 66q0 49 27 146zM447 496q30 111 67 182q-14 27 -42.5 42t-57.5 15q-54 0 -88 -51.5t-69 -187.5h190z" />
<glyph unicode="fb" horiz-adv-x="829" d="M626 829l-127 -385l3 -2q29 46 72.5 71.5t92.5 25.5q60 0 93.5 -38t33.5 -104q0 -93 -51 -188.5t-131 -157t-159 -61.5q-57 0 -93.5 34.5t-36.5 89.5q0 52 43 187l118 378q5 18 5 33q0 29 -15 46t-41 17q-52 0 -97 -72t-79 -207h108l-14 -46h-105l-94 -377 q-45 -180 -100 -256.5t-140 -76.5q-49 0 -77.5 21t-28.5 56q0 24 13.5 38.5t35.5 14.5q18 0 28.5 -11t14 -24t12.5 -24t25 -11q24 0 43.5 23t29.5 64l145 563h-96l13 46h95q46 170 109.5 247t157.5 77q49 0 81 -16zM469 41q45 0 98.5 59.5t90.5 146t37 158.5q0 34 -16 57.5 t-39 23.5q-44 0 -96.5 -59.5t-89 -146t-36.5 -157.5q0 -82 51 -82z" />
<glyph unicode="ffb" horiz-adv-x="1111" d="M908 829l-127 -385l3 -2q29 46 72.5 71.5t92.5 25.5q60 0 93.5 -38t33.5 -104q0 -93 -51 -188.5t-131 -157t-159 -61.5q-57 0 -93.5 34.5t-36.5 89.5q0 52 43 187l119 380q4 13 4 31q0 29 -15 46t-41 17q-52 0 -97 -72t-79 -207h108l-14 -46h-105l-94 -377 q-45 -180 -100 -256.5t-140 -76.5q-44 0 -70 18t-26 49q0 24 13.5 38.5t35.5 14.5q16 0 25 -9.5t12 -20.5t11 -20.5t22 -9.5q24 0 43.5 23t29.5 64l145 563h-189l-94 -377q-45 -180 -100 -256.5t-140 -76.5q-49 0 -77.5 21t-28.5 56q0 24 13.5 38.5t35.5 14.5q18 0 28.5 -11 t14 -24t12.5 -24t25 -11q24 0 43.5 23t29.5 64l145 563h-96l13 46h95q45 161 98 222.5t147 61.5q92 0 145 -39q64 79 159 79q49 0 81 -16zM751 41q45 0 98.5 59.5t90.5 146t37 158.5q0 34 -16 57.5t-39 23.5q-44 0 -96.5 -59.5t-89 -146t-36.5 -157.5q0 -82 51 -82zM447 496 q30 111 67 182q-14 27 -42.5 42t-57.5 15q-54 0 -88 -51.5t-69 -187.5h190z" />
<glyph unicode="fh" horiz-adv-x="867" d="M649 311q32 95 32 134q0 23 -7.5 32.5t-25.5 9.5q-61 0 -121 -98.5t-134 -319.5l-23 -69h-84l199 682q4 15 4 30q0 29 -15 46t-41 17q-52 0 -97 -72t-79 -207h108l-14 -46h-105l-94 -377q-45 -180 -100 -256.5t-140 -76.5q-49 0 -77.5 21t-28.5 56q0 24 13.5 38.5 t35.5 14.5q18 0 28.5 -11t14 -24t12.5 -24t25 -11q24 0 43.5 23t29.5 64l145 563h-96l13 46h95q46 170 109.5 247t157.5 77q49 0 81 -16l108 26l-114 -386l3 -2q68 98 162 98q47 0 72.5 -28t25.5 -81q0 -67 -41 -178q-55 -153 -55 -165q0 -23 19 -23q44 0 109 89l28 -21 q-31 -58 -90.5 -100.5t-109.5 -42.5q-27 0 -39 15t-12 48q0 34 13.5 84t56.5 174z" />
<glyph unicode="ffh" horiz-adv-x="1149" d="M931 311q32 95 32 134q0 23 -7.5 32.5t-25.5 9.5q-61 0 -121 -98.5t-134 -319.5l-23 -69h-84l199 682q4 15 4 30q0 29 -15 46t-41 17q-52 0 -97 -72t-79 -207h108l-14 -46h-105l-94 -377q-45 -180 -100 -256.5t-140 -76.5q-44 0 -70 18t-26 49q0 24 13.5 38.5t35.5 14.5 q16 0 25 -9.5t12 -20.5t11 -20.5t22 -9.5q24 0 43.5 23t29.5 64l145 563h-189l-94 -377q-45 -180 -100 -256.5t-140 -76.5q-49 0 -77.5 21t-28.5 56q0 24 13.5 38.5t35.5 14.5q18 0 28.5 -11t14 -24t12.5 -24t25 -11q24 0 43.5 23t29.5 64l145 563h-96l13 46h95 q45 161 98 222.5t147 61.5q92 0 145 -39q64 79 159 79q49 0 81 -16l108 26l-114 -386l3 -2q68 98 162 98q47 0 72.5 -28t25.5 -81q0 -67 -41 -178q-55 -153 -55 -165q0 -23 19 -23q44 0 109 89l28 -21q-31 -58 -90.5 -100.5t-109.5 -42.5q-27 0 -39 15t-12 48q0 34 13.5 84 t56.5 174zM447 496q30 111 67 182q-14 27 -42.5 42t-57.5 15q-54 0 -88 -51.5t-69 -187.5h190z" />
<glyph unicode="fk" horiz-adv-x="817" d="M661 80q30 0 82 75l26 -14q-72 -151 -149 -151q-24 0 -39.5 16.5t-34.5 61.5l-67 160l-22 -10l-63 -218h-91l183 689q3 12 3 23q0 29 -15 46t-41 17q-52 0 -97 -72t-79 -207h108l-14 -46h-105l-94 -377q-45 -180 -100 -256.5t-140 -76.5q-49 0 -77.5 21t-28.5 56 q0 24 13.5 38.5t35.5 14.5q18 0 28.5 -11t14 -24t12.5 -24t25 -11q24 0 43.5 23t29.5 64l145 563h-96l13 46h95q46 170 109.5 247t157.5 77q49 0 81 -16l105 26l-104 -385l4 -1q58 97 147 97q47 0 74 -22.5t27 -60.5q0 -46 -46.5 -93.5t-129.5 -85.5l-26 -12l51 -132 q20 -55 46 -55zM466 268q87 30 143.5 76.5t56.5 87.5t-41 41t-89 -61.5t-70 -143.5z" />
<glyph unicode="ffk" horiz-adv-x="1099" d="M943 80q29 0 82 75l26 -14q-72 -151 -149 -151q-24 0 -39.5 16.5t-34.5 61.5l-67 160l-22 -10l-63 -218h-91l183 689q3 12 3 23q0 29 -15 46t-41 17q-52 0 -97 -72t-79 -207h108l-14 -46h-105l-94 -377q-45 -180 -100 -256.5t-140 -76.5q-44 0 -70 18t-26 49 q0 24 13.5 38.5t35.5 14.5q16 0 25 -9.5t12 -20.5t11 -20.5t22 -9.5q24 0 43.5 23t29.5 64l145 563h-189l-94 -377q-45 -180 -100 -256.5t-140 -76.5q-49 0 -77.5 21t-28.5 56q0 24 13.5 38.5t35.5 14.5q18 0 28.5 -11t14 -24t12.5 -24t25 -11q24 0 43.5 23t29.5 64l145 563 h-96l13 46h95q45 161 98 222.5t147 61.5q92 0 145 -39q64 79 159 79q49 0 81 -16l105 26l-104 -385l4 -1q58 97 147 97q47 0 74 -22.5t27 -60.5q0 -46 -46.5 -93.5t-129.5 -85.5l-26 -12l51 -132q20 -55 46 -55zM447 496q30 111 67 182q-14 27 -42.5 42t-57.5 15 q-54 0 -88 -51.5t-69 -187.5h190zM748 268q87 30 143.5 76.5t56.5 87.5t-41 41t-89 -61.5t-70 -143.5z" />
<glyph unicode="fj" horiz-adv-x="568" d="M246 450l-94 -377q-33 -133 -70.5 -206.5t-78.5 -100t-101 -26.5q-41 0 -68.5 22t-27.5 54q0 25 13 39.5t36 14.5q19 0 29.5 -11t13.5 -24t12.5 -24t26.5 -11q23 0 42 23.5t29 63.5l145 563h-96l13 46h95q43 176 102 255t139 79q58 0 96.5 -24.5t38.5 -61.5 q0 -23 -13 -39t-35 -16q-26 0 -38.5 15t-14.5 33t-12 33t-31 15q-39 0 -76.5 -79.5t-63.5 -209.5h88q43 0 89 5t55 5q16 0 23.5 -5.5t7.5 -21.5q0 -28 -16 -92l-107 -421q-23 -89 -83.5 -157.5t-126.5 -68.5q-37 0 -61.5 22t-24.5 54q0 27 13 43t36 16q16 0 26.5 -11.5 t15 -26t12 -26t18.5 -11.5q39 0 61 87l111 443q16 62 16 78q0 24 -16 33t-54 9h-94z" />
<glyph unicode="ffj" horiz-adv-x="858" d="M794 387l-107 -421q-23 -89 -83.5 -157.5t-126.5 -68.5q-37 0 -61.5 22t-24.5 54q0 27 13 43t36 16q16 0 26.5 -11.5t15 -26t12 -26t18.5 -11.5q39 0 61 87l111 443q16 62 16 78q0 25 -18.5 33.5t-62.5 8.5h-91l-93 -377q-45 -182 -98 -257.5t-135 -75.5 q-46 0 -72.5 18.5t-26.5 49.5q0 21 12 34t32 13q15 0 25.5 -8.5t15.5 -19t14.5 -19t22.5 -8.5q43 0 66 87l144 563h-189l-94 -377q-45 -180 -100 -256.5t-140 -76.5q-49 0 -77.5 21t-28.5 56q0 24 13.5 38.5t35.5 14.5q18 0 28.5 -11t14 -24t12.5 -24t25 -11q24 0 43.5 23 t29.5 64l145 563h-96l13 46h95q45 161 98 222.5t147 61.5q87 0 136 -33q60 83 147 83q55 0 92.5 -25t37.5 -62q0 -24 -14 -39t-37 -15t-35 15t-15 33t-12 33t-27 15q-85 0 -144 -289h77q51 0 103 5t60 5q16 0 23.5 -5.5t7.5 -21.5q0 -28 -16 -92zM447 496q25 104 63 190 q-32 49 -96 49q-54 0 -88 -51.5t-69 -187.5h190z" />
<glyph unicode="ft" horiz-adv-x="641" d="M246 450l-94 -377q-33 -133 -70.5 -206.5t-78.5 -100t-101 -26.5q-41 0 -68.5 22t-27.5 54q0 25 13 39.5t36 14.5q19 0 29.5 -11t13.5 -24t12.5 -24t26.5 -11q23 0 42 23.5t29 63.5l145 563h-96l13 46h95q43 176 102 255t139 79q58 0 96.5 -24.5t38.5 -61.5 q0 -23 -13 -39t-35 -16q-26 0 -38.5 15t-14.5 33t-12 33t-31 15q-39 0 -76.5 -79.5t-63.5 -209.5h178l26 86h92l-26 -86h109l-14 -46h-109l-84 -278q-17 -54 -18 -82q0 -23 20 -23q31 0 71 40t60 74l29 -17q-35 -69 -98 -121.5t-112 -52.5q-35 0 -50.5 15.5t-15.5 49.5 q0 42 31 147l75 248h-175z" />
<glyph unicode="fft" horiz-adv-x="933" d="M914 450h-109l-84 -278q-17 -54 -18 -82q0 -23 20 -23q31 0 71 40t60 74l29 -17q-35 -69 -98 -121.5t-112 -52.5q-35 0 -50.5 15.5t-15.5 49.5q0 42 31 147l75 248h-185l-93 -377q-45 -182 -98 -257.5t-135 -75.5q-46 0 -72.5 18.5t-26.5 49.5q0 21 12 34t32 13 q15 0 25.5 -8.5t15.5 -19t14.5 -19t22.5 -8.5q43 0 66 87l144 563h-189l-94 -377q-45 -180 -100 -256.5t-140 -76.5q-49 0 -77.5 21t-28.5 56q0 24 13.5 38.5t35.5 14.5q18 0 28.5 -11t14 -24t12.5 -24t25 -11q24 0 43.5 23t29.5 64l145 563h-96l13 46h95q45 161 98 222.5 t147 61.5q87 0 136 -33q60 83 147 83q55 0 92.5 -25t37.5 -62q0 -24 -14 -39t-37 -15t-35 15t-15 33t-12 33t-27 15q-85 0 -144 -289h188l26 86h92l-26 -86h109zM447 496q25 104 63 190q-32 49 -96 49q-54 0 -88 -51.5t-69 -187.5h190z" />
<glyph horiz-adv-x="0" />
<glyph horiz-adv-x="0" />
<glyph unicode="&#xd;" horiz-adv-x="313" />
<glyph unicode=" "  horiz-adv-x="275" />
<glyph unicode="&#x09;" horiz-adv-x="275" />
<glyph unicode="&#xa0;" horiz-adv-x="275" />
<glyph unicode="!" horiz-adv-x="317" d="M164 207h-35l48 455q7 64 24 91t51 27q55 0 55 -75q0 -35 -12 -73.5t-52 -137.5q-58 -145 -79 -287zM119 -10q-25 0 -43.5 17.5t-18.5 43.5q0 27 18 46t45 19t45 -19t18 -45t-19 -44t-45 -18z" />
<glyph unicode="&#x22;" horiz-adv-x="359" d="M183 564h-29q5 36 9 87.5t7 77t10.5 52.5t21.5 38t37 11q16 0 26 -9.5t10 -25.5q0 -7 -14 -41.5t-39 -93.5t-39 -96zM335 564h-29q5 36 9 87.5t7 77t10.5 52.5t21.5 38t37 11q16 0 26 -9.5t10 -25.5q0 -7 -14 -41.5t-39 -93.5t-39 -96z" />
<glyph unicode="#" horiz-adv-x="670" d="M620 305l-8 -50h-139l-37 -255h-59l35 255h-151l-38 -255h-60l38 255h-140l8 50h142l24 170h-143l8 50h144l35 245h60l-35 -245h151l34 245h60l-34 -245h134l-8 -50h-135l-23 -170h137zM445 475h-150l-24 -170h151z" />
<glyph unicode="$" horiz-adv-x="584" d="M141 -146l34 143q-66 16 -109.5 62t-43.5 103q0 46 29.5 81.5t67.5 35.5q30 0 49 -24q-28 -11 -44.5 -38.5t-16.5 -62.5q0 -81 81 -105l79 325q-65 49 -100 93.5t-35 106.5q0 85 67 144t166 62l21 85h57l-22 -89q63 -11 101.5 -47.5t38.5 -87.5q0 -43 -26.5 -70 t-68.5 -27q-30 0 -41 21q23 7 39 31t16 54q0 62 -71 76l-64 -265q39 -29 57.5 -44t47 -45t41 -64t12.5 -75q0 -99 -79.5 -171t-188.5 -72h-4l-33 -136h-57zM414 185q0 44 -25.5 79t-73.5 73l-71 -294q73 2 121.5 42.5t48.5 99.5zM230 613q0 -58 67 -115l55 229 q-55 -5 -88.5 -36t-33.5 -78z" />
<glyph unicode="%" horiz-adv-x="683" d="M694 770l-614 -770h-67l623 770h58zM207 465q-38 0 -62 29.5t-24 77.5q0 77 49.5 143t107.5 66q39 0 63 -28t24 -74q0 -76 -51 -145t-107 -69zM274 755q-35 0 -67 -68t-32 -141q0 -55 38 -55q34 0 65.5 68.5t31.5 143.5q0 52 -36 52zM449 -10q-38 0 -62 29.5t-24 77.5 q0 77 49.5 143t107.5 66q39 0 63 -28t24 -74q0 -76 -51 -145t-107 -69zM516 280q-35 0 -67 -68t-32 -141q0 -55 38 -55q34 0 65.5 68.5t31.5 143.5q0 52 -36 52z" />
<glyph unicode="&#x26;" horiz-adv-x="898" d="M388 780q61 0 98.5 -31.5t37.5 -81.5q0 -53 -33 -60q-17 38 -47.5 59.5t-67.5 21.5q-46 0 -75.5 -30.5t-29.5 -78.5q0 -51 34 -62q49 -16 65 -29t16 -36q0 -22 -12.5 -34t-35.5 -12q-28 0 -57.5 28.5t-53.5 28.5q-35 0 -58 -34.5t-23 -86.5q0 -103 84.5 -175t206.5 -72 q112 0 194.5 67t82.5 159q0 63 -40.5 106t-99.5 43q-49 0 -79 -25t-30 -65q0 -30 15.5 -50.5t38.5 -20.5t23 24q0 5 -1 16t-1 15q0 17 11 28.5t28 11.5q21 0 36 -18t15 -44q0 -35 -30 -60.5t-73 -25.5q-48 0 -79.5 36.5t-31.5 91.5q0 72 54 117.5t140 45.5h105q60 0 96 25 t36 67q0 25 -16 45t-36 20q-15 0 -21 -11t-6.5 -23.5t-11 -23.5t-32.5 -11q-24 0 -37.5 13.5t-13.5 37.5q0 33 25 52.5t68 19.5q62 0 103 -41t41 -103q0 -70 -54 -116t-139 -48l-2 -4q26 -16 42.5 -57.5t16.5 -91.5q0 -128 -106 -217.5t-259 -89.5q-149 0 -249.5 85.5 t-100.5 213.5q0 87 45.5 149.5t123.5 81.5q-17 37 -17 94q0 73 49.5 119.5t127.5 46.5z" />
<glyph unicode="'" horiz-adv-x="207" d="M183 564h-29q5 36 9 87.5t7 77t10.5 52.5t21.5 38t37 11q16 0 26 -9.5t10 -25.5q0 -7 -14 -41.5t-39 -93.5t-39 -96z" />
<glyph unicode="(" horiz-adv-x="337" d="M419 831l24 -28q-172 -174 -246.5 -333.5t-74.5 -368.5q0 -149 76 -267l-38 -28q-128 167 -128 361q0 174 99.5 344.5t287.5 319.5z" />
<glyph unicode=")" horiz-adv-x="335" d="M153 803l39 28q118 -161 118 -349q0 -177 -104.5 -352t-297.5 -324l-23 28q146 124 242.5 316t96.5 387q0 115 -71 266z" />
<glyph unicode="*" horiz-adv-x="532" d="M332 536q-17 -51 -19 -115q-2 -61 -45 -61q-23 0 -34.5 14t-11.5 34q0 12 5.5 20.5t23.5 26.5q26 26 52 91q-47 -8 -77 -22t-43.5 -23.5t-25.5 -9.5q-18 0 -31.5 14.5t-13.5 32.5t13.5 31.5t35.5 13.5q10 0 36 -6.5t45 -6.5q23 0 56 6q-25 28 -51 47.5t-41 26t-24.5 16.5 t-9.5 27q0 24 14 35.5t33 11.5q22 0 33 -18t27.5 -57t42.5 -70q17 49 17 118q0 26 12.5 41.5t32.5 15.5t33.5 -14t13.5 -31t-33 -59t-48 -82q54 10 94.5 33t51.5 23q17 0 30.5 -14.5t13.5 -32.5q0 -16 -12 -30t-34 -14q-9 0 -32 5.5t-43 5.5q-27 0 -63 -6q20 -24 45.5 -42 t42 -26t28.5 -20.5t12 -30.5q0 -21 -13.5 -33t-32.5 -12q-38 0 -51 56q-4 17 -20 44t-35 46z" />
<glyph unicode="+" horiz-adv-x="578" d="M315 104h-52v209h-208v50h208v209h52v-209h208v-50h-208v-209z" />
<glyph unicode="," horiz-adv-x="265" d="M71 3q-12 -3 -21 -3q-25 0 -38 16t-13 42q0 30 20 51t49 21q30 0 50.5 -21t20.5 -50q0 -56 -40.5 -118.5t-114.5 -115.5l-23 32q52 36 81 76t29 70z" />
<glyph unicode="-" horiz-adv-x="465" d="M369 248h-309l23 83h309z" />
<glyph unicode="." horiz-adv-x="262" d="M68 -10q-28 0 -48.5 19.5t-20.5 48.5q0 30 20 51t49 21q30 0 50.5 -21t20.5 -50t-21 -49t-50 -20z" />
<glyph unicode="/" horiz-adv-x="390" d="M457 770l-417 -770h-69l424 770h62z" />
<glyph unicode="0" horiz-adv-x="656" d="M260 -10q-86 0 -138.5 74t-52.5 194q0 125 54 247t140 198.5t174 76.5q86 0 139 -70t53 -185q0 -124 -55.5 -249.5t-142 -205.5t-171.5 -80zM427 728q-56 0 -114 -83t-95.5 -212t-37.5 -254q0 -65 24.5 -100.5t68.5 -35.5q56 0 113.5 83.5t94 214t36.5 257.5 q0 62 -23.5 96t-66.5 34z" />
<glyph unicode="1" horiz-adv-x="474" d="M426 780l-129 -512q-27 -110 -27 -141q0 -43 24.5 -65t82.5 -22l-11 -40h-370l11 40q72 0 108.5 29.5t56.5 109.5l102 411q2 12 2 16q0 13 -15 13q-4 0 -52.5 -8t-93.5 -8l6 42q78 0 140.5 35.5t127.5 99.5h37z" />
<glyph unicode="2" horiz-adv-x="625" d="M165 103v-5h204q49 0 76.5 16t55.5 59h37l-63 -173h-464l9 53q251 200 351.5 321.5t100.5 225.5q0 58 -30.5 93t-82.5 35q-58 0 -98.5 -40t-40.5 -97q0 -45 24.5 -70t69.5 -25q-9 -25 -32 -39t-54 -14q-49 0 -79 34t-30 89q0 89 76.5 152t184.5 63q95 0 152.5 -50.5 t57.5 -133.5q0 -102 -98 -216t-327 -278z" />
<glyph unicode="3" horiz-adv-x="617" d="M411 219q0 67 -32 111.5t-80 44.5q-12 0 -40 -4t-39 -4q-32 0 -32 20q0 18 27.5 27t67 17t78.5 23.5t66.5 57t27.5 106.5q0 57 -22 84t-68 27q-52 0 -85.5 -29t-33.5 -74q0 -31 16.5 -48t45.5 -17q-17 -38 -68 -38q-38 0 -61.5 25.5t-23.5 67.5q0 71 62 117.5t156 46.5 q88 0 140 -42t52 -112t-52.5 -131t-128.5 -78v-6q68 -18 106.5 -64.5t38.5 -111.5q0 -101 -87.5 -173t-210.5 -72q-92 0 -149.5 43t-57.5 112q0 56 36.5 97.5t86.5 41.5q26 0 45 -12.5t23 -31.5q-37 0 -64 -31.5t-27 -74.5q0 -44 30 -68t85 -24q77 0 124.5 49t47.5 128z" />
<glyph unicode="4" horiz-adv-x="578" d="M535 780l-111 -434h123l-15 -61h-123l-69 -285h-104l72 285h-295l13 51l465 444h44zM117 346h208l72 262l-3 1z" />
<glyph unicode="5" horiz-adv-x="610" d="M318 491q101 0 168 -63t67 -160q0 -115 -93 -196.5t-223 -81.5q-93 0 -149.5 43.5t-56.5 115.5q0 55 31.5 95t74.5 40q24 0 42.5 -12.5t22.5 -31.5q-32 0 -54 -27.5t-22 -67.5q0 -47 32 -75t85 -28q83 0 137.5 67.5t54.5 170.5q0 161 -140 161q-33 0 -60.5 -9 t-42.5 -20.5t-28 -20.5t-21 -9q-15 0 -15 17q0 7 2 13l125 368q52 -18 163 -18q113 0 167 19l6 -1q-42 -119 -174 -119q-63 0 -139 18l-67 -197l4 -6q34 15 103 15z" />
<glyph unicode="6" horiz-adv-x="635" d="M559 279q0 -115 -82.5 -202t-192.5 -87q-98 0 -155.5 75.5t-57.5 204.5t56 247.5t148.5 190.5t192.5 72q67 0 111.5 -30.5t44.5 -76.5q0 -26 -14.5 -41.5t-39.5 -15.5q-22 0 -35.5 14t-13.5 41q0 34 -11.5 49t-41.5 15q-80 0 -152.5 -80t-105.5 -205l3 -2q65 40 137 40 q94 0 151.5 -57.5t57.5 -151.5zM332 439q-72 0 -116 -65t-44 -172q0 -81 27 -124t79 -43q69 0 115.5 72t46.5 178q0 154 -108 154z" />
<glyph unicode="7" horiz-adv-x="524" d="M499 680h-186q-74 0 -98 -11.5t-50 -60.5l-21 -39h-43l93 237h30q0 -1 -0.5 -3.5t-0.5 -4.5q0 -28 73 -28h303l-3 -20q-23 -34 -48.5 -75t-63.5 -107.5t-64 -112.5t-85.5 -153t-92.5 -166q-48 -86 -75.5 -116t-56.5 -30q-21 0 -34.5 11t-13.5 30t25.5 59.5t130.5 189.5z " />
<glyph unicode="8" horiz-adv-x="639" d="M416 429q127 -78 127 -207q0 -101 -78 -166.5t-199 -65.5q-104 0 -163.5 51t-59.5 141q0 162 210 222q-107 71 -107 173q0 83 73 143t173 60q87 0 146 -46t59 -115q0 -67 -52 -121.5t-129 -68.5zM342 349l-52 34q-146 -66 -146 -208q0 -132 128 -132q73 0 120 42t47 107 q0 90 -97 157zM337 476l41 -26q124 67 124 165q0 50 -31.5 81.5t-86.5 31.5q-57 0 -95.5 -33t-38.5 -84q0 -35 22.5 -71t64.5 -64z" />
<glyph unicode="9" horiz-adv-x="634" d="M113 501q0 112 82.5 195.5t192.5 83.5q98 0 155.5 -75.5t57.5 -204.5t-56 -247.5t-148.5 -190.5t-192.5 -72q-67 0 -111.5 30.5t-44.5 76.5q0 26 14.5 41.5t39.5 15.5q22 0 35.5 -14t13.5 -41q0 -34 11.5 -49t41.5 -15q80 0 152.5 82.5t105.5 212.5l-3 2 q-65 -40 -137 -40q-94 0 -151.5 57.5t-57.5 151.5zM340 341q72 0 116 62.5t44 164.5q0 81 -27 124t-79 43q-69 0 -115.5 -69.5t-46.5 -170.5q0 -154 108 -154z" />
<glyph unicode=":" horiz-adv-x="304" d="M84 -10q-28 0 -48.5 19.5t-20.5 48.5q0 30 20 51t49 21q30 0 50.5 -21t20.5 -50t-21 -49t-50 -20zM166 300q-28 0 -48.5 19.5t-20.5 48.5q0 30 20 51t49 21q30 0 50.5 -21t20.5 -50t-21 -49t-50 -20z" />
<glyph unicode=";" horiz-adv-x="306" d="M166 300q-28 0 -48.5 19.5t-20.5 48.5q0 30 20 51t49 21q30 0 50.5 -21t20.5 -50t-21 -49t-50 -20zM87 3q-12 -3 -21 -3q-25 0 -38 16t-13 42q0 30 20 51t49 21q30 0 50.5 -21t20.5 -50q0 -56 -40.5 -118.5t-114.5 -115.5l-23 32q52 36 81 76t29 70z" />
<glyph unicode="&#x3c;" horiz-adv-x="618" d="M101 336l413 -210v-54l-458 232v64l458 232v-56z" />
<glyph unicode="=" horiz-adv-x="637" d="M538 302l-14 -50h-454l14 50h454zM588 472l-14 -50h-454l14 50h454z" />
<glyph unicode="&#x3e;" horiz-adv-x="621" d="M122 126l413 210l-413 208v56l458 -232v-64l-458 -232v54z" />
<glyph unicode="?" horiz-adv-x="468" d="M195 -10q-26 0 -44 18t-18 44q0 27 18.5 45.5t44.5 18.5t44.5 -19t18.5 -45t-18.5 -44t-45.5 -18zM142 290q0 53 29 95.5t70 70.5t82 54t70 58.5t29 69.5q0 41 -30.5 68t-77.5 27q-42 0 -70.5 -21t-28.5 -52q0 -18 11 -27t24 -10.5t24 -11.5t11 -29q0 -23 -14.5 -36 t-40.5 -13q-41 0 -68.5 29t-27.5 72q0 61 54.5 104t130.5 43t121.5 -44t45.5 -116q0 -56 -30 -102t-72.5 -76.5t-85 -56.5t-72.5 -54t-30 -58q0 -40 46 -40t74 51l27 -16q-38 -78 -111 -78q-44 0 -67 25.5t-23 73.5z" />
<glyph unicode="@" horiz-adv-x="1030" d="M684 441l23 89h96l-67 -237q-26 -92 -26 -126q0 -19 12 -29.5t32 -10.5q66 0 123.5 93t57.5 200q0 136 -99.5 225.5t-250.5 89.5q-181 0 -304.5 -126t-123.5 -310q0 -172 112.5 -278.5t294.5 -106.5q169 0 314 100l21 -31q-169 -117 -348 -117q-213 0 -349 121.5 t-136 312.5q0 202 148.5 341t364.5 139q179 0 290 -99t111 -259q0 -137 -76.5 -241t-177.5 -104q-98 0 -107 114l-3 1q-31 -52 -76.5 -83.5t-91.5 -31.5q-65 0 -107.5 48.5t-42.5 122.5q0 110 83 201t183 91q89 0 117 -98zM572 498q-66 0 -121 -85t-55 -186q0 -105 67 -105 q65 0 125 88.5t60 183.5q0 49 -20 76.5t-56 27.5z" />
<glyph unicode="A" d="M690 780l-139 -614q-12 -52 -12 -77q0 -29 19 -39t74 -10l-10 -40h-296l10 40q59 0 80 22.5t39 104.5l27 123h-215l-63 -66q-52 -54 -79 -86t-33 -43.5t-6 -20.5q0 -19 17 -26.5t58 -7.5l-10 -40h-259l10 40q47 0 99 40.5t144 150.5l461 549h84zM310 340h181l82 310h-4z " />
<glyph unicode="B" horiz-adv-x="736" d="M280 385l-49 -178q-21 -75 -21 -102q0 -60 94 -60q108 0 170.5 54.5t62.5 139.5q0 75 -49 110.5t-151 35.5h-57zM-29 0l11 40q63 0 89 21.5t46 97.5l118 441q11 44 11 69q0 34 -21 47.5t-71 13.5l11 40h268q47 0 88.5 -8t80.5 -26.5t61.5 -54t22.5 -84.5 q0 -154 -212 -186v-4q87 -18 133.5 -65.5t46.5 -120.5q0 -101 -89 -161t-228 -60h-366zM349 645l-56 -209h74q95 0 154 46t59 120q0 65 -37 94t-123 29q-27 0 -43.5 -18.5t-27.5 -61.5z" />
<glyph unicode="C" horiz-adv-x="728" d="M665 189q-69 -107 -138.5 -153t-161.5 -46q-135 0 -213.5 84t-78.5 227q0 124 59 235t157.5 177.5t208.5 66.5q94 0 180 -60l37 50h37l-46 -251h-38q-8 108 -47 158.5t-115 50.5q-131 0 -221.5 -124t-90.5 -304q0 -248 193 -248q72 0 130.5 39t111.5 122z" />
<glyph unicode="D" horiz-adv-x="836" d="M152 730l13 40h271q159 0 252 -77q109 -90 109 -246q0 -89 -38.5 -177t-100.5 -149q-122 -121 -337 -121h-350l11 40q66 0 90.5 21t44.5 97l115 442q1 2 7.5 23.5t10.5 38t4 26.5q0 42 -83 42h-19zM355 669l-118 -438q-25 -92 -25 -113q0 -74 100 -74q75 0 138 26t105 68 t71 97t42 111t13 111q0 125 -67.5 194t-185.5 69q-32 0 -48.5 -9.5t-24.5 -41.5z" />
<glyph unicode="E" horiz-adv-x="740" d="M-26 0l11 40q65 0 90 22.5t44 95.5l116 441q14 53 14 78q0 32 -22 42.5t-78 10.5l11 40h546v-202h-38q-24 91 -62.5 124.5t-105.5 33.5h-130l-78 -297h63q53 0 80 22.5t59 91.5h37l-60 -296h-40q3 30 3 52q0 46 -17.5 66t-62.5 20h-75l-57 -215q-9 -33 -9 -56 q0 -37 33 -54t109 -17q113 0 172 37t101 131h47l-78 -211h-623z" />
<glyph unicode="F" horiz-adv-x="659" d="M-26 0l11 40q65 0 90 22.5t44 95.5l116 441q14 53 14 78q0 32 -22 42.5t-78 10.5l11 40h546v-202h-38q-24 91 -62.5 124.5t-105.5 33.5h-130l-78 -297h68q53 0 80 22.5t59 91.5h37l-70 -316h-40q3 36 3 62q0 51 -15.5 73.5t-54.5 22.5h-80l-57 -215q-9 -33 -9 -56 q0 -37 28 -54t94 -17l-11 -43h-350z" />
<glyph unicode="G" horiz-adv-x="809" d="M387 44q87 0 141 46.5t54 131.5q0 41 -18.5 59.5t-66.5 18.5l9 39h274l-10 -39q-45 0 -62.5 -21.5t-41.5 -112.5q-22 -87 -23 -117q-19 -3 -61.5 -19t-97 -28t-119.5 -12q-135 0 -213.5 84t-78.5 227q0 124 61.5 235t165 177.5t218.5 66.5q105 0 200 -60l37 50h37 l-36 -220h-38q-10 92 -56 135t-136 43q-140 0 -236 -124t-96 -304q0 -256 193 -256z" />
<glyph unicode="H" horiz-adv-x="911" d="M820 566l-105 -398q-12 -44 -12 -70q0 -33 21 -45.5t70 -12.5l-12 -40h-319l11 40q61 0 88.5 23t46.5 95l55 209h-388l-52 -199q-12 -44 -12 -70q0 -33 21 -45.5t70 -12.5l-12 -40h-319l11 40q61 0 88.5 23t46.5 95l117 442q15 56 15 82q0 30 -21 39t-78 9l11 40h325 l-11 -40q-66 0 -93 -30.5t-54 -133.5l-39 -148h388l48 182q15 56 15 82q0 30 -21 39t-78 9l11 40h325l-11 -40q-66 0 -93 -30.5t-54 -133.5z" />
<glyph unicode="I" horiz-adv-x="420" d="M329 566l-105 -398q-12 -44 -12 -70q0 -33 21 -45.5t70 -12.5l-12 -40h-319l11 40q61 0 88.5 23t46.5 95l117 442q15 56 15 82q0 30 -21 39t-78 9l11 40h325l-11 -40q-66 0 -93 -30.5t-54 -133.5z" />
<glyph unicode="J" horiz-adv-x="543" d="M134 43q48 0 86.5 47t61.5 132l99 378q15 56 15 82q0 29 -22 38.5t-87 9.5l11 40h325l-11 -40q-60 0 -85 -30t-52 -134l-100 -380q-25 -94 -87.5 -145t-152.5 -51q-76 0 -117 34.5t-41 96.5q0 47 25 78.5t63 31.5q27 0 44.5 -16.5t17.5 -41.5q0 -27 -26 -48.5t-26 -37.5 q0 -19 16.5 -31.5t42.5 -12.5z" />
<glyph unicode="K" horiz-adv-x="825" d="M328 566l-37 -139l207 148q121 86 121 127q0 28 -67 28l10 40h284l-10 -40q-7 0 -13.5 -1t-15.5 -4.5t-16.5 -7t-21.5 -12.5t-26 -17t-34 -23.5t-41 -29t-52.5 -37.5t-63.5 -45l-154 -108l196 -258q55 -73 82.5 -102.5t44.5 -37t47 -7.5l-11 -40h-314l11 40q38 0 56 6 t18 22q0 28 -57 105l-158 212l-40 -28l-50 -189q-12 -44 -12 -70q0 -33 23 -45.5t78 -12.5l-12 -40h-319l11 40q56 0 81 22.5t44 95.5l117 442q15 56 15 82q0 30 -21 39t-78 9l11 40h325l-11 -40q-66 0 -93 -30.5t-54 -133.5z" />
<glyph unicode="L" horiz-adv-x="702" d="M-25 0l11 40q65 0 90.5 23t43.5 95l113 442q15 62 15 82q0 30 -21 39t-78 9l11 40h325l-11 -40q-66 0 -93 -30.5t-54 -133.5l-104 -396q-9 -33 -9 -56q0 -37 25.5 -54t86.5 -17q118 0 179 41.5t104 146.5h47l-88 -231h-593z" />
<glyph unicode="M" horiz-adv-x="1020" d="M849 655h-4l-410 -655h-43l-78 655h-4l-128 -487q-7 -28 -7 -44q0 -40 23 -61.5t63 -22.5l-12 -40h-276l11 40q46 0 83.5 33.5t51.5 84.5l117 442q15 56 15 82q0 30 -21 39t-78 9l11 40h240l71 -596h4l377 596h211l-11 -40q-55 0 -77 -29.5t-50 -134.5l-105 -398 q-12 -44 -12 -70q0 -33 23 -45.5t78 -12.5l-12 -40h-319l11 40q56 0 81 22.5t44 95.5z" />
<glyph unicode="N" horiz-adv-x="842" d="M620 0h-40l-262 602h-4l-114 -434q-6 -24 -6 -43q0 -41 25 -62.5t70 -22.5l-12 -40h-286l11 40q46 0 83.5 33.5t51.5 84.5l118 444q4 15 4 31q0 46 -39.5 71t-107.5 26l12 40h235l250 -573h4l106 405q5 22 5 37q0 42 -24 66t-60 25l12 40h256l-11 -40q-38 0 -69.5 -33 t-45.5 -85z" />
<glyph unicode="O" horiz-adv-x="820" d="M505 780q128 0 203.5 -84.5t75.5 -226.5q0 -126 -59 -237t-158 -176.5t-211 -65.5q-128 0 -205 85.5t-77 227.5q0 125 59.5 235.5t159 176t212.5 65.5zM505 728q-130 0 -220 -124t-90 -304q0 -126 44.5 -191t130.5 -65q126 0 209.5 128t83.5 324q0 119 -38.5 175.5 t-119.5 56.5z" />
<glyph unicode="P" horiz-adv-x="667" d="M275 358l-42 -151q-21 -76 -21 -102q0 -60 114 -60l-11 -45h-332l11 40q48 0 78.5 29t46.5 90l118 441q13 48 13 75q0 30 -22 42t-82 13l11 40h278q128 0 200.5 -45.5t72.5 -126.5q0 -104 -102 -172t-259 -68h-72zM351 645l-63 -236h49q113 0 186.5 55t73.5 140 q0 121 -160 121q-40 0 -56.5 -15.5t-29.5 -64.5z" />
<glyph unicode="Q" horiz-adv-x="834" d="M513 780q130 0 207.5 -85t77.5 -228q0 -134 -66.5 -249.5t-172.5 -173.5l-217 -118l2 -3q57 0 137 -45.5t133 -45.5q52 0 90.5 27t53.5 77l33 -15q-18 -82 -80 -131.5t-146 -49.5q-51 0 -99.5 20.5t-79 45t-66 45t-62.5 20.5q-24 0 -43 -15t-29.5 -33.5t-29.5 -33.5 t-43 -15t-37.5 13.5t-13.5 36.5q0 26 20 44.5t73 40.5l192 81q-125 5 -199 90t-74 224q0 125 60 235t162 175.5t217 65.5zM513 728q-134 0 -226 -123.5t-92 -303.5q0 -121 46 -185t134 -64q130 0 216 126t86 316q0 120 -40 177t-124 57z" />
<glyph unicode="R" d="M280 375l-47 -168q-21 -76 -21 -102q0 -60 114 -60l-11 -45h-332l11 40q48 0 78.5 29t46.5 90l118 441q13 48 13 75q0 30 -22 42t-82 13l11 40h278q120 0 189 -45.5t69 -126.5q0 -80 -59 -135t-160 -76l74 -183q42 -103 72.5 -133.5t95.5 -30.5l-11 -40h-190l-147 375 h-88zM351 645l-58 -219h49q108 0 174 47t66 131q0 121 -145 121q-40 0 -56.5 -15.5t-29.5 -64.5z" />
<glyph unicode="S" horiz-adv-x="598" d="M538 713l20 42h30l-42 -197h-34q-3 90 -33 130.5t-94 40.5q-61 0 -101 -33t-40 -84q0 -33 20 -63.5t50.5 -53t66 -50t66 -54.5t50.5 -68t20 -89q0 -101 -74 -172.5t-180 -71.5q-109 0 -191 86l-21 -76h-35l42 254h33q7 -103 51.5 -157t121.5 -54q71 0 117.5 39.5 t46.5 99.5q0 46 -29 86t-70.5 71t-83 63t-70.5 75.5t-29 94.5q0 86 69 147t167 61q89 0 156 -67z" />
<glyph unicode="T" horiz-adv-x="780" d="M525 610l-118 -442q-16 -60 -16 -70q0 -32 26 -45t89 -13l-12 -40h-348l11 40q64 0 94.5 22t50.5 96l122 456q9 36 9 60q0 54 -55 54q-170 0 -260 -171h-40l95 213h668l-20 -213h-38q0 93 -34.5 132t-106.5 39q-50 0 -74.5 -23.5t-42.5 -94.5z" />
<glyph unicode="U" horiz-adv-x="808" d="M134 353l66 246q13 50 13 77q0 30 -21 42t-73 12l13 40h319l-11 -40q-71 0 -95.5 -28t-52.5 -137l-65 -251q-13 -49 -13 -94q0 -81 41.5 -127.5t119.5 -46.5q93 0 151.5 64.5t95.5 179.5q29 90 54.5 216t25.5 164q0 55 -102 60l12 40h263l-12 -40q-50 0 -70.5 -25 t-39.5 -113l-43 -200q-87 -402 -343 -402q-125 0 -189 59t-64 170q0 59 20 134z" />
<glyph unicode="V" horiz-adv-x="752" d="M248 142l338 404q63 74 87.5 108t24.5 51q0 25 -69 25l10 40h259l-10 -40q-48 0 -101 -41t-142 -150l-451 -549h-84l139 614q12 52 12 77q0 29 -19 39t-74 10l10 40h296l-10 -40q-59 0 -80 -22.5t-39 -104.5l-101 -461h4z" />
<glyph unicode="W" horiz-adv-x="1064" d="M588 152l308 394q59 76 82.5 110.5t23.5 50.5q0 14 -14.5 18.5t-48.5 4.5l10 40h259l-10 -40q-50 0 -105 -41t-138 -150l-421 -549h-84l108 477l-366 -477h-84l139 614q12 52 12 77q0 29 -19 39t-74 10l10 40h276l-10 -40q-43 0 -62 -24t-37 -103l-101 -451h4l339 435 l4 17q12 52 12 77q0 29 -17 39t-66 10l10 40h286l-10 -40q-59 0 -80 -22.5t-39 -104.5l-101 -451h4z" />
<glyph unicode="X" horiz-adv-x="781" d="M454 422l117 -255q35 -75 65.5 -101t85.5 -26l-9 -40h-330l9 40q84 0 84 50q0 28 -18 69l-81 179l-83 -92q-113 -124 -113 -170q0 -36 78 -36l-9 -40h-289l10 40q56 5 78.5 18t72.5 71l231 266l-108 227q-31 65 -58.5 86.5t-78.5 21.5l11 40h311l-11 -40q-67 0 -67 -50 q0 -32 31 -101l49 -108l86 96q88 98 88 133q0 30 -58 30l12 40h258l-11 -40q-43 0 -80 -24.5t-98 -91.5z" />
<glyph unicode="Y" horiz-adv-x="689" d="M440 348l-47 -180q-12 -43 -12 -70q0 -33 23 -45.5t78 -12.5l-12 -40h-339l11 40q67 0 96.5 23t48.5 95l46 178l-120 288q-29 70 -50.5 88t-72.5 18l11 40h281l-11 -40q-38 0 -54.5 -8t-16.5 -27q0 -17 8 -36l107 -258l139 203q25 36 33 51t8 32q0 43 -74 43l11 40h247 l-11 -40q-39 0 -58 -14.5t-56 -66.5z" />
<glyph unicode="Z" horiz-adv-x="672" d="M696 751l-538 -701h125q203 0 282 171h43l-84 -221h-531v21l543 701h-101q-83 0 -128.5 -12t-79.5 -42.5t-74 -95.5h-43l101 198h485v-19z" />
<glyph unicode="[" horiz-adv-x="369" d="M470 773h-151l-237 -876h151l-13 -47h-240l262 970h241z" />
<glyph unicode="\" horiz-adv-x="463" d="M287 0l-137 770h55l146 -770h-64z" />
<glyph unicode="]" horiz-adv-x="369" d="M-89 -103h150l237 876h-151l13 47h241l-263 -970h-240z" />
<glyph unicode="^" horiz-adv-x="481" d="M225 409h90l72 -179h-45l-88 118l-150 -118h-44z" />
<glyph unicode="_" horiz-adv-x="731" d="M525 -143h-570l23 68h570z" />
<glyph unicode="`" horiz-adv-x="275" d="M234 651h-47l-119 65q-39 21 -39 44q0 19 15 31t34 12q31 0 58 -33z" />
<glyph unicode="a" horiz-adv-x="570" d="M332 488q-49 0 -103 -58t-89 -140t-35 -150q0 -36 15 -57.5t41 -21.5q44 0 95 66t84 153.5t33 151.5q0 26 -11 41t-30 15zM414 474l21 56h83l-57 -153q-28 -75 -51 -164t-23 -122q0 -29 19 -29q25 0 100 104l26 -21q-41 -73 -90 -114t-94 -41q-48 0 -48 75q0 14 3 53 l-4 1q-29 -56 -80.5 -92.5t-100.5 -36.5q-50 0 -79 39t-29 106q0 90 48.5 185t123 157.5t144.5 62.5q64 0 88 -66z" />
<glyph unicode="b" horiz-adv-x="534" d="M331 829l-127 -385l3 -2q29 46 72.5 71.5t92.5 25.5q60 0 93.5 -38t33.5 -104q0 -93 -51 -188.5t-131 -157t-159 -61.5q-57 0 -93.5 34.5t-36.5 89.5q0 52 43 187l121 390q15 51 15 64q0 35 -76 35l8 30zM174 41q45 0 98.5 59.5t90.5 146t37 158.5q0 34 -16 57.5 t-39 23.5q-44 0 -96.5 -59.5t-89 -146t-36.5 -157.5q0 -82 51 -82z" />
<glyph unicode="c" horiz-adv-x="441" d="M338 181l35 -20q-41 -83 -97 -127t-119 -44q-64 0 -103.5 44.5t-39.5 118.5q0 87 46.5 178t118.5 150t141 59q47 0 78.5 -26t31.5 -65q0 -25 -14.5 -40.5t-37.5 -15.5q-22 0 -37 14.5t-15 35.5q0 10 4 21.5t4 14.5q0 14 -24 14q-43 0 -88 -51.5t-74 -132t-29 -157.5 q0 -48 18.5 -75.5t51.5 -27.5q35 0 77 37.5t72 94.5z" />
<glyph unicode="d" horiz-adv-x="598" d="M410 486l58 206q16 58 16 71q0 15 -20 21t-72 6l11 40h193l-111 -405q-72 -264 -72 -327q0 -41 25 -41q22 0 48 37t45 97l38 -9q-66 -192 -166 -192q-36 0 -55.5 23t-19.5 66q0 20 7 46l-8 2q-36 -64 -90 -100.5t-105 -36.5q-52 0 -86.5 43.5t-34.5 112.5q0 85 49 178 t123 154.5t141 61.5q33 0 50 -12t36 -42zM331 487q-50 0 -103 -59t-86.5 -142t-33.5 -152q0 -36 18 -57.5t48 -21.5q43 0 93 65t82 151.5t32 149.5q0 66 -50 66z" />
<glyph unicode="e" horiz-adv-x="456" d="M339 154l32 -21q-87 -143 -214 -143q-68 0 -105.5 43t-37.5 120q0 90 48 180.5t123 148.5t149 58q48 0 78.5 -24.5t30.5 -62.5q0 -70 -96.5 -142t-230.5 -102q-4 -25 -4 -55q0 -109 77 -109q37 0 76.5 29t73.5 80zM314 493q-51 0 -106.5 -72.5t-81.5 -166.5 q97 26 160 81.5t63 115.5q0 42 -35 42z" />
<glyph unicode="f" horiz-adv-x="334" d="M246 450l-94 -377q-33 -133 -70.5 -206.5t-78.5 -100t-101 -26.5q-41 0 -68.5 22t-27.5 54q0 25 13 39.5t36 14.5q19 0 29.5 -11t13.5 -24t12.5 -24t26.5 -11q23 0 42 23.5t29 63.5l145 563h-96l13 46h95q43 176 102 255t139 79q58 0 96.5 -24.5t38.5 -61.5 q0 -23 -13 -39t-35 -16q-26 0 -38.5 15t-14.5 33t-12 33t-31 15q-39 0 -76.5 -79.5t-63.5 -209.5h101l-14 -46h-98z" />
<glyph unicode="g" horiz-adv-x="550" d="M435 -73q0 -86 -71.5 -136.5t-193.5 -50.5q-109 0 -177 39t-68 102q0 41 27 68t67 27q23 0 51 -14q-56 -23 -56 -87q0 -42 42.5 -66t116.5 -24q77 0 130.5 30.5t53.5 67.5q0 28 -34 51t-94 33q-112 19 -161.5 44.5t-49.5 69.5q0 29 26 49.5t91 39.5l2 4q-76 54 -76 139 q0 93 70.5 160.5t167.5 67.5q74 0 124 -54q47 53 91 53q31 0 55.5 -19.5t24.5 -45.5q0 -20 -13.5 -33.5t-33.5 -13.5q-21 0 -38 21t-34 21q-11 0 -35 -16q9 -23 9 -58q0 -109 -61 -175t-168 -74q-89 -7 -89 -36q0 -22 31.5 -35t76 -20.5t89 -18t76 -38.5t31.5 -72zM225 191 q48 0 88.5 69.5t40.5 153.5q0 40 -18 63.5t-47 23.5q-47 0 -90.5 -73t-43.5 -152q0 -38 19.5 -61.5t50.5 -23.5z" />
<glyph unicode="h" horiz-adv-x="574" d="M356 311q32 95 32 134q0 23 -7.5 32.5t-25.5 9.5q-61 0 -121 -98.5t-134 -319.5l-23 -69h-84l198 678q15 55 15 74q0 20 -19 28.5t-70 9.5l7 40h204l-114 -386l3 -2q68 98 162 98q47 0 72.5 -28t25.5 -81q0 -67 -41 -178q-55 -153 -55 -165q0 -23 19 -23q44 0 109 89 l28 -21q-31 -58 -90.5 -100.5t-109.5 -42.5q-27 0 -39 15t-12 48q0 34 13.5 84t56.5 174z" />
<glyph unicode="i" horiz-adv-x="344" d="M86 202l45 128q26 71 26 101q0 23 -14 23q-19 0 -47 -31.5t-40 -53.5l-29 18q26 51 85.5 102t107.5 51q26 0 38 -15.5t12 -51.5q0 -8 -1.5 -17.5t-5 -22.5t-6.5 -24t-9.5 -29.5t-11.5 -31.5t-14 -38t-15 -41l-37 -101q-21 -59 -21 -78q0 -23 21 -23q25 0 57 36t50 68 l30 -17q-29 -60 -84.5 -112t-115.5 -52q-58 0 -58 65q0 42 37 147zM278 704q-25 0 -43.5 17.5t-18.5 43.5q0 27 18 46t44 19q27 0 45.5 -19t18.5 -45t-19 -44t-45 -18z" />
<glyph unicode="j" horiz-adv-x="299" d="M237 704q-25 0 -43.5 17.5t-18.5 43.5q0 27 18 46t44 19q27 0 45.5 -19t18.5 -45t-19 -44t-45 -18zM11 -113l111 444q21 84 21 103q0 20 -15 20q-19 0 -46.5 -31t-39.5 -54l-29 18q26 51 85.5 102t107.5 51q50 0 50 -56q0 -44 -48 -217l-83 -301q-25 -90 -88 -158 t-132 -68q-41 0 -68.5 22t-27.5 54q0 27 13 43t36 16q19 0 31 -11.5t16.5 -26t13.5 -26t21 -11.5q24 0 42.5 23.5t28.5 63.5z" />
<glyph unicode="k" horiz-adv-x="513" d="M357 80q29 0 82 75l26 -14q-72 -151 -149 -151q-24 0 -39.5 16.5t-34.5 61.5l-67 160l-22 -10l-63 -218h-91l193 717q7 27 7 37q0 21 -19 28.5t-74 7.5l9 30l199 10l-104 -385l4 -1q58 97 147 97q47 0 74 -22.5t27 -60.5q0 -46 -46.5 -93.5t-129.5 -85.5l-26 -12l51 -132 q20 -55 46 -55zM162 268q87 30 143.5 76.5t56.5 87.5t-41 41t-89 -61.5t-70 -143.5z" />
<glyph unicode="l" horiz-adv-x="313" d="M50 202l133 489q15 60 15 64q0 35 -76 35l8 30l183 9l-179 -657q-16 -58 -16 -82q0 -23 21 -23q28 0 63.5 40t53.5 74l30 -17q-31 -69 -90 -121.5t-105 -52.5q-68 0 -68 65q0 42 27 147z" />
<glyph unicode="m" horiz-adv-x="870" d="M663 333q38 107 38 126q0 29 -20 29q-55 0 -144 -142q-31 -48 -55.5 -108.5t-86.5 -237.5h-94l66 201q72 219 72 254q0 33 -25 33q-40 0 -105 -83t-100 -178l-84 -227h-88l74 229q63 197 63 228q0 28 -17 28q-22 0 -55 -48.5t-55 -112.5l-30 15q69 201 178 201 q32 0 45.5 -18t13.5 -60q0 -48 -17 -92l3 -3q93 173 197 173q39 0 61 -24t22 -65q0 -24 -17 -85l2 -3q56 95 103 136t99 41q78 0 78 -87q0 -42 -50 -191t-50 -175q0 -19 10 -19q29 0 123 117l26 -14q-34 -67 -99 -124t-107 -57q-25 0 -39.5 21.5t-14.5 57.5q0 25 13.5 70 t65.5 194z" />
<glyph unicode="n" horiz-adv-x="627" d="M425 488q-47 0 -116 -89t-110 -199l-74 -200h-88l74 229q63 196 63 229q0 27 -17 27q-22 0 -56 -50t-54 -111l-30 15q69 201 178 201q32 0 45.5 -18t13.5 -61q0 -51 -17 -91l3 -3q51 89 104 131t114 42q43 0 66.5 -21t23.5 -60q0 -43 -53 -197t-53 -179q0 -15 10 -15 q27 0 114 97l26 -14q-32 -59 -94 -110t-102 -51q-25 0 -39.5 22t-14.5 58q0 27 12.5 68.5t66.5 194.5q31 89 31 118q0 37 -27 37z" />
<glyph unicode="o" horiz-adv-x="523" d="M187 -10q-70 0 -116.5 54.5t-46.5 146.5q0 131 89 240t198 109q73 0 119 -53t46 -139q0 -83 -41.5 -166.5t-109.5 -137.5t-138 -54zM193 40q43 0 87.5 58.5t72 142.5t27.5 159q0 93 -69 93q-43 0 -86 -57t-69.5 -139t-26.5 -155q0 -102 64 -102z" />
<glyph unicode="p" horiz-adv-x="563" d="M42 347l-27 28q76 86 180 130l47 160h76l-35 -133q37 7 63 7q85 0 132 -46t47 -129q0 -128 -113 -227t-266 -119l-37 -139q-8 -27 -8 -43q0 -25 20.5 -35t72.5 -11l-6 -40h-283l6 40q42 0 61.5 10t26.5 36l181 618q-73 -37 -138 -107zM320 490q-23 0 -50 -5l-113 -424 q104 20 184 106t80 191q0 60 -27.5 96t-73.5 36z" />
<glyph unicode="q" horiz-adv-x="535" d="M230 -164l73 249l-3 2q-55 -97 -154 -97q-62 0 -96.5 43t-34.5 120q0 88 43.5 179t112.5 149.5t137 58.5q65 0 106 -71l24 71h76l-184 -679q-7 -25 -7 -35q0 -19 17 -27t60 -9l-6 -40h-258l6 40q42 0 61.5 10t26.5 36zM313 488q-42 0 -88 -54.5t-76 -135t-30 -152.5 q0 -96 58 -96q66 0 130 109t64 220q0 109 -58 109z" />
<glyph unicode="r" horiz-adv-x="463" d="M47 378l-26 13q23 50 83 99.5t100 49.5q46 0 46 -76q0 -30 -7 -66l3 -3q25 59 81.5 107t101.5 48q29 0 48.5 -18.5t19.5 -45.5q0 -26 -16.5 -43t-42.5 -17q-23 0 -41.5 18.5t-28.5 18.5q-38 0 -96 -94.5t-102 -230.5l-45 -138h-93l65 207q63 196 63 233q0 22 -15 22 q-20 0 -52.5 -28t-45.5 -56z" />
<glyph unicode="s" horiz-adv-x="381" d="M77 387q0 66 47 109.5t119 43.5q48 0 80 -24.5t32 -61.5q0 -21 -11.5 -33t-31.5 -12t-33 13.5t-17.5 30.5t-14.5 30.5t-27 13.5q-22 0 -37 -19t-15 -47q0 -29 19.5 -62t43.5 -59t43.5 -68t19.5 -87q0 -67 -53.5 -116t-122.5 -49q-59 0 -95 26t-36 68q0 28 13.5 45 t36.5 17q43 0 49 -59q3 -32 11 -42.5t30 -10.5q36 0 57 22t21 59q0 36 -20 71t-44 60t-44 63t-20 78z" />
<glyph unicode="t" horiz-adv-x="365" d="M344 447h-109l-83 -275q-17 -54 -18 -82q0 -23 20 -23q31 0 71 40t60 74l29 -17q-35 -69 -98 -121.5t-112 -52.5q-35 0 -50.5 15.5t-15.5 49.5q0 42 31 147l74 245h-86l13 46h87l52 172h92l-52 -172h109z" />
<glyph unicode="u" horiz-adv-x="593" d="M169 62q34 0 98.5 84t101.5 184l74 200h93l-74 -229q-58 -181 -58 -210q0 -26 18 -26q20 0 52.5 35.5t51.5 80.5l30 -15q-28 -69 -81 -122.5t-103 -53.5q-29 0 -41 21t-12 64q0 40 7 75l-3 3q-91 -163 -194 -163q-84 0 -84 90q0 63 50 188q65 161 65 183q0 11 -9 11 q-24 0 -104 -97l-26 14q32 61 89 111t104 50q50 0 50 -58q0 -49 -70 -223q-46 -115 -46 -159q0 -38 21 -38z" />
<glyph unicode="v" horiz-adv-x="578" d="M461 357q0 29 -11.5 68t-11.5 58q0 57 52 57q31 0 44.5 -22.5t13.5 -72.5q0 -103 -48 -210t-122 -176t-146 -69q-55 0 -91 40t-36 101q0 122 119 293l-2 3q-32 0 -55 13t-37.5 26t-24.5 13q-17 0 -17 -17q0 -12 17.5 -30.5t17.5 -35.5q0 -18 -14 -29.5t-36 -11.5 q-25 0 -39.5 16t-14.5 45q0 50 37.5 87t86.5 37q28 0 59.5 -21.5t51.5 -21.5q19 0 34 15q22 19 29 23.5t19 4.5q20 0 20 -17q0 -8 -5.5 -15.5t-35.5 -44.5q-46 -55 -75.5 -136t-29.5 -149q0 -53 18.5 -86t47.5 -33q55 0 120 104.5t65 193.5z" />
<glyph unicode="w" horiz-adv-x="850" d="M407 97q-91 -107 -192 -107q-55 0 -86 35.5t-31 99.5q0 125 129 299l-2 3q-25 0 -45 8t-30.5 18t-21.5 18t-21 8q-16 0 -16 -17q0 -12 17.5 -30.5t17.5 -35.5q0 -18 -14 -29.5t-36 -11.5q-25 0 -39.5 16t-14.5 45q0 49 37 86.5t86 37.5q29 0 61 -21.5t50 -21.5 q15 0 30 15q26 28 47 28t21 -20q0 -7 -6.5 -15.5t-34.5 -41.5q-56 -66 -88 -146.5t-32 -148.5q0 -49 16 -76.5t45 -27.5q55 0 140 101q-5 47 -5 83q0 109 45 200.5t99 91.5q24 0 40.5 -21t16.5 -62q0 -113 -113 -274q9 -47 33.5 -77.5t53.5 -30.5q55 0 110 92.5t55 186.5 q0 33 -11.5 71.5t-11.5 57.5q0 57 52 57q31 0 44.5 -23.5t13.5 -76.5q0 -104 -43.5 -210t-112 -173t-135.5 -67q-86 0 -118 107zM463 247q59 96 59 173q0 38 -15 38q-20 0 -34.5 -48t-14.5 -114q0 -30 5 -49z" />
<glyph unicode="x" horiz-adv-x="578" d="M328 294l-14 -61q-16 -68 -16 -112q0 -77 53 -77q62 0 152 117l30 -18q-36 -67 -93.5 -110t-111.5 -43q-46 0 -75.5 32t-35.5 87l-3 1q-30 -53 -79 -86.5t-98 -33.5q-39 0 -63.5 22t-24.5 57q0 28 16 45t43 17q22 0 33.5 -13t14 -28.5t10 -28.5t22.5 -13q32 0 66 50.5 t59 134.5l28 97q18 61 18 97q0 54 -33 54q-28 0 -74 -37t-78 -85l-30 18q27 59 92 111t112 52q37 0 62.5 -30t25.5 -74q29 47 70.5 75.5t78.5 28.5q35 0 59 -23t24 -56q0 -24 -14 -39t-36 -15q-19 0 -29.5 11.5t-13 26t-10 26t-20.5 11.5q-32 0 -65 -53t-52 -135z" />
<glyph unicode="y" horiz-adv-x="515" d="M215 11l-54 281q-28 145 -67 145q-36 0 -66 -119l-37 10q21 93 62.5 152.5t85.5 59.5q19 0 32.5 -14.5t27.5 -51.5q26 -69 55 -205l34 -161h4q43 54 76.5 124.5t33.5 126.5q0 14 -3.5 57t-3.5 54q0 34 17 52t39 18q24 0 37 -21t13 -52q0 -80 -79 -241t-181 -292 q-150 -194 -261 -194q-41 0 -66 22.5t-25 56.5q0 25 14 40.5t37 15.5q18 0 29.5 -11.5t15.5 -26t12.5 -26t20.5 -11.5q38 0 106.5 73.5t90.5 137.5z" />
<glyph unicode="z" horiz-adv-x="519" d="M424 408l-264 -253l2 -3q29 0 93 -33.5t95 -33.5q29 0 50.5 19t38.5 65l34 -13q-20 -74 -69.5 -120t-107.5 -46q-31 0 -60 14t-47 31.5t-40.5 31.5t-41.5 14t-28.5 -12.5t-12 -28t-13 -28t-29.5 -12.5q-33 0 -33 30q0 18 14.5 37t51.5 55l276 267l-2 3q-26 0 -88.5 42 t-91.5 42q-36 0 -36 -31q0 -17 25.5 -34.5t25.5 -42.5q0 -46 -49 -46q-31 0 -49 20.5t-18 56.5q0 59 45.5 100t112.5 41q34 0 62 -12t44 -27t34 -27t34 -12q15 0 25.5 10.5t15 23.5t14 23.5t24.5 10.5q29 0 29 -31q0 -17 -11 -33t-55 -58z" />
<glyph unicode="{" horiz-adv-x="336" d="M179 198l-53 -198q-10 -37 -10 -58q0 -52 61 -70l-6 -22q-79 0 -112.5 18t-33.5 64q0 28 12 72l53 196q8 29 8 54q0 71 -62 76l7 25q57 11 81.5 39t41.5 90l48 175q27 99 70.5 135t147.5 36l-6 -23q-48 -12 -75 -42t-42 -85l-48 -179q-19 -69 -48 -106t-92 -50l-1 -5 q70 -13 70 -74q0 -27 -11 -68z" />
<glyph unicode="|" horiz-adv-x="350" d="M127 820h80v-1070h-80v1070z" />
<glyph unicode="}" horiz-adv-x="336" d="M41 0l53 198q17 65 47 98.5t90 43.5l1 5q-69 15 -69 79q0 30 13 77l48 179q9 33 9 57q0 54 -56 70l6 23q77 0 109 -19t32 -65q0 -29 -15 -87l-48 -175q-11 -39 -11 -62q0 -28 15.5 -44t50.5 -23l-7 -25q-48 -4 -79 -41t-45 -89l-53 -196q-25 -90 -70.5 -122t-146.5 -32 l6 22q52 14 78.5 43.5t41.5 84.5z" />
<glyph unicode="~" horiz-adv-x="533" d="M104 249h-34q8 49 37.5 81.5t66.5 32.5q40 0 112 -24q66 -22 94 -22q30 0 43 42h33q-5 -42 -32 -82q-30 -36 -65 -36q-27 0 -106 25q-74 23 -107 23q-30 0 -42 -40z" />
<glyph unicode="&#xa1;" horiz-adv-x="318" d="M192 563h34l-47 -455q-7 -64 -24 -91t-51 -27q-55 0 -55 75q0 35 12 73.5t52 137.5q58 145 79 287zM237 780q25 0 43.5 -17.5t18.5 -43.5q0 -27 -18 -46t-45 -19t-45 19t-18 45t19 44t45 18z" />
<glyph unicode="&#xa2;" horiz-adv-x="468" d="M346 181l35 -20q-40 -79 -93 -123t-113 -47l-44 -138h-52l45 143q-48 13 -75 54.5t-27 102.5q0 122 86 241.5t186 141.5l54 162h52l-52 -159q39 -6 64.5 -31t25.5 -59q0 -25 -14.5 -40.5t-37.5 -15.5q-22 0 -37 14.5t-15 35.5q0 10 4 21.5t4 14.5q0 14 -24 14 q-43 0 -88 -51.5t-74 -132t-29 -157.5q0 -48 18.5 -75.5t51.5 -27.5q35 0 77 37.5t72 94.5z" />
<glyph unicode="&#xa3;" horiz-adv-x="682" d="M511 780q75 0 119.5 -28.5t44.5 -76.5q0 -41 -23.5 -67.5t-60.5 -26.5q-32 0 -42 12q9 7 17 30t8 42q0 64 -81 64q-70 0 -108 -50.5t-38 -144.5v-103h217l-14 -50h-204q0 -72 -23.5 -146.5t-62.5 -123.5q83 -22 162 -22q97 0 167 69l9 -4q-44 -164 -192 -164 q-40 0 -80 15t-106 54q-28 -31 -71.5 -50t-85.5 -19q-81 0 -81 68q0 46 36.5 76.5t89.5 30.5t103 -33q26 56 26 144q0 72 -4 105h-139l14 50h120v39q0 135 80 222.5t203 87.5zM181 83q-48 26 -80 26q-23 0 -38 -11t-15 -28q0 -25 40 -25q49 0 93 38z" />
<glyph unicode="&#xa4;" horiz-adv-x="697" d="M94 57l71 71q-47 58 -47 135q0 78 47 136l-72 72l35 35l72 -72q58 47 135 47q75 0 135 -47l72 72l35 -35l-72 -72q48 -59 48 -136t-47 -135l71 -71l-35 -35l-71 71q-58 -47 -136 -47q-79 0 -136 48l-71 -71zM168 263q0 -69 49 -118t118 -49t118.5 49t49.5 118 t-49.5 118.5t-118.5 49.5t-118 -49.5t-49 -118.5z" />
<glyph unicode="&#xa5;" horiz-adv-x="765" d="M638 243l-14 -50h-176l-6 -25q-12 -43 -12 -70q0 -33 23 -45.5t78 -12.5l-12 -40h-339l11 40q67 0 96.5 23t48.5 95l9 35h-175l14 50h174l24 93h-171l14 50h136l-99 238q-29 70 -50.5 88t-72.5 18l11 40h281l-11 -40q-38 0 -54.5 -8t-16.5 -27q0 -17 8 -36l107 -258 l139 203q25 36 33 51t8 32q0 43 -74 43l11 40h247l-11 -40q-39 0 -58 -14.5t-56 -66.5l-187 -263h163l-14 -50h-179l-25 -93h177z" />
<glyph unicode="&#xa6;" horiz-adv-x="338" d="M122 750h80v-385h-80v385zM122 205h80v-385h-80v385z" />
<glyph unicode="&#xa7;" horiz-adv-x="621" d="M121 -47q0 -80 48 -80q68 0 68 129q0 67 -52 260t-52 267q0 79 28 139.5t74.5 94.5t98.5 50.5t108 16.5q70 0 120.5 -36t50.5 -96q0 -31 -15.5 -50.5t-40.5 -19.5q-55 0 -55 65q0 5 1.5 18.5t1.5 20.5q0 58 -60 58q-27 0 -45.5 -24.5t-18.5 -72.5q0 -64 30.5 -167.5 t60.5 -212t30 -181.5q0 -65 -20.5 -118t-53 -87t-75.5 -57t-86 -33t-86 -10q-77 0 -129.5 34.5t-52.5 96.5q0 32 17.5 51t47.5 19q57 0 57 -75zM401 89q0 72 -51 267.5t-51 264.5q0 58 7.5 88t37.5 62q-58 -28 -84.5 -71.5t-26.5 -110.5q0 -65 48.5 -268t48.5 -285 q0 -58 -14.5 -94.5t-52.5 -63.5q138 34 138 211z" />
<glyph unicode="&#xa8;" horiz-adv-x="323" d="M19 709q6 25 27 41.5t46 16.5q21 0 33 -12t12 -31q0 -29 -23.5 -51t-52.5 -22q-20 0 -32 11.5t-12 30.5q0 10 2 16zM186 709q6 25 27 41.5t46 16.5q21 0 33 -12t12 -31q0 -29 -23.5 -51t-52.5 -22q-20 0 -32 11.5t-12 30.5q0 10 2 16z" />
<glyph unicode="&#xa9;" horiz-adv-x="918" d="M865 386q0 -165 -114 -280.5t-275 -115.5q-159 0 -272 116t-113 279t112.5 279t271.5 116q162 0 276 -115t114 -279zM817 386q0 144 -100 245t-242 101q-140 0 -238 -102t-98 -245q0 -144 98 -245.5t239 -101.5t241 102t100 246zM618 305h33q-15 -69 -58 -108.5 t-115 -39.5q-100 0 -159 59.5t-59 158.5q0 104 62 169t162 65q61 0 126 -41l10 35h21l5 -131h-26q-12 45 -47 71t-84 26q-67 0 -104.5 -50t-37.5 -140q0 -88 37 -134.5t107 -46.5q98 0 127 107z" />
<glyph unicode="&#xaa;" horiz-adv-x="379" d="M293 749q-33 0 -67.5 -56.5t-34.5 -103.5q0 -42 27 -42q31 0 64 62.5t33 108.5q0 31 -22 31zM339 748l11 27h51l-28 -76q-37 -101 -37 -137q0 -14 9 -14q14 0 50 51l13 -15q-22 -36 -49 -56.5t-50 -20.5q-26 0 -26 31q0 6 2 28h-4q-14 -26 -39 -42.5t-51 -16.5 q-28 0 -45 19.5t-17 54.5q0 67 54.5 133t111.5 66q32 0 44 -32z" />
<glyph unicode="&#xab;" horiz-adv-x="478" d="M157 104l-128 158l213 159l14 -21l-136 -138l61 -138zM328 104l-128 158l213 159l14 -21l-136 -138l61 -138z" />
<glyph unicode="&#xac;" horiz-adv-x="676" d="M504 110v203h-408v50h458v-253h-50z" />
<glyph unicode="&#xad;" horiz-adv-x="488" d="M390 248h-309v83h309v-83z" />
<glyph unicode="&#xae;" horiz-adv-x="918" d="M865 386q0 -165 -114 -280.5t-275 -115.5q-159 0 -272 116t-113 279t112.5 279t271.5 116q162 0 276 -115t114 -279zM817 386q0 144 -100 245t-242 101q-140 0 -238 -102t-98 -245q0 -144 98 -245.5t239 -101.5t241 102t100 246zM626 507q0 -97 -108 -114l124 -150 q26 -31 67 -38v-22h-108l-138 171q-13 18 -24.5 23.5t-35.5 5.5v-112q0 -42 12.5 -54t59.5 -12v-22h-198v22q36 1 46 13t10 50v259q0 39 -9 50.5t-41 12.5v25h175q80 0 124 -28.5t44 -79.5zM403 576v-160h40q51 0 75.5 21t24.5 67q0 44 -20 62.5t-65 18.5h-46q-9 0 -9 -9z " />
<glyph unicode="&#xaf;" horiz-adv-x="310" d="M283 702h-270l13 50h270z" />
<glyph unicode="&#xb0;" horiz-adv-x="342" d="M139 660q0 50 35.5 85t84.5 35t84.5 -35t35.5 -85t-35.5 -85t-84.5 -35t-84.5 35t-35.5 85zM169 660q0 -37 26.5 -63.5t63.5 -26.5t63 26.5t26 63.5t-26 63t-63 26t-63.5 -26t-26.5 -63z" />
<glyph unicode="&#xb1;" horiz-adv-x="659" d="M351 234h-52v209h-208v50h208v209h52v-209h208v-50h-208v-209zM559 145v-50h-468v50h468z" />
<glyph unicode="&#xb2;" horiz-adv-x="282" d="M163 511v-4h72q19 0 30.5 6.5t22.5 23.5h19l-25 -69h-185l3 21q100 80 140.5 129t40.5 90q0 21 -12 33.5t-33 12.5q-23 0 -39.5 -14.5t-16.5 -34.5q0 -38 38 -38q-8 -22 -35 -22q-22 0 -35 13.5t-13 36.5q0 35 32 60.5t77 25.5q40 0 64.5 -20.5t24.5 -53.5 q0 -41 -40 -87.5t-130 -108.5z" />
<glyph unicode="&#xb3;" horiz-adv-x="287" d="M258 556q0 26 -13 44t-32 18q-5 0 -16 -1.5t-15 -1.5q-13 0 -13 8q0 11 16.5 16.5t37 7.5t37 17.5t16.5 45.5q0 45 -36 45q-21 0 -34.5 -10.5t-13.5 -26.5q0 -26 25 -26q-7 -15 -27 -15q-18 0 -28.5 10t-10.5 27q0 29 26 47.5t66 18.5q38 0 60 -17t22 -45t-21 -51.5 t-52 -30.5v-4q27 -7 42.5 -25.5t15.5 -44.5q0 -41 -36 -69.5t-88 -28.5q-39 0 -63.5 17t-24.5 45q0 23 16 39.5t38 16.5q24 0 28 -18q-15 0 -26 -12.5t-11 -29.5q0 -32 46 -32q31 0 50 18t19 48z" />
<glyph unicode="&#xb4;" horiz-adv-x="275" d="M67 651h-47l130 119q36 33 67 33q17 0 27.5 -9.5t10.5 -25.5q0 -28 -51 -52z" />
<glyph unicode="&#xb5;" horiz-adv-x="685" d="M143 268q41 127 41 160q0 21 -11 21q-24 0 -93 -84l-26 14q32 64 90.5 112.5t102.5 48.5q23 0 36.5 -14.5t13.5 -40.5q0 -23 -10 -57.5t-56 -168.5q-35 -103 -35 -155q0 -42 27 -42q38 0 96 80t98 188l74 200h93l-74 -229q-58 -179 -58 -210q0 -26 17 -26q21 0 53.5 35.5 t51.5 80.5l30 -15q-30 -74 -83.5 -125t-101.5 -51q-28 0 -40 21t-12 70q0 25 5 57l-3 3q-32 -73 -71.5 -112t-79.5 -39q-46 0 -63 36l-3 -1l-34 -206q-13 -79 -67 -79q-45 0 -45 50q0 17 6 41q32 129 131 437z" />
<glyph unicode="&#xb6;" horiz-adv-x="548" d="M480 573l-126 -500q-33 -133 -70.5 -206.5t-78.5 -100t-101 -26.5q-41 0 -68.5 22t-27.5 54q0 25 13 39.5t36 14.5q19 0 29.5 -11t13.5 -24t12.5 -24t26.5 -11q23 0 41.5 23.5t29.5 63.5l116 449q-19 -4 -43 -4q-75 0 -128 43t-53 126q0 126 93 197.5t241 71.5h166 l-10 -38q-33 0 -49 -9t-30 -41.5t-33 -108.5z" />
<glyph unicode="&#xb7;" horiz-adv-x="275" d="M61 274q0 28 19 47t46 19q28 0 47 -19t19 -47q0 -27 -19 -46t-47 -19q-27 0 -46 19t-19 46z" />
<glyph unicode="&#xb8;" horiz-adv-x="232" d="M190 12l-54 -84q104 0 104 -63q0 -51 -47 -88t-105 -37q-44 0 -71.5 18t-27.5 45q0 21 12 35t29 14q11 0 17 -11t8 -23.5t10.5 -23.5t24.5 -11q25 0 45 18.5t20 44.5q0 41 -67 41q-23 0 -35 -2l-1 3l85 124h53z" />
<glyph unicode="&#xb9;" horiz-adv-x="273" d="M287 780l-51 -200q-10 -40 -10 -56q0 -35 42 -35l-5 -21h-153l5 21q29 0 43.5 12t22.5 44l40 159q1 2 1 6q0 6 -6 6q-2 0 -21 -3.5t-37 -3.5l7 22q49 0 102 49h20z" />
<glyph unicode="&#xba;" horiz-adv-x="338" d="M224 507q-38 0 -64.5 27.5t-26.5 72.5q0 65 47.5 119t105.5 54q41 0 66.5 -26t25.5 -69q0 -63 -48.5 -120.5t-105.5 -57.5zM232 537q30 0 56.5 56.5t26.5 111.5q0 47 -34 47q-30 0 -55.5 -55t-25.5 -110q0 -50 32 -50z" />
<glyph unicode="&#xbb;" horiz-adv-x="478" d="M421 262l-212 -158l-14 20l135 138l-62 138l26 21zM250 262l-212 -158l-14 20l135 138l-62 138l26 21z" />
<glyph unicode="&#xbc;" horiz-adv-x="634" d="M668 770l-614 -770h-67l623 770h58zM286 780l-51 -200q-10 -40 -10 -56q0 -35 42 -35l-5 -21h-153l5 21q29 0 43.5 12t22.5 44l40 159q1 2 1 6q0 6 -6 6q-2 0 -21 -3.5t-37 -3.5l7 22q49 0 102 49h20zM542 312l-44 -174h49l-6 -24h-49l-33 -114h-42l29 114h-118l5 20 l186 178h23zM370 138h83l29 105l-3 1z" />
<glyph unicode="&#xbd;" horiz-adv-x="656" d="M669 770l-614 -770h-67l623 770h58zM287 780l-51 -200q-10 -40 -10 -56q0 -35 42 -35l-5 -21h-153l5 21q29 0 43.5 12t22.5 44l40 159q1 2 1 6q0 6 -6 6q-2 0 -21 -3.5t-37 -3.5l7 22q49 0 102 49h20zM408 43v-4h72q19 0 30.5 6.5t22.5 23.5h19l-25 -69h-185l3 21 q100 80 140.5 129t40.5 90q0 21 -12 33.5t-33 12.5q-23 0 -39.5 -14.5t-16.5 -34.5q0 -38 38 -38q-8 -22 -35 -22q-22 0 -35 13.5t-13 36.5q0 35 32 60.5t77 25.5q40 0 64.5 -20.5t24.5 -53.5q0 -41 -39.5 -86.5t-130.5 -109.5z" />
<glyph unicode="&#xbe;" horiz-adv-x="660" d="M694 770l-614 -770h-67l623 770h58zM568 312l-44 -174h49l-6 -24h-49l-33 -114h-42l29 114h-118l5 20l186 178h23zM396 138h83l29 105l-3 1zM266 556q0 26 -13 44t-32 18q-5 0 -16 -1.5t-15 -1.5q-13 0 -13 8q0 11 16.5 16.5t37 7.5t37 17.5t16.5 45.5q0 45 -36 45 q-21 0 -34.5 -10.5t-13.5 -26.5q0 -26 25 -26q-7 -15 -27 -15q-18 0 -28.5 10t-10.5 27q0 29 26 47.5t66 18.5q38 0 60 -17t22 -45t-21 -51.5t-52 -30.5v-4q27 -7 42.5 -25.5t15.5 -44.5q0 -41 -36 -69.5t-88 -28.5q-39 0 -63.5 17t-24.5 45q0 23 16 39.5t38 16.5 q24 0 28 -18q-15 0 -26 -12.5t-11 -29.5q0 -32 46 -32q31 0 50 18t19 48z" />
<glyph unicode="&#xbf;" horiz-adv-x="470" d="M312 781q26 0 44 -18t18 -44q0 -27 -18.5 -45.5t-44.5 -18.5t-44.5 19t-18.5 45t18.5 44t45.5 18zM365 481q0 -53 -29 -95.5t-70 -70.5t-82 -54t-70 -58.5t-29 -69.5q0 -41 30.5 -68t77.5 -27q42 0 70.5 21t28.5 52q0 18 -11 27t-24 10.5t-24 11.5t-11 29q0 23 14.5 36 t40.5 13q41 0 68.5 -29t27.5 -72q0 -61 -54.5 -104t-130.5 -43t-121.5 44t-45.5 116q0 56 30 102t72.5 76.5t85 56.5t72.5 54t30 58q0 40 -46 40t-74 -51l-27 16q38 78 111 78q44 0 67 -25.5t23 -73.5z" />
<glyph unicode="&#xc0;" d="M690 780l-139 -614q-12 -52 -12 -77q0 -29 19 -39t74 -10l-10 -40h-296l10 40q59 0 80 22.5t39 104.5l27 123h-215l-63 -66q-52 -54 -79 -86t-33 -43.5t-6 -20.5q0 -19 17 -26.5t58 -7.5l-10 -40h-259l10 40q47 0 99 40.5t144 150.5l461 549h84zM310 340h181l82 310h-4z M702 850h-60l-113 28q-63 15 -63 41q0 18 15 29.5t33 11.5q32 0 78 -33z" />
<glyph unicode="&#xc1;" d="M690 780l-139 -614q-12 -52 -12 -77q0 -29 19 -39t74 -10l-10 -40h-296l10 40q59 0 80 22.5t39 104.5l27 123h-215l-63 -66q-52 -54 -79 -86t-33 -43.5t-6 -20.5q0 -19 17 -26.5t58 -7.5l-10 -40h-259l10 40q47 0 99 40.5t144 150.5l461 549h84zM310 340h181l82 310h-4z M685 850h-60l150 77q65 33 96 33q30 0 30 -25q0 -38 -89 -57z" />
<glyph unicode="&#xc2;" d="M690 780l-139 -614q-12 -52 -12 -77q0 -29 19 -39t74 -10l-10 -40h-296l10 40q59 0 80 22.5t39 104.5l27 123h-215l-63 -66q-52 -54 -79 -86t-33 -43.5t-6 -20.5q0 -19 17 -26.5t58 -7.5l-10 -40h-259l10 40q47 0 99 40.5t144 150.5l461 549h84zM310 340h181l82 310h-4z M647 960h110l80 -109h-45l-105 54l-133 -54h-45z" />
<glyph unicode="&#xc3;" d="M690 780l-139 -614q-12 -52 -12 -77q0 -29 19 -39t74 -10l-10 -40h-296l10 40q59 0 80 22.5t39 104.5l27 123h-215l-63 -66q-52 -54 -79 -86t-33 -43.5t-6 -20.5q0 -19 17 -26.5t58 -7.5l-10 -40h-259l10 40q47 0 99 40.5t144 150.5l461 549h84zM310 340h181l82 310h-4z M547 846h-34q8 50 37.5 82t67.5 32q32 0 84 -23t75 -23q31 0 44 42h33q-6 -47 -33.5 -82.5t-65.5 -35.5q-31 0 -88.5 24t-77.5 24q-30 0 -42 -40z" />
<glyph unicode="&#xc4;" d="M690 780l-139 -614q-12 -52 -12 -77q0 -29 19 -39t74 -10l-10 -40h-296l10 40q59 0 80 22.5t39 104.5l27 123h-215l-63 -66q-52 -54 -79 -86t-33 -43.5t-6 -20.5q0 -19 17 -26.5t58 -7.5l-10 -40h-259l10 40q47 0 99 40.5t144 150.5l461 549h84zM310 340h181l82 310h-4z M551 910q5 21 23.5 35.5t39.5 14.5q18 0 29 -10.5t11 -26.5q0 -26 -21 -45t-46 -19q-17 0 -27.5 10t-10.5 26q0 10 2 15zM733 910q5 21 23.5 35.5t40.5 14.5q17 0 28 -10.5t11 -26.5q0 -25 -21 -44.5t-45 -19.5q-18 0 -28.5 10t-10.5 26q0 10 2 15z" />
<glyph unicode="&#xc5;" d="M690 780l-139 -614q-12 -52 -12 -77q0 -29 19 -39t74 -10l-10 -40h-296l10 40q59 0 80 22.5t39 104.5l27 123h-215l-63 -66q-52 -54 -79 -86t-33 -43.5t-6 -20.5q0 -19 17 -26.5t58 -7.5l-10 -40h-259l10 40q47 0 99 40.5t144 150.5l461 549h84zM310 340h181l82 310h-4z M616 878q0 32 26 57t59 25q23 0 36.5 -13.5t13.5 -35.5q0 -31 -26.5 -56t-59.5 -25q-22 0 -35.5 13t-13.5 35zM692 928q-17 0 -30.5 -13t-13.5 -30q0 -24 25 -24q17 0 31 13t14 29q0 25 -26 25z" />
<glyph unicode="&#xc6;" horiz-adv-x="1071" d="M928 0h-579l10 40q59 0 80 22.5t39 104.5l27 123h-215l-63 -66q-52 -54 -79 -86t-33 -43.5t-6 -20.5q0 -19 17 -26.5t58 -7.5l-10 -40h-259l10 40q47 0 99 40.5t144 150.5l374 446q16 19 16 29q0 24 -108 24l11 40h576v-202h-38q-24 91 -62.5 124.5t-105.5 33.5h-130 l-68 -297h53q53 0 80 22.5t59 91.5h37l-60 -296h-40q3 30 3 52q0 46 -17.5 66t-62.5 20h-62l-49 -219q-12 -52 -12 -77t27.5 -35.5t96.5 -10.5q113 0 172 37t101 131h47zM333 340h181l82 310h-4z" />
<glyph unicode="&#xc7;" horiz-adv-x="728" d="M665 189q-61 -94 -121 -140.5t-135 -55.5l-41 -65q104 0 104 -63q0 -51 -47 -88t-105 -37q-44 0 -71.5 18t-27.5 45q0 21 12 35t29 14q11 0 17 -11t8 -23.5t10.5 -23.5t24.5 -11q25 0 45 18.5t20 44.5q0 41 -67 41q-23 0 -35 -2l-1 3l70 102q-130 4 -205.5 87.5 t-75.5 223.5q0 124 59 235t157.5 177.5t208.5 66.5q94 0 180 -60l37 50h37l-46 -251h-38q-8 108 -47 158.5t-115 50.5q-131 0 -221.5 -124t-90.5 -304q0 -248 193 -248q72 0 130.5 39t111.5 122z" />
<glyph unicode="&#xc8;" horiz-adv-x="740" d="M-26 0l11 40q65 0 90 22.5t44 95.5l116 441q14 53 14 78q0 32 -22 42.5t-78 10.5l11 40h546v-202h-38q-24 91 -62.5 124.5t-105.5 33.5h-130l-78 -297h63q53 0 80 22.5t59 91.5h37l-60 -296h-40q3 30 3 52q0 46 -17.5 66t-62.5 20h-75l-57 -215q-9 -33 -9 -56 q0 -37 33 -54t109 -17q113 0 172 37t101 131h47l-78 -211h-623zM584 850h-60l-113 28q-63 15 -63 41q0 18 15 29.5t33 11.5q31 0 78 -33z" />
<glyph unicode="&#xc9;" horiz-adv-x="740" d="M-26 0l11 40q65 0 90 22.5t44 95.5l116 441q14 53 14 78q0 32 -22 42.5t-78 10.5l11 40h546v-202h-38q-24 91 -62.5 124.5t-105.5 33.5h-130l-78 -297h63q53 0 80 22.5t59 91.5h37l-60 -296h-40q3 30 3 52q0 46 -17.5 66t-62.5 20h-75l-57 -215q-9 -33 -9 -56 q0 -37 33 -54t109 -17q113 0 172 37t101 131h47l-78 -211h-623zM438 850h-60l150 77q64 33 96 33q30 0 30 -25q0 -38 -89 -57z" />
<glyph unicode="&#xca;" horiz-adv-x="740" d="M-26 0l11 40q65 0 90 22.5t44 95.5l116 441q14 53 14 78q0 32 -22 42.5t-78 10.5l11 40h546v-202h-38q-24 91 -62.5 124.5t-105.5 33.5h-130l-78 -297h63q53 0 80 22.5t59 91.5h37l-60 -296h-40q3 30 3 52q0 46 -17.5 66t-62.5 20h-75l-57 -215q-9 -33 -9 -56 q0 -37 33 -54t109 -17q113 0 172 37t101 131h47l-78 -211h-623zM452 960h110l80 -109h-45l-105 54l-133 -54h-45z" />
<glyph unicode="&#xcb;" horiz-adv-x="740" d="M-26 0l11 40q65 0 90 22.5t44 95.5l116 441q14 53 14 78q0 32 -22 42.5t-78 10.5l11 40h546v-202h-38q-24 91 -62.5 124.5t-105.5 33.5h-130l-78 -297h63q53 0 80 22.5t59 91.5h37l-60 -296h-40q3 30 3 52q0 46 -17.5 66t-62.5 20h-75l-57 -215q-9 -33 -9 -56 q0 -37 33 -54t109 -17q113 0 172 37t101 131h47l-78 -211h-623zM352 910q5 21 23.5 35.5t39.5 14.5q18 0 29 -10.5t11 -26.5q0 -26 -21 -45t-46 -19q-17 0 -27.5 10t-10.5 26q0 10 2 15zM534 910q5 21 23.5 35.5t40.5 14.5q17 0 28 -10.5t11 -26.5q0 -25 -21 -44.5 t-45 -19.5q-18 0 -28.5 10t-10.5 26q0 10 2 15z" />
<glyph unicode="&#xcc;" horiz-adv-x="420" d="M329 566l-105 -398q-12 -44 -12 -70q0 -33 21 -45.5t70 -12.5l-12 -40h-319l11 40q61 0 88.5 23t46.5 95l117 442q15 56 15 82q0 30 -21 39t-78 9l11 40h325l-11 -40q-66 0 -93 -30.5t-54 -133.5zM442 850h-60l-113 28q-63 15 -63 41q0 18 15 29.5t33 11.5q32 0 78 -33z " />
<glyph unicode="&#xcd;" horiz-adv-x="420" d="M329 566l-105 -398q-12 -44 -12 -70q0 -33 21 -45.5t70 -12.5l-12 -40h-319l11 40q61 0 88.5 23t46.5 95l117 442q15 56 15 82q0 30 -21 39t-78 9l11 40h325l-11 -40q-66 0 -93 -30.5t-54 -133.5zM296 850h-60l150 77q64 33 96 33q30 0 30 -25q0 -38 -89 -57z" />
<glyph unicode="&#xce;" horiz-adv-x="420" d="M329 566l-105 -398q-12 -44 -12 -70q0 -33 21 -45.5t70 -12.5l-12 -40h-319l11 40q61 0 88.5 23t46.5 95l117 442q15 56 15 82q0 30 -21 39t-78 9l11 40h325l-11 -40q-66 0 -93 -30.5t-54 -133.5zM318 960h110l80 -109h-45l-105 54l-133 -54h-45z" />
<glyph unicode="&#xcf;" horiz-adv-x="420" d="M329 566l-105 -398q-12 -44 -12 -70q0 -33 21 -45.5t70 -12.5l-12 -40h-319l11 40q61 0 88.5 23t46.5 95l117 442q15 56 15 82q0 30 -21 39t-78 9l11 40h325l-11 -40q-66 0 -93 -30.5t-54 -133.5zM226 910q5 21 23.5 35.5t39.5 14.5q18 0 29 -10.5t11 -26.5 q0 -26 -21 -45t-46 -19q-17 0 -27.5 10t-10.5 26q0 10 2 15zM408 910q5 21 23.5 35.5t40.5 14.5q17 0 28 -10.5t11 -26.5q0 -25 -21 -44.5t-45 -19.5q-18 0 -28.5 10t-10.5 26q0 10 2 15z" />
<glyph unicode="&#xd0;" horiz-adv-x="839" d="M155 730l13 40h271q159 0 252 -77q109 -90 109 -246q0 -89 -38.5 -177t-100.5 -149q-122 -121 -337 -121h-350l11 40q66 0 90.5 21t44.5 97l54 208h-93l13 50h93l48 184q1 2 7.5 23.5t10.5 38t4 26.5q0 42 -83 42h-19zM358 669l-68 -253h114l-13 -50h-115l-36 -135 q-25 -92 -25 -113q0 -74 100 -74q75 0 138 26t105 68t71 97t42 111t13 111q0 125 -67.5 194t-185.5 69q-32 0 -48.5 -9.5t-24.5 -41.5z" />
<glyph unicode="&#xd1;" horiz-adv-x="842" d="M620 0h-40l-262 602h-4l-114 -434q-6 -24 -6 -43q0 -41 25 -62.5t70 -22.5l-12 -40h-286l11 40q46 0 83.5 33.5t51.5 84.5l118 444q4 15 4 31q0 46 -39.5 71t-107.5 26l12 40h235l250 -573h4l106 405q5 22 5 37q0 42 -24 66t-60 25l12 40h256l-11 -40q-38 0 -69.5 -33 t-45.5 -85zM420 846h-34q8 50 37.5 82t67.5 32q31 0 84 -23t75 -23q31 0 44 42h33q-6 -47 -33.5 -82.5t-65.5 -35.5q-31 0 -88.5 24t-77.5 24q-30 0 -42 -40z" />
<glyph unicode="&#xd2;" horiz-adv-x="820" d="M505 780q128 0 203.5 -84.5t75.5 -226.5q0 -126 -59 -237t-158 -176.5t-211 -65.5q-128 0 -205 85.5t-77 227.5q0 125 59.5 235.5t159 176t212.5 65.5zM505 728q-130 0 -220 -124t-90 -304q0 -126 44.5 -191t130.5 -65q126 0 209.5 128t83.5 324q0 119 -38.5 175.5 t-119.5 56.5zM625 850h-60l-113 28q-63 15 -63 41q0 18 15 29.5t33 11.5q31 0 78 -33z" />
<glyph unicode="&#xd3;" horiz-adv-x="820" d="M505 780q128 0 203.5 -84.5t75.5 -226.5q0 -126 -59 -237t-158 -176.5t-211 -65.5q-128 0 -205 85.5t-77 227.5q0 125 59.5 235.5t159 176t212.5 65.5zM505 728q-130 0 -220 -124t-90 -304q0 -126 44.5 -191t130.5 -65q126 0 209.5 128t83.5 324q0 119 -38.5 175.5 t-119.5 56.5zM479 850h-60l150 77q64 33 96 33q30 0 30 -25q0 -38 -89 -57z" />
<glyph unicode="&#xd4;" horiz-adv-x="820" d="M505 780q128 0 203.5 -84.5t75.5 -226.5q0 -126 -59 -237t-158 -176.5t-211 -65.5q-128 0 -205 85.5t-77 227.5q0 125 59.5 235.5t159 176t212.5 65.5zM505 728q-130 0 -220 -124t-90 -304q0 -126 44.5 -191t130.5 -65q126 0 209.5 128t83.5 324q0 119 -38.5 175.5 t-119.5 56.5zM509 960h110l80 -109h-45l-105 54l-133 -54h-45z" />
<glyph unicode="&#xd5;" horiz-adv-x="820" d="M505 780q128 0 203.5 -84.5t75.5 -226.5q0 -126 -59 -237t-158 -176.5t-211 -65.5q-128 0 -205 85.5t-77 227.5q0 125 59.5 235.5t159 176t212.5 65.5zM505 728q-130 0 -220 -124t-90 -304q0 -126 44.5 -191t130.5 -65q126 0 209.5 128t83.5 324q0 119 -38.5 175.5 t-119.5 56.5zM415 846h-34q8 50 37.5 82t67.5 32q32 0 84 -23t75 -23q31 0 44 42h33q-6 -47 -33.5 -82.5t-65.5 -35.5q-31 0 -88.5 24t-77.5 24q-30 0 -42 -40z" />
<glyph unicode="&#xd6;" horiz-adv-x="820" d="M505 780q128 0 203.5 -84.5t75.5 -226.5q0 -126 -59 -237t-158 -176.5t-211 -65.5q-128 0 -205 85.5t-77 227.5q0 125 59.5 235.5t159 176t212.5 65.5zM505 728q-130 0 -220 -124t-90 -304q0 -126 44.5 -191t130.5 -65q126 0 209.5 128t83.5 324q0 119 -38.5 175.5 t-119.5 56.5zM418 910q5 21 23.5 35.5t39.5 14.5q18 0 29 -10.5t11 -26.5q0 -26 -21 -45t-46 -19q-17 0 -27.5 10t-10.5 26q0 10 2 15zM600 910q5 21 23.5 35.5t40.5 14.5q17 0 28 -10.5t11 -26.5q0 -25 -21 -44.5t-45 -19.5q-18 0 -28.5 10t-10.5 26q0 10 2 15z" />
<glyph unicode="&#xd7;" horiz-adv-x="543" d="M119 147l-37 37l155 155l-154 154l35 35l154 -154l155 155l37 -37l-155 -155l154 -154l-35 -35l-154 154z" />
<glyph unicode="&#xd8;" horiz-adv-x="820" d="M505 780q96 0 166 -51l78 99h69l-107 -135q73 -84 73 -224q0 -126 -59 -237t-158 -176.5t-211 -65.5q-96 0 -163 47l-78 -99h-68l106 135q-79 85 -79 230q0 125 59.5 235.5t159 176t212.5 65.5zM505 728q-130 0 -220 -124t-90 -304q0 -90 22 -147l408 518q-39 57 -120 57 zM663 496q0 68 -14 119l-405 -513q46 -58 126 -58q126 0 209.5 128t83.5 324z" />
<glyph unicode="&#xd9;" horiz-adv-x="808" d="M134 353l66 246q13 50 13 77q0 30 -21 42t-73 12l13 40h319l-11 -40q-71 0 -95.5 -28t-52.5 -137l-65 -251q-13 -49 -13 -94q0 -81 41.5 -127.5t119.5 -46.5q93 0 151.5 64.5t95.5 179.5q29 90 54.5 216t25.5 164q0 55 -102 60l12 40h263l-12 -40q-50 0 -70.5 -25 t-39.5 -113l-43 -200q-87 -402 -343 -402q-125 0 -189 59t-64 170q0 59 20 134zM634 850h-60l-113 28q-63 15 -63 41q0 18 15 29.5t33 11.5q32 0 78 -33z" />
<glyph unicode="&#xda;" horiz-adv-x="808" d="M134 353l66 246q13 50 13 77q0 30 -21 42t-73 12l13 40h319l-11 -40q-71 0 -95.5 -28t-52.5 -137l-65 -251q-13 -49 -13 -94q0 -81 41.5 -127.5t119.5 -46.5q93 0 151.5 64.5t95.5 179.5q29 90 54.5 216t25.5 164q0 55 -102 60l12 40h263l-12 -40q-50 0 -70.5 -25 t-39.5 -113l-43 -200q-87 -402 -343 -402q-125 0 -189 59t-64 170q0 59 20 134zM488 850h-60l150 77q65 33 96 33q30 0 30 -25q0 -38 -89 -57z" />
<glyph unicode="&#xdb;" horiz-adv-x="808" d="M134 353l66 246q13 50 13 77q0 30 -21 42t-73 12l13 40h319l-11 -40q-71 0 -95.5 -28t-52.5 -137l-65 -251q-13 -49 -13 -94q0 -81 41.5 -127.5t119.5 -46.5q93 0 151.5 64.5t95.5 179.5q29 90 54.5 216t25.5 164q0 55 -102 60l12 40h263l-12 -40q-50 0 -70.5 -25 t-39.5 -113l-43 -200q-87 -402 -343 -402q-125 0 -189 59t-64 170q0 59 20 134zM502 960h110l80 -109h-45l-105 54l-133 -54h-45z" />
<glyph unicode="&#xdc;" horiz-adv-x="808" d="M134 353l66 246q13 50 13 77q0 30 -21 42t-73 12l13 40h319l-11 -40q-71 0 -95.5 -28t-52.5 -137l-65 -251q-13 -49 -13 -94q0 -81 41.5 -127.5t119.5 -46.5q93 0 151.5 64.5t95.5 179.5q29 90 54.5 216t25.5 164q0 55 -102 60l12 40h263l-12 -40q-50 0 -70.5 -25 t-39.5 -113l-43 -200q-87 -402 -343 -402q-125 0 -189 59t-64 170q0 59 20 134zM402 910q5 21 23.5 35.5t39.5 14.5q18 0 29 -10.5t11 -26.5q0 -26 -21 -45t-46 -19q-17 0 -27.5 10t-10.5 26q0 10 2 15zM584 910q5 21 23.5 35.5t40.5 14.5q17 0 28 -10.5t11 -26.5 q0 -25 -21 -44.5t-45 -19.5q-18 0 -28.5 10t-10.5 26q0 10 2 15z" />
<glyph unicode="&#xdd;" horiz-adv-x="689" d="M440 348l-47 -180q-12 -43 -12 -70q0 -33 23 -45.5t78 -12.5l-12 -40h-339l11 40q67 0 96.5 23t48.5 95l46 178l-120 288q-29 70 -50.5 88t-72.5 18l11 40h281l-11 -40q-38 0 -54.5 -8t-16.5 -27q0 -17 8 -36l107 -258l139 203q25 36 33 51t8 32q0 43 -74 43l11 40h247 l-11 -40q-39 0 -58 -14.5t-56 -66.5zM425 850h-60l150 77q65 33 96 33q30 0 30 -25q0 -38 -89 -57z" />
<glyph unicode="&#xde;" horiz-adv-x="705" d="M343 613l-5 -17h109q241 0 241 -171q0 -114 -101 -181.5t-272 -67.5h-90l-5 -19q-11 -41 -11 -64q0 -32 24.5 -43.5t93.5 -11.5l-11 -38h-352l11 38q70 2 95 23t44 91l125 466q11 40 11 64q0 28 -19 38.5t-72 11.5l11 38h353l-11 -38q-89 0 -118 -20t-51 -99zM321 532 l-82 -306h71q115 0 183 59.5t68 160.5q0 55 -29.5 79t-97.5 24h-92q-16 0 -21 -17z" />
<glyph unicode="&#xdf;" horiz-adv-x="586" d="M-24 -113l174 699q29 116 94 180t155 64q78 0 123 -39.5t45 -107.5q0 -79 -54.5 -139.5t-139.5 -76.5l-2 -5q72 0 113.5 -47t41.5 -127q0 -116 -82.5 -207t-187.5 -91q-42 0 -66 17t-24 46q0 26 16 45.5t38 19.5q16 0 22.5 -13t6 -28t7.5 -28t27 -13q56 0 97 72.5 t41 169.5q0 82 -37.5 120t-118.5 38l13 51q138 0 181 146q1 8 3 20l3.5 21t1.5 17q0 47 -24 68t-76 21q-44 0 -70.5 -42t-51.5 -146l-125 -519q-43 -179 -98.5 -256t-141.5 -77q-50 0 -78 20.5t-28 56.5q0 24 13.5 38.5t35.5 14.5q18 0 28.5 -11t14 -24t12.5 -24t25 -11 q24 0 43.5 23t29.5 64z" />
<glyph unicode="&#xe0;" horiz-adv-x="570" d="M332 488q-49 0 -103 -58t-89 -140t-35 -150q0 -36 15 -57.5t41 -21.5q44 0 95 66t84 153.5t33 151.5q0 26 -11 41t-30 15zM414 474l21 56h83l-57 -153q-28 -75 -51 -164t-23 -122q0 -29 19 -29q25 0 100 104l26 -21q-41 -73 -90 -114t-94 -41q-48 0 -48 75q0 14 3 53 l-4 1q-29 -56 -80.5 -92.5t-100.5 -36.5q-50 0 -79 39t-29 106q0 90 48.5 185t123 157.5t144.5 62.5q64 0 88 -66zM449 651h-47l-119 65q-39 21 -39 44q0 19 15 31t34 12q31 0 58 -33z" />
<glyph unicode="&#xe1;" horiz-adv-x="570" d="M332 488q-49 0 -103 -58t-89 -140t-35 -150q0 -36 15 -57.5t41 -21.5q44 0 95 66t84 153.5t33 151.5q0 26 -11 41t-30 15zM414 474l21 56h83l-57 -153q-28 -75 -51 -164t-23 -122q0 -29 19 -29q25 0 100 104l26 -21q-41 -73 -90 -114t-94 -41q-48 0 -48 75q0 14 3 53 l-4 1q-29 -56 -80.5 -92.5t-100.5 -36.5q-50 0 -79 39t-29 106q0 90 48.5 185t123 157.5t144.5 62.5q64 0 88 -66zM327 651h-47l130 119q36 33 67 33q17 0 27.5 -9.5t10.5 -25.5q0 -28 -51 -52z" />
<glyph unicode="&#xe2;" horiz-adv-x="570" d="M332 488q-49 0 -103 -58t-89 -140t-35 -150q0 -36 15 -57.5t41 -21.5q44 0 95 66t84 153.5t33 151.5q0 26 -11 41t-30 15zM414 474l21 56h83l-57 -153q-28 -75 -51 -164t-23 -122q0 -29 19 -29q25 0 100 104l26 -21q-41 -73 -90 -114t-94 -41q-48 0 -48 75q0 14 3 53 l-4 1q-29 -56 -80.5 -92.5t-100.5 -36.5q-50 0 -79 39t-29 106q0 90 48.5 185t123 157.5t144.5 62.5q64 0 88 -66zM342 780h90l84 -129h-45l-101 68l-137 -68h-45z" />
<glyph unicode="&#xe3;" horiz-adv-x="570" d="M332 488q-49 0 -103 -58t-89 -140t-35 -150q0 -36 15 -57.5t41 -21.5q44 0 95 66t84 153.5t33 151.5q0 26 -11 41t-30 15zM414 474l21 56h83l-57 -153q-28 -75 -51 -164t-23 -122q0 -29 19 -29q25 0 100 104l26 -21q-41 -73 -90 -114t-94 -41q-48 0 -48 75q0 14 3 53 l-4 1q-29 -56 -80.5 -92.5t-100.5 -36.5q-50 0 -79 39t-29 106q0 90 48.5 185t123 157.5t144.5 62.5q64 0 88 -66zM233 660h-34q8 50 37.5 82t67.5 32q31 0 86 -24q50 -22 73 -22q31 0 44 42h33q-5 -47 -32 -82q-27 -36 -67 -36q-22 0 -84 25q-61 23 -82 23q-30 0 -42 -40z " />
<glyph unicode="&#xe4;" horiz-adv-x="570" d="M332 488q-49 0 -103 -58t-89 -140t-35 -150q0 -36 15 -57.5t41 -21.5q44 0 95 66t84 153.5t33 151.5q0 26 -11 41t-30 15zM414 474l21 56h83l-57 -153q-28 -75 -51 -164t-23 -122q0 -29 19 -29q25 0 100 104l26 -21q-41 -73 -90 -114t-94 -41q-48 0 -48 75q0 14 3 53 l-4 1q-29 -56 -80.5 -92.5t-100.5 -36.5q-50 0 -79 39t-29 106q0 90 48.5 185t123 157.5t144.5 62.5q64 0 88 -66zM229 709q6 25 27 41.5t46 16.5q21 0 33 -12t12 -31q0 -29 -23.5 -51t-52.5 -22q-20 0 -32 11.5t-12 30.5q0 10 2 16zM396 709q6 25 27 41.5t46 16.5 q21 0 33 -12t12 -31q0 -29 -23.5 -51t-52.5 -22q-20 0 -32 11.5t-12 30.5q0 10 2 16z" />
<glyph unicode="&#xe5;" horiz-adv-x="570" d="M332 488q-49 0 -103 -58t-89 -140t-35 -150q0 -36 15 -57.5t41 -21.5q44 0 95 66t84 153.5t33 151.5q0 26 -11 41t-30 15zM414 474l21 56h83l-57 -153q-28 -75 -51 -164t-23 -122q0 -29 19 -29q25 0 100 104l26 -21q-41 -73 -90 -114t-94 -41q-48 0 -48 75q0 14 3 53 l-4 1q-29 -56 -80.5 -92.5t-100.5 -36.5q-50 0 -79 39t-29 106q0 90 48.5 185t123 157.5t144.5 62.5q64 0 88 -66zM280 718q0 43 34 77.5t79 34.5q31 0 49.5 -17t18.5 -45q0 -45 -35 -78.5t-80 -33.5q-30 0 -48 17t-18 45zM383 788q-23 0 -42 -17t-19 -41q0 -15 10 -24.5 t27 -9.5q22 0 40.5 18t18.5 42q0 14 -9.5 23t-25.5 9z" />
<glyph unicode="&#xe6;" horiz-adv-x="756" d="M639 154l32 -21q-87 -143 -214 -143q-61 0 -98 35t-44 99q-35 -57 -91.5 -95.5t-106.5 -38.5t-78.5 39t-28.5 106q0 90 48.5 185t123 157.5t144.5 62.5q64 0 88 -66l28 76h83l-30 -74l3 -2q50 66 136 66q48 0 78.5 -24.5t30.5 -62.5q0 -70 -96.5 -142t-230.5 -102 q-4 -25 -4 -55q0 -109 77 -109q37 0 76.5 29t73.5 80zM329 488q-44 0 -97.5 -56.5t-90 -138t-36.5 -149.5q0 -39 14.5 -61t40.5 -22q46 0 96.5 58.5t83.5 145t33 162.5q0 61 -44 61zM614 493q-51 0 -106.5 -72.5t-81.5 -166.5q97 26 160 81.5t63 115.5q0 42 -35 42z" />
<glyph unicode="&#xe7;" horiz-adv-x="441" d="M338 181l35 -20q-67 -135 -167 -164l-44 -69q104 0 104 -63q0 -51 -47 -88t-105 -37q-44 0 -71.5 18t-27.5 45q0 21 12 35t29 14q11 0 17 -11t8 -23.5t10.5 -23.5t24.5 -11q25 0 45 18.5t20 44.5q0 41 -67 41q-23 0 -35 -2l-1 3l70 102q-61 4 -97.5 48t-36.5 115 q0 87 46.5 178t118.5 150t141 59q47 0 78.5 -26t31.5 -65q0 -25 -14.5 -40.5t-37.5 -15.5q-22 0 -37 14.5t-15 35.5q0 10 4 21.5t4 14.5q0 14 -24 14q-43 0 -88 -51.5t-74 -132t-29 -157.5q0 -48 18.5 -75.5t51.5 -27.5q35 0 77 37.5t72 94.5z" />
<glyph unicode="&#xe8;" horiz-adv-x="456" d="M339 154l32 -21q-87 -143 -214 -143q-68 0 -105.5 43t-37.5 120q0 90 48 180.5t123 148.5t149 58q48 0 78.5 -24.5t30.5 -62.5q0 -70 -96.5 -142t-230.5 -102q-4 -25 -4 -55q0 -109 77 -109q37 0 76.5 29t73.5 80zM314 493q-51 0 -106.5 -72.5t-81.5 -166.5 q97 26 160 81.5t63 115.5q0 42 -35 42zM439 651h-47l-119 65q-39 21 -39 44q0 19 15 31t34 12q31 0 58 -33z" />
<glyph unicode="&#xe9;" horiz-adv-x="456" d="M339 154l32 -21q-87 -143 -214 -143q-68 0 -105.5 43t-37.5 120q0 90 48 180.5t123 148.5t149 58q48 0 78.5 -24.5t30.5 -62.5q0 -70 -96.5 -142t-230.5 -102q-4 -25 -4 -55q0 -109 77 -109q37 0 76.5 29t73.5 80zM314 493q-51 0 -106.5 -72.5t-81.5 -166.5 q97 26 160 81.5t63 115.5q0 42 -35 42zM317 651h-47l130 119q36 33 67 33q17 0 27.5 -9.5t10.5 -25.5q0 -28 -51 -52z" />
<glyph unicode="&#xea;" horiz-adv-x="456" d="M339 154l32 -21q-87 -143 -214 -143q-68 0 -105.5 43t-37.5 120q0 90 48 180.5t123 148.5t149 58q48 0 78.5 -24.5t30.5 -62.5q0 -70 -96.5 -142t-230.5 -102q-4 -25 -4 -55q0 -109 77 -109q37 0 76.5 29t73.5 80zM314 493q-51 0 -106.5 -72.5t-81.5 -166.5 q97 26 160 81.5t63 115.5q0 42 -35 42zM332 780h90l84 -129h-45l-101 68l-137 -68h-45z" />
<glyph unicode="&#xeb;" horiz-adv-x="456" d="M339 154l32 -21q-87 -143 -214 -143q-68 0 -105.5 43t-37.5 120q0 90 48 180.5t123 148.5t149 58q48 0 78.5 -24.5t30.5 -62.5q0 -70 -96.5 -142t-230.5 -102q-4 -25 -4 -55q0 -109 77 -109q37 0 76.5 29t73.5 80zM314 493q-51 0 -106.5 -72.5t-81.5 -166.5 q97 26 160 81.5t63 115.5q0 42 -35 42zM219 709q6 25 27 41.5t46 16.5q21 0 33 -12t12 -31q0 -29 -23.5 -51t-52.5 -22q-20 0 -32 11.5t-12 30.5q0 10 2 16zM386 709q6 25 27 41.5t46 16.5q21 0 33 -12t12 -31q0 -29 -23.5 -51t-52.5 -22q-20 0 -32 11.5t-12 30.5q0 10 2 16 z" />
<glyph unicode="&#xec;" horiz-adv-x="344" d="M86 202l45 128q26 71 26 101q0 23 -14 23q-19 0 -47 -31.5t-40 -53.5l-29 18q26 51 85.5 102t107.5 51q26 0 38 -15.5t12 -51.5q0 -8 -1.5 -17.5t-5 -22.5t-6.5 -23.5t-9.5 -29.5t-11 -31t-14 -38.5t-15.5 -41.5l-37 -101q-21 -59 -21 -78q0 -23 21 -23q25 0 57 36t50 68 l30 -17q-29 -60 -84.5 -112t-115.5 -52q-58 0 -58 65q0 42 37 147zM343 651h-47l-119 65q-39 21 -39 44q0 19 15 31t34 12q31 0 58 -33z" />
<glyph unicode="&#xed;" horiz-adv-x="344" d="M86 202l45 128q26 71 26 101q0 23 -14 23q-19 0 -47 -31.5t-40 -53.5l-29 18q26 51 85.5 102t107.5 51q26 0 38 -15.5t12 -51.5q0 -8 -1.5 -17.5t-5 -22.5t-6.5 -23.5t-9.5 -29.5t-11 -31t-14 -38.5t-15.5 -41.5l-37 -101q-21 -59 -21 -78q0 -23 21 -23q25 0 57 36t50 68 l30 -17q-29 -60 -84.5 -112t-115.5 -52q-58 0 -58 65q0 42 37 147zM221 651h-47l130 119q36 33 67 33q17 0 27.5 -9.5t10.5 -25.5q0 -28 -51 -52z" />
<glyph unicode="&#xee;" horiz-adv-x="344" d="M86 202l45 128q26 71 26 101q0 23 -14 23q-19 0 -47 -31.5t-40 -53.5l-29 18q26 51 85.5 102t107.5 51q26 0 38 -15.5t12 -51.5q0 -8 -1.5 -17.5t-5 -22.5t-6.5 -23.5t-9.5 -29.5t-11 -31t-14 -38.5t-15.5 -41.5l-37 -101q-21 -59 -21 -78q0 -23 21 -23q25 0 57 36t50 68 l30 -17q-29 -60 -84.5 -112t-115.5 -52q-58 0 -58 65q0 42 37 147zM236 780h90l84 -129h-45l-101 68l-137 -68h-45z" />
<glyph unicode="&#xef;" horiz-adv-x="344" d="M86 202l45 128q26 71 26 101q0 23 -14 23q-19 0 -47 -31.5t-40 -53.5l-29 18q26 51 85.5 102t107.5 51q26 0 38 -15.5t12 -51.5q0 -8 -1.5 -17.5t-5 -22.5t-6.5 -23.5t-9.5 -29.5t-11 -31t-14 -38.5t-15.5 -41.5l-37 -101q-21 -59 -21 -78q0 -23 21 -23q25 0 57 36t50 68 l30 -17q-29 -60 -84.5 -112t-115.5 -52q-58 0 -58 65q0 42 37 147zM123 709q6 25 27 41.5t46 16.5q21 0 33 -12t12 -31q0 -29 -23.5 -51t-52.5 -22q-20 0 -32 11.5t-12 30.5q0 10 2 16zM290 709q6 25 27 41.5t46 16.5q21 0 33 -12t12 -31q0 -29 -23.5 -51t-52.5 -22 q-20 0 -32 11.5t-12 30.5q0 10 2 16z" />
<glyph unicode="&#xf0;" horiz-adv-x="581" d="M301 449q-49 0 -87.5 -53t-55.5 -119t-17 -125q0 -117 75 -117q57 0 101 53.5t63 119t19 122.5t-25.5 88t-72.5 31zM225 746l27 34q106 -33 156 -68l149 75l20 -38l-134 -68q102 -87 102 -251q0 -181 -103.5 -310.5t-237.5 -129.5q-83 0 -133 52.5t-50 137.5 q0 125 87.5 221.5t194.5 96.5q109 0 131 -86l4 2q-1 154 -64 232l-149 -75l-19 38l139 71q-34 33 -120 66z" />
<glyph unicode="&#xf1;" horiz-adv-x="627" d="M425 488q-47 0 -116 -89t-110 -199l-74 -200h-88l74 229q63 196 63 229q0 27 -17 27q-22 0 -56 -50t-54 -111l-30 15q69 201 178 201q32 0 45.5 -18t13.5 -61q0 -51 -17 -91l3 -3q51 89 104 131t114 42q43 0 66.5 -21t23.5 -60q0 -43 -53 -197t-53 -179q0 -15 10 -15 q27 0 114 97l26 -14q-32 -59 -94 -110t-102 -51q-25 0 -39.5 22t-14.5 58q0 27 12.5 68.5t66.5 194.5q31 89 31 118q0 37 -27 37zM246 660h-34q8 50 37.5 82t67.5 32q31 0 86 -24q50 -22 73 -22q31 0 44 42h33q-5 -47 -32 -82q-27 -36 -67 -36q-22 0 -84 25q-61 23 -82 23 q-30 0 -42 -40z" />
<glyph unicode="&#xf2;" horiz-adv-x="523" d="M187 -10q-70 0 -116.5 54.5t-46.5 146.5q0 131 89 240t198 109q73 0 119 -53t46 -139q0 -83 -41.5 -166.5t-109.5 -137.5t-138 -54zM193 40q43 0 87.5 58.5t72 142.5t27.5 159q0 93 -69 93q-43 0 -86 -57t-69.5 -139t-26.5 -155q0 -102 64 -102zM430 651h-47l-119 65 q-39 21 -39 44q0 19 15 31t34 12q31 0 58 -33z" />
<glyph unicode="&#xf3;" horiz-adv-x="523" d="M187 -10q-70 0 -116.5 54.5t-46.5 146.5q0 131 89 240t198 109q73 0 119 -53t46 -139q0 -83 -41.5 -166.5t-109.5 -137.5t-138 -54zM193 40q43 0 87.5 58.5t72 142.5t27.5 159q0 93 -69 93q-43 0 -86 -57t-69.5 -139t-26.5 -155q0 -102 64 -102zM308 651h-47l130 119 q36 33 67 33q17 0 27.5 -9.5t10.5 -25.5q0 -28 -51 -52z" />
<glyph unicode="&#xf4;" horiz-adv-x="523" d="M187 -10q-70 0 -116.5 54.5t-46.5 146.5q0 131 89 240t198 109q73 0 119 -53t46 -139q0 -83 -41.5 -166.5t-109.5 -137.5t-138 -54zM193 40q43 0 87.5 58.5t72 142.5t27.5 159q0 93 -69 93q-43 0 -86 -57t-69.5 -139t-26.5 -155q0 -102 64 -102zM351 780h90l84 -129h-45 l-101 68l-137 -68h-45z" />
<glyph unicode="&#xf5;" horiz-adv-x="523" d="M187 -10q-70 0 -116.5 54.5t-46.5 146.5q0 131 89 240t198 109q73 0 119 -53t46 -139q0 -83 -41.5 -166.5t-109.5 -137.5t-138 -54zM193 40q43 0 87.5 58.5t72 142.5t27.5 159q0 93 -69 93q-43 0 -86 -57t-69.5 -139t-26.5 -155q0 -102 64 -102zM214 660h-34 q8 50 37.5 82t67.5 32q31 0 86 -24q50 -22 73 -22q31 0 44 42h33q-5 -47 -32 -82q-27 -36 -67 -36q-22 0 -84 25q-61 23 -82 23q-30 0 -42 -40z" />
<glyph unicode="&#xf6;" horiz-adv-x="523" d="M187 -10q-70 0 -116.5 54.5t-46.5 146.5q0 131 89 240t198 109q73 0 119 -53t46 -139q0 -83 -41.5 -166.5t-109.5 -137.5t-138 -54zM193 40q43 0 87.5 58.5t72 142.5t27.5 159q0 93 -69 93q-43 0 -86 -57t-69.5 -139t-26.5 -155q0 -102 64 -102zM235 709q6 25 27 41.5 t46 16.5q21 0 33 -12t12 -31q0 -29 -23.5 -51t-52.5 -22q-20 0 -32 11.5t-12 30.5q0 10 2 16zM402 709q6 25 27 41.5t46 16.5q21 0 33 -12t12 -31q0 -29 -23.5 -51t-52.5 -22q-20 0 -32 11.5t-12 30.5q0 10 2 16z" />
<glyph unicode="&#xf7;" horiz-adv-x="602" d="M243 162q0 28 19 47t46 19q28 0 47 -19t19 -47q0 -27 -19 -46t-47 -19q-27 0 -46 19t-19 46zM243 512q0 28 19 47t46 19q28 0 47 -19t19 -47q0 -27 -19 -46t-47 -19q-27 0 -46 19t-19 46zM540 363v-50h-468v50h468z" />
<glyph unicode="&#xf8;" horiz-adv-x="523" d="M187 -10q-54 0 -95 33l-67 -84h-68l99 125q-32 53 -32 127q0 131 89 240t198 109q55 0 96 -32l66 84h69l-98 -124q32 -51 32 -120q0 -83 -41.5 -166.5t-109.5 -137.5t-138 -54zM193 40q63 0 123 115.5t64 231.5l-242 -306q16 -41 55 -41zM311 493q-63 0 -120.5 -111.5 t-61.5 -225.5l240 304q-17 33 -58 33z" />
<glyph unicode="&#xf9;" horiz-adv-x="593" d="M169 62q34 0 98.5 84t101.5 184l74 200h93l-74 -229q-58 -181 -58 -210q0 -26 18 -26q20 0 52.5 35.5t51.5 80.5l30 -15q-28 -69 -81 -122.5t-103 -53.5q-29 0 -41 21t-12 64q0 40 7 75l-3 3q-91 -163 -194 -163q-84 0 -84 90q0 63 50 188q65 161 65 183q0 11 -9 11 q-24 0 -104 -97l-26 14q32 61 89 111t104 50q50 0 50 -58q0 -49 -70 -223q-46 -115 -46 -159q0 -38 21 -38zM451 651h-47l-119 65q-39 21 -39 44q0 19 15 31t34 12q31 0 58 -33z" />
<glyph unicode="&#xfa;" horiz-adv-x="593" d="M169 62q34 0 98.5 84t101.5 184l74 200h93l-74 -229q-58 -181 -58 -210q0 -26 18 -26q20 0 52.5 35.5t51.5 80.5l30 -15q-28 -69 -81 -122.5t-103 -53.5q-29 0 -41 21t-12 64q0 40 7 75l-3 3q-91 -163 -194 -163q-84 0 -84 90q0 63 50 188q65 161 65 183q0 11 -9 11 q-24 0 -104 -97l-26 14q32 61 89 111t104 50q50 0 50 -58q0 -49 -70 -223q-46 -115 -46 -159q0 -38 21 -38zM329 651h-47l130 119q36 33 67 33q17 0 27.5 -9.5t10.5 -25.5q0 -28 -51 -52z" />
<glyph unicode="&#xfb;" horiz-adv-x="593" d="M169 62q34 0 98.5 84t101.5 184l74 200h93l-74 -229q-58 -181 -58 -210q0 -26 18 -26q20 0 52.5 35.5t51.5 80.5l30 -15q-28 -69 -81 -122.5t-103 -53.5q-29 0 -41 21t-12 64q0 40 7 75l-3 3q-91 -163 -194 -163q-84 0 -84 90q0 63 50 188q65 161 65 183q0 11 -9 11 q-24 0 -104 -97l-26 14q32 61 89 111t104 50q50 0 50 -58q0 -49 -70 -223q-46 -115 -46 -159q0 -38 21 -38zM344 780h90l84 -129h-45l-101 68l-137 -68h-45z" />
<glyph unicode="&#xfc;" horiz-adv-x="593" d="M169 62q34 0 98.5 84t101.5 184l74 200h93l-74 -229q-58 -181 -58 -210q0 -26 18 -26q20 0 52.5 35.5t51.5 80.5l30 -15q-28 -69 -81 -122.5t-103 -53.5q-29 0 -41 21t-12 64q0 40 7 75l-3 3q-91 -163 -194 -163q-84 0 -84 90q0 63 50 188q65 161 65 183q0 11 -9 11 q-24 0 -104 -97l-26 14q32 61 89 111t104 50q50 0 50 -58q0 -49 -70 -223q-46 -115 -46 -159q0 -38 21 -38zM231 709q6 25 27 41.5t46 16.5q21 0 33 -12t12 -31q0 -29 -23.5 -51t-52.5 -22q-20 0 -32 11.5t-12 30.5q0 10 2 16zM398 709q6 25 27 41.5t46 16.5q21 0 33 -12 t12 -31q0 -29 -23.5 -51t-52.5 -22q-20 0 -32 11.5t-12 30.5q0 10 2 16z" />
<glyph unicode="&#xfd;" horiz-adv-x="515" d="M215 11l-54 281q-28 145 -67 145q-36 0 -66 -119l-37 10q21 93 62.5 152.5t85.5 59.5q19 0 32.5 -14.5t27.5 -51.5q26 -69 55 -205l34 -161h4q43 54 76.5 124.5t33.5 126.5q0 14 -3.5 57t-3.5 54q0 34 17 52t39 18q24 0 37 -21t13 -52q0 -80 -79 -241t-181 -292 q-150 -194 -261 -194q-41 0 -66 22.5t-25 56.5q0 25 14 40.5t37 15.5q18 0 29.5 -11.5t15.5 -26t12.5 -26t20.5 -11.5q38 0 106.5 73.5t90.5 137.5zM273 651h-47l130 119q36 33 67 33q17 0 27.5 -9.5t10.5 -25.5q0 -28 -51 -52z" />
<glyph unicode="&#xfe;" horiz-adv-x="540" d="M164 -10q-47 0 -73 35l-3 -1l-37 -145q-8 -32 -8 -43q0 -25 20.5 -35t72.5 -11l-6 -40h-283l6 40q42 0 61.5 10t26.5 36l257 855q15 51 15 64q0 35 -76 35l8 30l192 9l-127 -385l3 -2q29 46 72.5 71.5t92.5 25.5q60 0 93.5 -38t33.5 -104q0 -93 -51 -188.5t-131 -157 t-159 -61.5zM180 41q45 0 98.5 59.5t90.5 146t37 158.5q0 34 -16 57.5t-39 23.5q-44 0 -96.5 -59.5t-89 -146t-36.5 -157.5q0 -82 51 -82z" />
<glyph unicode="&#xff;" horiz-adv-x="515" d="M215 11l-54 281q-28 145 -67 145q-36 0 -66 -119l-37 10q21 93 62.5 152.5t85.5 59.5q19 0 32.5 -14.5t27.5 -51.5q26 -69 55 -205l34 -161h4q43 54 76.5 124.5t33.5 126.5q0 14 -3.5 57t-3.5 54q0 34 17 52t39 18q24 0 37 -21t13 -52q0 -80 -79 -241t-181 -292 q-150 -194 -261 -194q-41 0 -66 22.5t-25 56.5q0 25 14 40.5t37 15.5q18 0 29.5 -11.5t15.5 -26t12.5 -26t20.5 -11.5q38 0 106.5 73.5t90.5 137.5zM178 709q6 25 27 41.5t46 16.5q21 0 33 -12t12 -31q0 -29 -23.5 -51t-52.5 -22q-20 0 -32 11.5t-12 30.5q0 10 2 16z M345 709q6 25 27 41.5t46 16.5q21 0 33 -12t12 -31q0 -29 -23.5 -51t-52.5 -22q-20 0 -32 11.5t-12 30.5q0 10 2 16z" />
<glyph unicode="&#x100;" d="M690 780l-139 -614q-12 -52 -12 -77q0 -29 19 -39t74 -10l-10 -40h-296l10 40q59 0 80 22.5t39 104.5l27 123h-215l-63 -66q-52 -54 -79 -86t-33 -43.5t-6 -20.5q0 -19 17 -26.5t58 -7.5l-10 -40h-259l10 40q47 0 99 40.5t144 150.5l461 549h84zM310 340h181l82 310h-4z M810 880h-270l13 50h270z" />
<glyph unicode="&#x101;" horiz-adv-x="570" d="M332 488q-49 0 -103 -58t-89 -140t-35 -150q0 -36 15 -57.5t41 -21.5q44 0 95 66t84 153.5t33 151.5q0 26 -11 41t-30 15zM414 474l21 56h83l-57 -153q-28 -75 -51 -164t-23 -122q0 -29 19 -29q25 0 100 104l26 -21q-41 -73 -90 -114t-94 -41q-48 0 -48 75q0 14 3 53 l-4 1q-29 -56 -80.5 -92.5t-100.5 -36.5q-50 0 -79 39t-29 106q0 90 48.5 185t123 157.5t144.5 62.5q64 0 88 -66zM498 702h-270l13 50h270z" />
<glyph unicode="&#x102;" d="M690 780l-139 -614q-12 -52 -12 -77q0 -29 19 -39t74 -10l-10 -40h-296l10 40q59 0 80 22.5t39 104.5l27 123h-215l-63 -66q-52 -54 -79 -86t-33 -43.5t-6 -20.5q0 -19 17 -26.5t58 -7.5l-10 -40h-259l10 40q47 0 99 40.5t144 150.5l461 549h84zM310 340h181l82 310h-4z M808 960h37q-17 -50 -65 -82.5t-104 -32.5q-50 0 -80 25t-30 65q0 11 3 25h36q2 -21 26.5 -33.5t62.5 -12.5t69 12.5t45 33.5z" />
<glyph unicode="&#x103;" horiz-adv-x="570" d="M332 488q-49 0 -103 -58t-89 -140t-35 -150q0 -36 15 -57.5t41 -21.5q44 0 95 66t84 153.5t33 151.5q0 26 -11 41t-30 15zM414 474l21 56h83l-57 -153q-28 -75 -51 -164t-23 -122q0 -29 19 -29q25 0 100 104l26 -21q-41 -73 -90 -114t-94 -41q-48 0 -48 75q0 14 3 53 l-4 1q-29 -56 -80.5 -92.5t-100.5 -36.5q-50 0 -79 39t-29 106q0 90 48.5 185t123 157.5t144.5 62.5q64 0 88 -66zM488 776h37q-19 -57 -68 -93.5t-105 -36.5q-49 0 -78 27t-29 71q0 17 4 32h36q1 -28 24.5 -44.5t60.5 -16.5q38 0 70 16.5t48 44.5z" />
<glyph unicode="&#x104;" d="M523 -121l29 -31q-63 -82 -157 -82q-46 0 -71.5 22.5t-25.5 62.5q0 44 32.5 82.5t92.5 66.5h-97l10 40q59 0 80 22.5t39 104.5l27 123h-215l-63 -66q-52 -54 -79 -86t-33 -43.5t-6 -20.5q0 -19 17 -26.5t58 -7.5l-10 -40h-259l10 40q47 0 99 40.5t144 150.5l461 549h84 l-139 -614q-12 -52 -12 -77q0 -29 19 -39t74 -10l-10 -40h-134q-50 -26 -80.5 -61t-30.5 -65q0 -20 15 -34t36 -14q40 0 95 53zM310 340h181l82 310h-4z" />
<glyph unicode="&#x105;" horiz-adv-x="570" d="M409 -121l29 -31q-63 -82 -157 -82q-46 0 -71.5 22.5t-25.5 62.5q0 44 34.5 84t97.5 68q-16 17 -16 62q0 14 3 53l-4 1q-29 -56 -80.5 -92.5t-100.5 -36.5q-50 0 -79 39t-29 106q0 90 48.5 185t123 157.5t144.5 62.5q64 0 88 -66l21 56h83l-57 -153q-28 -75 -51 -164 t-23 -122q0 -29 19 -29q25 0 100 104l26 -21q-39 -69 -85 -109.5t-90 -44.5q-42 -26 -68 -58t-26 -59q0 -20 15 -34t36 -14q40 0 95 53zM332 488q-49 0 -103 -58t-89 -140t-35 -150q0 -36 15 -57.5t41 -21.5q44 0 95 66t84 153.5t33 151.5q0 26 -11 41t-30 15z" />
<glyph unicode="&#x106;" horiz-adv-x="728" d="M665 189q-69 -107 -138.5 -153t-161.5 -46q-135 0 -213.5 84t-78.5 227q0 124 59 235t157.5 177.5t208.5 66.5q94 0 180 -60l37 50h37l-46 -251h-38q-8 108 -47 158.5t-115 50.5q-131 0 -221.5 -124t-90.5 -304q0 -248 193 -248q72 0 130.5 39t111.5 122zM468 850h-60 l150 77q64 33 96 33q30 0 30 -25q0 -38 -89 -57z" />
<glyph unicode="&#x107;" horiz-adv-x="441" d="M338 181l35 -20q-41 -83 -97 -127t-119 -44q-64 0 -103.5 44.5t-39.5 118.5q0 87 46.5 178t118.5 150t141 59q47 0 78.5 -26t31.5 -65q0 -25 -14.5 -40.5t-37.5 -15.5q-22 0 -37 14.5t-15 35.5q0 10 4 21.5t4 14.5q0 14 -24 14q-43 0 -88 -51.5t-74 -132t-29 -157.5 q0 -48 18.5 -75.5t51.5 -27.5q35 0 77 37.5t72 94.5zM304 651h-47l130 119q36 33 67 33q17 0 27.5 -9.5t10.5 -25.5q0 -28 -51 -52z" />
<glyph unicode="&#x108;" horiz-adv-x="728" d="M665 189q-69 -107 -138.5 -153t-161.5 -46q-135 0 -213.5 84t-78.5 227q0 124 59 235t157.5 177.5t208.5 66.5q94 0 180 -60l37 50h37l-46 -251h-38q-8 108 -47 158.5t-115 50.5q-131 0 -221.5 -124t-90.5 -304q0 -248 193 -248q72 0 130.5 39t111.5 122zM501 960h110 l80 -109h-45l-105 54l-133 -54h-45z" />
<glyph unicode="&#x109;" horiz-adv-x="441" d="M338 181l35 -20q-41 -83 -97 -127t-119 -44q-64 0 -103.5 44.5t-39.5 118.5q0 87 46.5 178t118.5 150t141 59q47 0 78.5 -26t31.5 -65q0 -25 -14.5 -40.5t-37.5 -15.5q-22 0 -37 14.5t-15 35.5q0 10 4 21.5t4 14.5q0 14 -24 14q-43 0 -88 -51.5t-74 -132t-29 -157.5 q0 -48 18.5 -75.5t51.5 -27.5q35 0 77 37.5t72 94.5zM319 780h90l84 -129h-45l-101 68l-137 -68h-45z" />
<glyph unicode="&#x10a;" horiz-adv-x="728" d="M665 189q-69 -107 -138.5 -153t-161.5 -46q-135 0 -213.5 84t-78.5 227q0 124 59 235t157.5 177.5t208.5 66.5q94 0 180 -60l37 50h37l-46 -251h-38q-8 108 -47 158.5t-115 50.5q-131 0 -221.5 -124t-90.5 -304q0 -248 193 -248q72 0 130.5 39t111.5 122zM500 904 q0 23 15.5 39t36.5 16q23 0 39 -16t16 -39q0 -21 -16 -36.5t-39 -15.5q-21 0 -36.5 15.5t-15.5 36.5z" />
<glyph unicode="&#x10b;" horiz-adv-x="441" d="M338 181l35 -20q-41 -83 -97 -127t-119 -44q-64 0 -103.5 44.5t-39.5 118.5q0 87 46.5 178t118.5 150t141 59q47 0 78.5 -26t31.5 -65q0 -25 -14.5 -40.5t-37.5 -15.5q-22 0 -37 14.5t-15 35.5q0 10 4 21.5t4 14.5q0 14 -24 14q-43 0 -88 -51.5t-74 -132t-29 -157.5 q0 -48 18.5 -75.5t51.5 -27.5q35 0 77 37.5t72 94.5zM285 743q0 26 18 44t44 18t44 -18t18 -44t-18 -44t-44 -18t-44 18t-18 44z" />
<glyph unicode="&#x10c;" horiz-adv-x="728" d="M665 189q-69 -107 -138.5 -153t-161.5 -46q-135 0 -213.5 84t-78.5 227q0 124 59 235t157.5 177.5t208.5 66.5q94 0 180 -60l37 50h37l-46 -251h-38q-8 108 -47 158.5t-115 50.5q-131 0 -221.5 -124t-90.5 -304q0 -248 193 -248q72 0 130.5 39t111.5 122zM577 851h-110 l-80 109h45l105 -54l133 54h45z" />
<glyph unicode="&#x10d;" horiz-adv-x="441" d="M338 181l35 -20q-41 -83 -97 -127t-119 -44q-64 0 -103.5 44.5t-39.5 118.5q0 87 46.5 178t118.5 150t141 59q47 0 78.5 -26t31.5 -65q0 -25 -14.5 -40.5t-37.5 -15.5q-22 0 -37 14.5t-15 35.5q0 10 4 21.5t4 14.5q0 14 -24 14q-43 0 -88 -51.5t-74 -132t-29 -157.5 q0 -48 18.5 -75.5t51.5 -27.5q35 0 77 37.5t72 94.5zM374 651h-90l-84 129h45l101 -68l137 68h45z" />
<glyph unicode="&#x10e;" horiz-adv-x="836" d="M152 730l13 40h271q159 0 252 -77q109 -90 109 -246q0 -89 -38.5 -177t-100.5 -149q-122 -121 -337 -121h-350l11 40q66 0 90.5 21t44.5 97l115 442q1 2 7.5 23.5t10.5 38t4 26.5q0 42 -83 42h-19zM355 669l-118 -438q-25 -92 -25 -113q0 -74 100 -74q75 0 138 26t105 68 t71 97t42 111t13 111q0 125 -67.5 194t-185.5 69q-32 0 -48.5 -9.5t-24.5 -41.5zM543 851h-110l-80 109h45l105 -54l133 54h45z" />
<glyph unicode="&#x10f;" horiz-adv-x="598" d="M410 486l58 206q16 58 16 71q0 15 -20 21t-72 6l11 40h193l-111 -405q-72 -264 -72 -327q0 -41 25 -41q22 0 48 37t45 97l38 -9q-66 -192 -166 -192q-36 0 -55.5 23t-19.5 66q0 20 7 46l-8 2q-36 -64 -90 -100.5t-105 -36.5q-52 0 -86.5 43.5t-34.5 112.5q0 85 49 178 t123 154.5t141 61.5q33 0 50 -12t36 -42zM331 487q-50 0 -103 -59t-86.5 -142t-33.5 -152q0 -36 18 -57.5t48 -21.5q43 0 93 65t82 151.5t32 149.5q0 66 -50 66zM622 584l-15 26q74 36 86 78q-11 -8 -28 -8q-33 0 -33 31q0 29 22.5 49t52.5 20q46 0 46 -47q0 -88 -131 -149z " />
<glyph unicode="&#x110;" horiz-adv-x="839" d="M155 730l13 40h271q159 0 252 -77q109 -90 109 -246q0 -89 -38.5 -177t-100.5 -149q-122 -121 -337 -121h-350l11 40q66 0 90.5 21t44.5 97l54 208h-93l13 50h93l48 184q1 2 7.5 23.5t10.5 38t4 26.5q0 42 -83 42h-19zM358 669l-68 -253h114l-13 -50h-115l-36 -135 q-25 -92 -25 -113q0 -74 100 -74q75 0 138 26t105 68t71 97t42 111t13 111q0 125 -67.5 194t-185.5 69q-32 0 -48.5 -9.5t-24.5 -41.5z" />
<glyph unicode="&#x111;" horiz-adv-x="598" d="M410 486l43 153h-113l15 53h113q16 58 16 71q0 15 -20 21t-72 6l11 40h193l-38 -138h76l-15 -53h-76l-58 -214q-72 -264 -72 -327q0 -41 25 -41q22 0 48 37t45 97l38 -9q-66 -192 -166 -192q-36 0 -55.5 23t-19.5 66q0 20 7 46l-8 2q-36 -64 -90 -100.5t-105 -36.5 q-52 0 -86.5 43.5t-34.5 112.5q0 85 49 178t123 154.5t141 61.5q33 0 50 -12t36 -42zM331 487q-50 0 -103 -59t-86.5 -142t-33.5 -152q0 -36 18 -57.5t48 -21.5q43 0 93 65t82 151.5t32 149.5q0 66 -50 66z" />
<glyph unicode="&#x112;" horiz-adv-x="740" d="M-26 0l11 40q65 0 90 22.5t44 95.5l116 441q14 53 14 78q0 32 -22 42.5t-78 10.5l11 40h546v-202h-38q-24 91 -62.5 124.5t-105.5 33.5h-130l-78 -297h63q53 0 80 22.5t59 91.5h37l-60 -296h-40q3 30 3 52q0 46 -17.5 66t-62.5 20h-75l-57 -215q-9 -33 -9 -56 q0 -37 33 -54t109 -17q113 0 172 37t101 131h47l-78 -211h-623zM621 880h-270l13 50h270z" />
<glyph unicode="&#x113;" horiz-adv-x="456" d="M339 154l32 -21q-87 -143 -214 -143q-68 0 -105.5 43t-37.5 120q0 90 48 180.5t123 148.5t149 58q48 0 78.5 -24.5t30.5 -62.5q0 -70 -96.5 -142t-230.5 -102q-4 -25 -4 -55q0 -109 77 -109q37 0 76.5 29t73.5 80zM314 493q-51 0 -106.5 -72.5t-81.5 -166.5 q97 26 160 81.5t63 115.5q0 42 -35 42zM488 702h-270l13 50h270z" />
<glyph unicode="&#x114;" horiz-adv-x="740" d="M-26 0l11 40q65 0 90 22.5t44 95.5l116 441q14 53 14 78q0 32 -22 42.5t-78 10.5l11 40h546v-202h-38q-24 91 -62.5 124.5t-105.5 33.5h-130l-78 -297h63q53 0 80 22.5t59 91.5h37l-60 -296h-40q3 30 3 52q0 46 -17.5 66t-62.5 20h-75l-57 -215q-9 -33 -9 -56 q0 -37 33 -54t109 -17q113 0 172 37t101 131h47l-78 -211h-623zM617 960h37q-17 -50 -65 -82.5t-104 -32.5q-50 0 -80 25t-30 65q0 11 3 25h36q2 -21 26.5 -33.5t62.5 -12.5t69 12.5t45 33.5z" />
<glyph unicode="&#x115;" horiz-adv-x="456" d="M339 154l32 -21q-87 -143 -214 -143q-68 0 -105.5 43t-37.5 120q0 90 48 180.5t123 148.5t149 58q48 0 78.5 -24.5t30.5 -62.5q0 -70 -96.5 -142t-230.5 -102q-4 -25 -4 -55q0 -109 77 -109q37 0 76.5 29t73.5 80zM314 493q-51 0 -106.5 -72.5t-81.5 -166.5 q97 26 160 81.5t63 115.5q0 42 -35 42zM478 776h37q-19 -57 -68 -93.5t-105 -36.5q-49 0 -78 27t-29 71q0 17 4 32h36q1 -28 24.5 -44.5t60.5 -16.5q38 0 70 16.5t48 44.5z" />
<glyph unicode="&#x116;" horiz-adv-x="740" d="M-26 0l11 40q65 0 90 22.5t44 95.5l116 441q14 53 14 78q0 32 -22 42.5t-78 10.5l11 40h546v-202h-38q-24 91 -62.5 124.5t-105.5 33.5h-130l-78 -297h63q53 0 80 22.5t59 91.5h37l-60 -296h-40q3 30 3 52q0 46 -17.5 66t-62.5 20h-75l-57 -215q-9 -33 -9 -56 q0 -37 33 -54t109 -17q113 0 172 37t101 131h47l-78 -211h-623zM456 904q0 23 15.5 39t36.5 16q23 0 39 -16t16 -39q0 -21 -16 -36.5t-39 -15.5q-21 0 -36.5 15.5t-15.5 36.5z" />
<glyph unicode="&#x117;" horiz-adv-x="456" d="M339 154l32 -21q-87 -143 -214 -143q-68 0 -105.5 43t-37.5 120q0 90 48 180.5t123 148.5t149 58q48 0 78.5 -24.5t30.5 -62.5q0 -70 -96.5 -142t-230.5 -102q-4 -25 -4 -55q0 -109 77 -109q37 0 76.5 29t73.5 80zM314 493q-51 0 -106.5 -72.5t-81.5 -166.5 q97 26 160 81.5t63 115.5q0 42 -35 42zM298 743q0 26 18 44t44 18t44 -18t18 -44t-18 -44t-44 -18t-44 18t-18 44z" />
<glyph unicode="&#x118;" horiz-adv-x="740" d="M-26 0l11 40q65 0 90 22.5t44 95.5l116 441q14 53 14 78q0 32 -22 42.5t-78 10.5l11 40h546v-202h-38q-24 91 -62.5 124.5t-105.5 33.5h-130l-78 -297h63q53 0 80 22.5t59 91.5h37l-60 -296h-40q3 30 3 52q0 46 -17.5 66t-62.5 20h-75l-57 -215q-9 -33 -9 -56 q0 -37 33 -54t109 -17q113 0 172 37t101 131h47l-78 -211h-271q-50 -26 -80.5 -61t-30.5 -65q0 -20 15 -34t36 -14q40 0 95 53l29 -31q-63 -82 -157 -82q-46 0 -71.5 22.5t-25.5 62.5q0 44 32.5 82.5t92.5 66.5h-287z" />
<glyph unicode="&#x119;" horiz-adv-x="456" d="M211 -121l29 -31q-63 -82 -157 -82q-46 0 -71.5 22.5t-25.5 62.5q0 42 31.5 80.5t88.5 66.5q-92 28 -92 155q0 90 48 180.5t123 148.5t149 58q48 0 78.5 -24.5t30.5 -62.5q0 -70 -96.5 -142t-230.5 -102q-4 -25 -4 -55q0 -109 77 -109q37 0 76.5 29t73.5 80l32 -21 q-86 -141 -213 -143q-42 -26 -67.5 -57.5t-25.5 -58.5q0 -20 15 -34t36 -14q40 0 95 53zM314 493q-51 0 -106.5 -72.5t-81.5 -166.5q97 26 160 81.5t63 115.5q0 42 -35 42z" />
<glyph unicode="&#x11a;" horiz-adv-x="740" d="M-26 0l11 40q65 0 90 22.5t44 95.5l116 441q14 53 14 78q0 32 -22 42.5t-78 10.5l11 40h546v-202h-38q-24 91 -62.5 124.5t-105.5 33.5h-130l-78 -297h63q53 0 80 22.5t59 91.5h37l-60 -296h-40q3 30 3 52q0 46 -17.5 66t-62.5 20h-75l-57 -215q-9 -33 -9 -56 q0 -37 33 -54t109 -17q113 0 172 37t101 131h47l-78 -211h-623zM533 851h-110l-80 109h45l105 -54l133 54h45z" />
<glyph unicode="&#x11b;" horiz-adv-x="456" d="M339 154l32 -21q-87 -143 -214 -143q-68 0 -105.5 43t-37.5 120q0 90 48 180.5t123 148.5t149 58q48 0 78.5 -24.5t30.5 -62.5q0 -70 -96.5 -142t-230.5 -102q-4 -25 -4 -55q0 -109 77 -109q37 0 76.5 29t73.5 80zM314 493q-51 0 -106.5 -72.5t-81.5 -166.5 q97 26 160 81.5t63 115.5q0 42 -35 42zM387 651h-90l-84 129h45l101 -68l137 68h45z" />
<glyph unicode="&#x11c;" horiz-adv-x="809" d="M387 44q87 0 141 46.5t54 131.5q0 41 -18.5 59.5t-66.5 18.5l9 39h274l-10 -39q-45 0 -62.5 -21.5t-41.5 -112.5q-22 -87 -23 -117q-19 -3 -61.5 -19t-97 -28t-119.5 -12q-135 0 -213.5 84t-78.5 227q0 124 61.5 235t165 177.5t218.5 66.5q105 0 200 -60l37 50h37 l-36 -220h-38q-10 92 -56 135t-136 43q-140 0 -236 -124t-96 -304q0 -256 193 -256zM517 960h110l80 -109h-45l-105 54l-133 -54h-45z" />
<glyph unicode="&#x11d;" horiz-adv-x="550" d="M435 -73q0 -86 -71.5 -136.5t-193.5 -50.5q-109 0 -177 39t-68 102q0 41 27 68t67 27q23 0 51 -14q-56 -23 -56 -87q0 -42 42.5 -66t116.5 -24q77 0 130.5 30.5t53.5 67.5q0 28 -34 51t-94 33q-112 19 -161.5 44.5t-49.5 69.5q0 29 26 49.5t91 39.5l2 4q-76 54 -76 139 q0 93 70.5 160.5t167.5 67.5q74 0 124 -54q47 53 91 53q31 0 55.5 -19.5t24.5 -45.5q0 -20 -13.5 -33.5t-33.5 -13.5q-21 0 -38 21t-34 21q-11 0 -35 -16q9 -23 9 -58q0 -109 -61 -175t-168 -74q-89 -7 -89 -36q0 -22 31.5 -35t76 -20.5t89 -18t76 -38.5t31.5 -72zM225 191 q48 0 88.5 69.5t40.5 153.5q0 40 -18 63.5t-47 23.5q-47 0 -90.5 -73t-43.5 -152q0 -38 19.5 -61.5t50.5 -23.5zM316 780h90l84 -129h-45l-101 68l-137 -68h-45z" />
<glyph unicode="&#x11e;" horiz-adv-x="809" d="M387 44q87 0 141 46.5t54 131.5q0 41 -18.5 59.5t-66.5 18.5l9 39h274l-10 -39q-45 0 -62.5 -21.5t-41.5 -112.5q-22 -87 -23 -117q-19 -3 -61.5 -19t-97 -28t-119.5 -12q-135 0 -213.5 84t-78.5 227q0 124 61.5 235t165 177.5t218.5 66.5q105 0 200 -60l37 50h37 l-36 -220h-38q-10 92 -56 135t-136 43q-140 0 -236 -124t-96 -304q0 -256 193 -256zM677 960h37q-17 -50 -65 -82.5t-104 -32.5q-50 0 -80 25t-30 65q0 11 3 25h36q2 -21 26.5 -33.5t62.5 -12.5t69 12.5t45 33.5z" />
<glyph unicode="&#x11f;" horiz-adv-x="550" d="M435 -73q0 -86 -71.5 -136.5t-193.5 -50.5q-109 0 -177 39t-68 102q0 41 27 68t67 27q23 0 51 -14q-56 -23 -56 -87q0 -42 42.5 -66t116.5 -24q77 0 130.5 30.5t53.5 67.5q0 28 -34 51t-94 33q-112 19 -161.5 44.5t-49.5 69.5q0 29 26 49.5t91 39.5l2 4q-76 54 -76 139 q0 93 70.5 160.5t167.5 67.5q74 0 124 -54q47 53 91 53q31 0 55.5 -19.5t24.5 -45.5q0 -20 -13.5 -33.5t-33.5 -13.5q-21 0 -38 21t-34 21q-11 0 -35 -16q9 -23 9 -58q0 -109 -61 -175t-168 -74q-89 -7 -89 -36q0 -22 31.5 -35t76 -20.5t89 -18t76 -38.5t31.5 -72zM225 191 q48 0 88.5 69.5t40.5 153.5q0 40 -18 63.5t-47 23.5q-47 0 -90.5 -73t-43.5 -152q0 -38 19.5 -61.5t50.5 -23.5zM462 776h37q-19 -57 -68 -93.5t-105 -36.5q-49 0 -78 27t-29 71q0 17 4 32h36q1 -28 24.5 -44.5t60.5 -16.5q38 0 70 16.5t48 44.5z" />
<glyph unicode="&#x120;" horiz-adv-x="809" d="M387 44q87 0 141 46.5t54 131.5q0 41 -18.5 59.5t-66.5 18.5l9 39h274l-10 -39q-45 0 -62.5 -21.5t-41.5 -112.5q-22 -87 -23 -117q-19 -3 -61.5 -19t-97 -28t-119.5 -12q-135 0 -213.5 84t-78.5 227q0 124 61.5 235t165 177.5t218.5 66.5q105 0 200 -60l37 50h37 l-36 -220h-38q-10 92 -56 135t-136 43q-140 0 -236 -124t-96 -304q0 -256 193 -256zM514 904q0 23 15.5 39t36.5 16q23 0 39 -16t16 -39q0 -21 -16 -36.5t-39 -15.5q-21 0 -36.5 15.5t-15.5 36.5z" />
<glyph unicode="&#x121;" horiz-adv-x="550" d="M435 -73q0 -86 -71.5 -136.5t-193.5 -50.5q-109 0 -177 39t-68 102q0 41 27 68t67 27q23 0 51 -14q-56 -23 -56 -87q0 -42 42.5 -66t116.5 -24q77 0 130.5 30.5t53.5 67.5q0 28 -34 51t-94 33q-112 19 -161.5 44.5t-49.5 69.5q0 29 26 49.5t91 39.5l2 4q-76 54 -76 139 q0 93 70.5 160.5t167.5 67.5q74 0 124 -54q47 53 91 53q31 0 55.5 -19.5t24.5 -45.5q0 -20 -13.5 -33.5t-33.5 -13.5q-21 0 -38 21t-34 21q-11 0 -35 -16q9 -23 9 -58q0 -109 -61 -175t-168 -74q-89 -7 -89 -36q0 -22 31.5 -35t76 -20.5t89 -18t76 -38.5t31.5 -72zM225 191 q48 0 88.5 69.5t40.5 153.5q0 40 -18 63.5t-47 23.5q-47 0 -90.5 -73t-43.5 -152q0 -38 19.5 -61.5t50.5 -23.5zM282 743q0 26 18 44t44 18t44 -18t18 -44t-18 -44t-44 -18t-44 18t-18 44z" />
<glyph unicode="&#x122;" horiz-adv-x="809" d="M387 44q87 0 141 46.5t54 131.5q0 41 -18.5 59.5t-66.5 18.5l9 39h274l-10 -39q-45 0 -62.5 -21.5t-41.5 -112.5q-22 -87 -23 -117q-19 -3 -61.5 -19t-97 -28t-119.5 -12q-135 0 -213.5 84t-78.5 227q0 124 61.5 235t165 177.5t218.5 66.5q105 0 200 -60l37 50h37 l-36 -220h-38q-10 92 -56 135t-136 43q-140 0 -236 -124t-96 -304q0 -256 193 -256zM309 -250l-22 26q65 36 65 78q-10 -8 -26 -8q-20 0 -32 13t-12 34q0 23 16.5 38t42.5 15q30 0 46.5 -20.5t16.5 -58.5q0 -66 -95 -117z" />
<glyph unicode="&#x123;" horiz-adv-x="550" d="M377 847l22 -26q-65 -36 -65 -78q10 8 26 8q20 0 32 -13t12 -34q0 -23 -16.5 -38t-42.5 -15q-30 0 -46.5 20.5t-16.5 58.5q0 66 95 117zM435 -73q0 -86 -71.5 -136.5t-193.5 -50.5q-109 0 -177 39t-68 102q0 41 27 68t67 27q23 0 51 -14q-56 -23 -56 -87q0 -42 42.5 -66 t116.5 -24q77 0 130.5 30.5t53.5 67.5q0 28 -34 51t-94 33q-112 19 -161.5 44.5t-49.5 69.5q0 29 26 49.5t91 39.5l2 4q-76 54 -76 139q0 93 70.5 160.5t167.5 67.5q74 0 124 -54q47 53 91 53q31 0 55.5 -19.5t24.5 -45.5q0 -20 -13.5 -33.5t-33.5 -13.5q-21 0 -38 21 t-34 21q-11 0 -35 -16q9 -23 9 -58q0 -109 -61 -175t-168 -74q-89 -7 -89 -36q0 -22 31.5 -35t76 -20.5t89 -18t76 -38.5t31.5 -72zM225 191q48 0 88.5 69.5t40.5 153.5q0 40 -18 63.5t-47 23.5q-47 0 -90.5 -73t-43.5 -152q0 -38 19.5 -61.5t50.5 -23.5z" />
<glyph unicode="&#x124;" horiz-adv-x="911" d="M820 566l-105 -398q-12 -44 -12 -70q0 -33 21 -45.5t70 -12.5l-12 -40h-319l11 40q61 0 88.5 23t46.5 95l55 209h-388l-52 -199q-12 -44 -12 -70q0 -33 21 -45.5t70 -12.5l-12 -40h-319l11 40q61 0 88.5 23t46.5 95l117 442q15 56 15 82q0 30 -21 39t-78 9l11 40h325 l-11 -40q-66 0 -93 -30.5t-54 -133.5l-39 -148h388l48 182q15 56 15 82q0 30 -21 39t-78 9l11 40h325l-11 -40q-66 0 -93 -30.5t-54 -133.5zM571 960h110l80 -109h-45l-105 54l-133 -54h-45z" />
<glyph unicode="&#x125;" horiz-adv-x="574" d="M437 780h90l64 -129h-45l-81 68l-117 -68h-45zM356 311q32 95 32 134q0 23 -7.5 32.5t-25.5 9.5q-61 0 -121 -98.5t-134 -319.5l-23 -69h-84l198 678q15 55 15 74q0 20 -19 28.5t-70 9.5l7 40h204l-114 -386l3 -2q68 98 162 98q47 0 72.5 -28t25.5 -81q0 -67 -41 -178 q-55 -153 -55 -165q0 -23 19 -23q44 0 109 89l28 -21q-31 -58 -90.5 -100.5t-109.5 -42.5q-27 0 -39 15t-12 48q0 34 13.5 84t56.5 174z" />
<glyph unicode="&#x126;" horiz-adv-x="913" d="M929 541h-114l-98 -373q-12 -44 -12 -70q0 -33 21 -45.5t70 -12.5l-12 -40h-319l11 40q61 0 88.5 23t46.5 95l55 209h-388l-52 -199q-12 -44 -12 -70q0 -33 21 -45.5t70 -12.5l-12 -40h-319l11 40q61 0 88.5 23t46.5 95l101 383h-106l13 50h106l3 9q15 56 15 82 q0 30 -21 39t-78 9l11 40h325l-11 -40q-62 0 -89 -26.5t-51 -112.5h387l3 9q15 56 15 82q0 30 -21 39t-78 9l11 40h325l-11 -40q-62 0 -89 -26.5t-51 -112.5h113zM292 418h388l32 123h-388z" />
<glyph unicode="&#x127;" horiz-adv-x="574" d="M356 311q32 95 32 134q0 23 -7.5 32.5t-25.5 9.5q-61 0 -121 -98.5t-134 -319.5l-23 -69h-84l184 630h-88l13 50h89q15 53 15 72q0 20 -19 28.5t-70 9.5l7 40h204l-45 -150h119l-13 -50h-120l-55 -186l3 -2q68 98 162 98q47 0 72.5 -28t25.5 -81q0 -67 -41 -178 q-55 -153 -55 -165q0 -23 19 -23q44 0 109 89l28 -21q-31 -58 -90.5 -100.5t-109.5 -42.5q-27 0 -39 15t-12 48q0 34 13.5 84t56.5 174z" />
<glyph unicode="&#x128;" horiz-adv-x="420" d="M329 566l-105 -398q-12 -44 -12 -70q0 -33 21 -45.5t70 -12.5l-12 -40h-319l11 40q61 0 88.5 23t46.5 95l117 442q15 56 15 82q0 30 -21 39t-78 9l11 40h325l-11 -40q-66 0 -93 -30.5t-54 -133.5zM222 846h-34q8 50 37.5 82t67.5 32q31 0 84 -23t75 -23q31 0 44 42h33 q-6 -47 -33.5 -82.5t-65.5 -35.5q-31 0 -88.5 24t-77.5 24q-30 0 -42 -40z" />
<glyph unicode="&#x129;" horiz-adv-x="344" d="M86 202l45 128q26 71 26 101q0 23 -14 23q-19 0 -47 -31.5t-40 -53.5l-29 18q26 51 85.5 102t107.5 51q26 0 38 -15.5t12 -51.5q0 -8 -1.5 -17.5t-5 -22.5t-6.5 -23.5t-9.5 -29.5t-11 -31t-14 -38.5t-15.5 -41.5l-37 -101q-21 -59 -21 -78q0 -23 21 -23q25 0 57 36t50 68 l30 -17q-29 -60 -84.5 -112t-115.5 -52q-58 0 -58 65q0 42 37 147zM127 660h-34q8 50 37.5 82t67.5 32q31 0 86 -24q50 -22 73 -22q31 0 44 42h33q-5 -47 -32 -82q-27 -36 -67 -36q-22 0 -84 25q-61 23 -82 23q-30 0 -42 -40z" />
<glyph unicode="&#x12a;" horiz-adv-x="420" d="M329 566l-105 -398q-12 -44 -12 -70q0 -33 21 -45.5t70 -12.5l-12 -40h-319l11 40q61 0 88.5 23t46.5 95l117 442q15 56 15 82q0 30 -21 39t-78 9l11 40h325l-11 -40q-66 0 -93 -30.5t-54 -133.5zM488 880h-270l13 50h270z" />
<glyph unicode="&#x12b;" horiz-adv-x="344" d="M86 202l45 128q26 71 26 101q0 23 -14 23q-19 0 -47 -31.5t-40 -53.5l-29 18q26 51 85.5 102t107.5 51q26 0 38 -15.5t12 -51.5q0 -8 -1.5 -17.5t-5 -22.5t-6.5 -23.5t-9.5 -29.5t-11 -31t-14 -38.5t-15.5 -41.5l-37 -101q-21 -59 -21 -78q0 -23 21 -23q25 0 57 36t50 68 l30 -17q-29 -60 -84.5 -112t-115.5 -52q-58 0 -58 65q0 42 37 147zM392 702h-270l13 50h270z" />
<glyph unicode="&#x12c;" horiz-adv-x="420" d="M329 566l-105 -398q-12 -44 -12 -70q0 -33 21 -45.5t70 -12.5l-12 -40h-319l11 40q61 0 88.5 23t46.5 95l117 442q15 56 15 82q0 30 -21 39t-78 9l11 40h325l-11 -40q-66 0 -93 -30.5t-54 -133.5zM484 960h37q-17 -50 -65 -82.5t-104 -32.5q-50 0 -80 25t-30 65 q0 11 3 25h36q2 -21 26.5 -33.5t62.5 -12.5t69 12.5t45 33.5z" />
<glyph unicode="&#x12d;" horiz-adv-x="344" d="M86 202l45 128q26 71 26 101q0 23 -14 23q-19 0 -47 -31.5t-40 -53.5l-29 18q26 51 85.5 102t107.5 51q26 0 38 -15.5t12 -51.5q0 -8 -1.5 -17.5t-5 -22.5t-6.5 -23.5t-9.5 -29.5t-11 -31t-14 -38.5t-15.5 -41.5l-37 -101q-21 -59 -21 -78q0 -23 21 -23q25 0 57 36t50 68 l30 -17q-29 -60 -84.5 -112t-115.5 -52q-58 0 -58 65q0 42 37 147zM382 776h37q-19 -57 -68 -93.5t-105 -36.5q-49 0 -78 27t-29 71q0 17 4 32h36q1 -28 24.5 -44.5t60.5 -16.5q38 0 70 16.5t48 44.5z" />
<glyph unicode="&#x12e;" horiz-adv-x="420" d="M183 -121l29 -31q-63 -82 -157 -82q-46 0 -71.5 22.5t-25.5 62.5q0 44 32.5 82.5t92.5 66.5h-111l11 40q61 0 88.5 23t46.5 95l117 442q15 56 15 82q0 30 -21 39t-78 9l11 40h325l-11 -40q-66 0 -93 -30.5t-54 -133.5l-105 -398q-12 -44 -12 -70q0 -33 21 -45.5t70 -12.5 l-12 -40h-143q-50 -26 -80.5 -61t-30.5 -65q0 -20 15 -34t36 -14q40 0 95 53z" />
<glyph unicode="&#x12f;" horiz-adv-x="343" d="M166 -121l29 -31q-63 -82 -157 -82q-46 0 -71.5 22.5t-25.5 62.5q0 43 33.5 82.5t93.5 67.5q-19 15 -19 54q0 42 37 147l45 128q26 71 26 101q0 23 -14 23q-19 0 -47 -31.5t-40 -53.5l-29 18q26 51 85.5 102t107.5 51q26 0 38 -15.5t12 -51.5q0 -8 -1.5 -17.5t-5 -22.5 t-6.5 -24t-9.5 -29.5t-11.5 -31.5t-14 -38t-15 -41l-37 -101q-21 -59 -21 -78q0 -23 21 -23q25 0 57 36t50 68l30 -17q-28 -58 -81.5 -109.5t-112.5 -54.5q-42 -26 -67.5 -57.5t-25.5 -58.5q0 -20 15 -34t36 -14q40 0 95 53zM278 704q-25 0 -43.5 17.5t-18.5 43.5 q0 27 18 46t44 19q27 0 45.5 -19t18.5 -45t-19 -44t-45 -18z" />
<glyph unicode="&#x130;" horiz-adv-x="420" d="M329 566l-105 -398q-12 -44 -12 -70q0 -33 21 -45.5t70 -12.5l-12 -40h-319l11 40q61 0 88.5 23t46.5 95l117 442q15 56 15 82q0 30 -21 39t-78 9l11 40h325l-11 -40q-66 0 -93 -30.5t-54 -133.5zM316 904q0 23 15.5 39t36.5 16q23 0 39 -16t16 -39q0 -21 -16 -36.5 t-39 -15.5q-21 0 -36.5 15.5t-15.5 36.5z" />
<glyph unicode="&#x131;" horiz-adv-x="344" d="M86 202l45 128q26 71 26 101q0 23 -14 23q-19 0 -47 -31.5t-40 -53.5l-29 18q26 51 85.5 102t107.5 51q26 0 38 -15.5t12 -51.5q0 -8 -1.5 -17.5t-5 -22.5t-6.5 -23.5t-9.5 -29.5t-11 -31t-14 -38.5t-15.5 -41.5l-37 -101q-21 -59 -21 -78q0 -23 21 -23q25 0 57 36t50 68 l30 -17q-29 -60 -84.5 -112t-115.5 -52q-58 0 -58 65q0 42 37 147z" />
<glyph unicode="&#x132;" horiz-adv-x="963" d="M329 566l-105 -398q-12 -44 -12 -70q0 -33 21 -45.5t70 -12.5l-12 -40h-319l11 40q61 0 88.5 23t46.5 95l117 442q15 56 15 82q0 30 -21 39t-78 9l11 40h325l-11 -40q-66 0 -93 -30.5t-54 -133.5zM554 43q48 0 86.5 47t61.5 132l99 378q15 56 15 82q0 29 -22 38.5 t-87 9.5l11 40h325l-11 -40q-60 0 -85 -30t-52 -134l-100 -380q-25 -94 -87.5 -145t-152.5 -51q-76 0 -117 34.5t-41 96.5q0 47 25 78.5t63 31.5q27 0 44.5 -16.5t17.5 -41.5q0 -27 -26 -48.5t-26 -37.5q0 -19 16.5 -31.5t42.5 -12.5z" />
<glyph unicode="&#x133;" horiz-adv-x="643" d="M86 202l45 128q26 71 26 101q0 23 -14 23q-19 0 -47 -31.5t-40 -53.5l-29 18q26 51 85.5 102t107.5 51q26 0 38 -15.5t12 -51.5q0 -8 -1.5 -17.5t-5 -22.5t-6.5 -24t-9.5 -29.5t-11.5 -31.5t-14 -38t-15 -41l-37 -101q-21 -59 -21 -78q0 -23 21 -23q25 0 57 36t50 68 l30 -17q-29 -60 -84.5 -112t-115.5 -52q-58 0 -58 65q0 42 37 147zM278 704q-25 0 -43.5 17.5t-18.5 43.5q0 27 18 46t44 19q27 0 45.5 -19t18.5 -45t-19 -44t-45 -18zM581 704q-25 0 -43.5 17.5t-18.5 43.5q0 27 18 46t44 19q27 0 45.5 -19t18.5 -45t-19 -44t-45 -18z M355 -113l111 444q21 84 21 103q0 20 -15 20q-19 0 -46.5 -31t-39.5 -54l-29 18q26 51 85.5 102t107.5 51q50 0 50 -56q0 -44 -48 -217l-83 -301q-25 -90 -88 -158t-132 -68q-41 0 -68.5 22t-27.5 54q0 27 13 43t36 16q19 0 31 -11.5t16.5 -26t13.5 -26t21 -11.5 q24 0 42.5 23.5t28.5 63.5z" />
<glyph unicode="&#x134;" horiz-adv-x="543" d="M134 43q48 0 86.5 47t61.5 132l99 378q15 56 15 82q0 29 -22 38.5t-87 9.5l11 40h325l-11 -40q-60 0 -85 -30t-52 -134l-100 -380q-25 -94 -87.5 -145t-152.5 -51q-76 0 -117 34.5t-41 96.5q0 47 25 78.5t63 31.5q27 0 44.5 -16.5t17.5 -41.5q0 -27 -26 -48.5t-26 -37.5 q0 -19 16.5 -31.5t42.5 -12.5zM455 960h110l80 -109h-45l-105 54l-133 -54h-45z" />
<glyph unicode="&#x135;" horiz-adv-x="299" d="M11 -113l111 444q21 84 21 103q0 20 -15 20q-19 0 -46.5 -31t-39.5 -54l-29 18q26 51 85.5 102t107.5 51q50 0 50 -56q0 -44 -48 -217l-83 -301q-25 -90 -88 -158t-132 -68q-41 0 -68.5 22t-27.5 54q0 27 13 43t36 16q19 0 31 -11.5t16.5 -26t13.5 -26t21 -11.5 q24 0 42.5 23.5t28.5 63.5zM228 780h90l84 -129h-45l-101 68l-137 -68h-45z" />
<glyph unicode="&#x136;" horiz-adv-x="825" d="M328 566l-37 -139l207 148q121 86 121 127q0 28 -67 28l10 40h284l-10 -40q-7 0 -13.5 -1t-15.5 -4.5t-16.5 -7t-21.5 -12.5t-26 -17t-34 -23.5t-41 -29t-52.5 -37.5t-63.5 -45l-154 -108l196 -258q55 -73 82.5 -102.5t44.5 -37t47 -7.5l-11 -40h-314l11 40q38 0 56 6 t18 22q0 28 -57 105l-158 212l-40 -28l-50 -189q-12 -44 -12 -70q0 -33 23 -45.5t78 -12.5l-12 -40h-319l11 40q56 0 81 22.5t44 95.5l117 442q15 56 15 82q0 30 -21 39t-78 9l11 40h325l-11 -40q-66 0 -93 -30.5t-54 -133.5zM326 -250l-22 26q65 36 65 78q-10 -8 -26 -8 q-20 0 -32 13t-12 34q0 23 16.5 38t42.5 15q30 0 46.5 -20.5t16.5 -58.5q0 -66 -95 -117z" />
<glyph unicode="&#x137;" horiz-adv-x="513" d="M357 80q29 0 82 75l26 -14q-72 -151 -149 -151q-24 0 -39.5 16.5t-34.5 61.5l-67 160l-22 -10l-63 -218h-91l193 717q7 27 7 37q0 21 -19 28.5t-74 7.5l9 30l199 10l-104 -385l4 -1q58 97 147 97q47 0 74 -22.5t27 -60.5q0 -46 -46.5 -93.5t-129.5 -85.5l-26 -12l51 -132 q20 -55 46 -55zM162 268q87 30 143.5 76.5t56.5 87.5t-41 41t-89 -61.5t-70 -143.5zM130 -250l-22 26q65 36 65 78q-10 -8 -26 -8q-20 0 -32 13t-12 34q0 23 16.5 38t42.5 15q30 0 46.5 -20.5t16.5 -58.5q0 -66 -95 -117z" />
<glyph unicode="&#x138;" horiz-adv-x="542" d="M386 80q30 0 82 75l26 -14q-72 -151 -149 -151q-24 0 -39.5 16.5t-34.5 61.5l-67 160l-22 -10l-63 -218h-91l115 427q7 27 7 37q0 21 -19 28.5t-74 7.5l9 30l199 10l-26 -95l4 -1q58 97 147 97q47 0 74 -22.5t27 -60.5q0 -46 -46.5 -93.5t-129.5 -85.5l-26 -12l51 -132 q20 -55 46 -55zM191 268q87 30 143.5 76.5t56.5 87.5t-41 41t-89 -61.5t-70 -143.5z" />
<glyph unicode="&#x139;" horiz-adv-x="702" d="M-25 0l11 40q65 0 90.5 23t43.5 95l113 442q15 62 15 82q0 30 -21 39t-78 9l11 40h325l-11 -40q-66 0 -93 -30.5t-54 -133.5l-104 -396q-9 -33 -9 -56q0 -37 25.5 -54t86.5 -17q118 0 179 41.5t104 146.5h47l-88 -231h-593zM284 850h-60l150 77q65 33 96 33q30 0 30 -25 q0 -38 -89 -57z" />
<glyph unicode="&#x13a;" horiz-adv-x="313" d="M50 202l133 489q15 60 15 64q0 35 -76 35l8 30l183 9l-179 -657q-16 -58 -16 -82q0 -23 21 -23q28 0 63.5 40t53.5 74l30 -17q-31 -69 -90 -121.5t-105 -52.5q-68 0 -68 65q0 42 27 147zM229 850h-60l150 77q64 33 96 33q30 0 30 -25q0 -38 -89 -57z" />
<glyph unicode="&#x13b;" horiz-adv-x="702" d="M-25 0l11 40q65 0 90.5 23t43.5 95l113 442q15 62 15 82q0 30 -21 39t-78 9l11 40h325l-11 -40q-66 0 -93 -30.5t-54 -133.5l-104 -396q-9 -33 -9 -56q0 -37 25.5 -54t86.5 -17q118 0 179 41.5t104 146.5h47l-88 -231h-593zM246 -250l-22 26q65 36 65 78q-10 -8 -26 -8 q-20 0 -32 13t-12 34q0 23 16.5 38t42.5 15q30 0 46.5 -20.5t16.5 -58.5q0 -66 -95 -117z" />
<glyph unicode="&#x13c;" horiz-adv-x="313" d="M50 202l133 489q15 60 15 64q0 35 -76 35l8 30l183 9l-179 -657q-16 -58 -16 -82q0 -23 21 -23q28 0 63.5 40t53.5 74l30 -17q-31 -69 -90 -121.5t-105 -52.5q-68 0 -68 65q0 42 27 147zM23 -250l-22 26q65 36 65 78q-10 -8 -26 -8q-20 0 -32 13t-12 34q0 23 16.5 38 t42.5 15q30 0 46.5 -20.5t16.5 -58.5q0 -66 -95 -117z" />
<glyph unicode="&#x13d;" horiz-adv-x="702" d="M-25 0l11 40q65 0 90.5 23t43.5 95l113 442q15 62 15 82q0 30 -21 39t-78 9l11 40h325l-11 -40q-66 0 -93 -30.5t-54 -133.5l-104 -396q-9 -33 -9 -56q0 -37 25.5 -54t86.5 -17q118 0 179 41.5t104 146.5h47l-88 -231h-593zM379 851h-110l-80 109h45l105 -54l133 54h45z " />
<glyph unicode="&#x13e;" horiz-adv-x="313" d="M50 202l133 489q15 60 15 64q0 35 -76 35l8 30l183 9l-179 -657q-16 -58 -16 -82q0 -23 21 -23q28 0 63.5 40t53.5 74l30 -17q-31 -69 -90 -121.5t-105 -52.5q-68 0 -68 65q0 42 27 147zM344 584l-15 26q74 36 86 78q-11 -8 -28 -8q-33 0 -33 31q0 29 22.5 49t52.5 20 q46 0 46 -47q0 -88 -131 -149z" />
<glyph unicode="&#x13f;" horiz-adv-x="702" d="M-25 0l11 40q65 0 90.5 23t43.5 95l113 442q15 62 15 82q0 30 -21 39t-78 9l11 40h325l-11 -40q-66 0 -93 -30.5t-54 -133.5l-104 -396q-9 -33 -9 -56q0 -37 25.5 -54t86.5 -17q118 0 179 41.5t104 146.5h47l-88 -231h-593zM416 400q0 26 18 44t44 18t44 -18t18 -44 t-18 -44t-44 -18t-44 18t-18 44z" />
<glyph unicode="&#x140;" horiz-adv-x="374" d="M50 202l133 489q15 60 15 64q0 35 -76 35l8 30l183 9l-179 -657q-16 -58 -16 -82q0 -23 21 -23q28 0 63.5 40t53.5 74l30 -17q-31 -69 -90 -121.5t-105 -52.5q-68 0 -68 65q0 42 27 147zM289 430q0 26 18 44t44 18t44 -18t18 -44t-18 -44t-44 -18t-44 18t-18 44z" />
<glyph unicode="&#x141;" horiz-adv-x="704" d="M-23 0l11 40q65 0 90.5 23t43.5 95l47 186l-86 -46l17 65l86 45l49 192q15 62 15 82q0 30 -21 39t-78 9l11 40h325l-11 -40q-66 0 -93 -30.5t-54 -133.5l-25 -95l107 57l-17 -65l-107 -57l-62 -236q-9 -33 -9 -56q0 -37 25.5 -54t86.5 -17q118 0 179 41.5t104 146.5h47 l-88 -231h-593z" />
<glyph unicode="&#x142;" horiz-adv-x="328" d="M65 202l53 197l-90 -48l17 65l91 49l62 226q15 60 15 64q0 35 -76 35l8 30l183 9l-84 -307l95 51l-17 -65l-96 -51l-77 -285q-16 -58 -16 -82q0 -23 21 -23q28 0 63.5 40t53.5 74l30 -17q-31 -69 -90 -121.5t-105 -52.5q-68 0 -68 65q0 42 27 147z" />
<glyph unicode="&#x143;" horiz-adv-x="842" d="M620 0h-40l-262 602h-4l-114 -434q-6 -24 -6 -43q0 -41 25 -62.5t70 -22.5l-12 -40h-286l11 40q46 0 83.5 33.5t51.5 84.5l118 444q4 15 4 31q0 46 -39.5 71t-107.5 26l12 40h235l250 -573h4l106 405q5 22 5 37q0 42 -24 66t-60 25l12 40h256l-11 -40q-38 0 -69.5 -33 t-45.5 -85zM502 850h-60l150 77q64 33 96 33q30 0 30 -25q0 -38 -89 -57z" />
<glyph unicode="&#x144;" horiz-adv-x="627" d="M425 488q-47 0 -116 -89t-110 -199l-74 -200h-88l74 229q63 196 63 229q0 27 -17 27q-22 0 -56 -50t-54 -111l-30 15q69 201 178 201q32 0 45.5 -18t13.5 -61q0 -51 -17 -91l3 -3q51 89 104 131t114 42q43 0 66.5 -21t23.5 -60q0 -43 -53 -197t-53 -179q0 -15 10 -15 q27 0 114 97l26 -14q-32 -59 -94 -110t-102 -51q-25 0 -39.5 22t-14.5 58q0 27 12.5 68.5t66.5 194.5q31 89 31 118q0 37 -27 37zM340 651h-47l130 119q36 33 67 33q17 0 27.5 -9.5t10.5 -25.5q0 -28 -51 -52z" />
<glyph unicode="&#x145;" horiz-adv-x="842" d="M620 0h-40l-262 602h-4l-114 -434q-6 -24 -6 -43q0 -41 25 -62.5t70 -22.5l-12 -40h-286l11 40q46 0 83.5 33.5t51.5 84.5l118 444q4 15 4 31q0 46 -39.5 71t-107.5 26l12 40h235l250 -573h4l106 405q5 22 5 37q0 42 -24 66t-60 25l12 40h256l-11 -40q-38 0 -69.5 -33 t-45.5 -85zM352 -250l-22 26q65 36 65 78q-10 -8 -26 -8q-20 0 -32 13t-12 34q0 23 16.5 38t42.5 15q30 0 46.5 -20.5t16.5 -58.5q0 -66 -95 -117z" />
<glyph unicode="&#x146;" horiz-adv-x="627" d="M425 488q-47 0 -116 -89t-110 -199l-74 -200h-88l74 229q63 196 63 229q0 27 -17 27q-22 0 -56 -50t-54 -111l-30 15q69 201 178 201q32 0 45.5 -18t13.5 -61q0 -51 -17 -91l3 -3q51 89 104 131t114 42q43 0 66.5 -21t23.5 -60q0 -43 -53 -197t-53 -179q0 -15 10 -15 q27 0 114 97l26 -14q-32 -59 -94 -110t-102 -51q-25 0 -39.5 22t-14.5 58q0 27 12.5 68.5t66.5 194.5q31 89 31 118q0 37 -27 37zM202 -250l-22 26q65 36 65 78q-10 -8 -26 -8q-20 0 -32 13t-12 34q0 23 16.5 38t42.5 15q30 0 46.5 -20.5t16.5 -58.5q0 -66 -95 -117z" />
<glyph unicode="&#x147;" horiz-adv-x="842" d="M620 0h-40l-262 602h-4l-114 -434q-6 -24 -6 -43q0 -41 25 -62.5t70 -22.5l-12 -40h-286l11 40q46 0 83.5 33.5t51.5 84.5l118 444q4 15 4 31q0 46 -39.5 71t-107.5 26l12 40h235l250 -573h4l106 405q5 22 5 37q0 42 -24 66t-60 25l12 40h256l-11 -40q-38 0 -69.5 -33 t-45.5 -85zM597 851h-110l-80 109h45l105 -54l133 54h45z" />
<glyph unicode="&#x148;" horiz-adv-x="627" d="M425 488q-47 0 -116 -89t-110 -199l-74 -200h-88l74 229q63 196 63 229q0 27 -17 27q-22 0 -56 -50t-54 -111l-30 15q69 201 178 201q32 0 45.5 -18t13.5 -61q0 -51 -17 -91l3 -3q51 89 104 131t114 42q43 0 66.5 -21t23.5 -60q0 -43 -53 -197t-53 -179q0 -15 10 -15 q27 0 114 97l26 -14q-32 -59 -94 -110t-102 -51q-25 0 -39.5 22t-14.5 58q0 27 12.5 68.5t66.5 194.5q31 89 31 118q0 37 -27 37zM410 651h-90l-84 129h45l101 -68l137 68h45z" />
<glyph unicode="&#x149;" horiz-adv-x="789" d="M566 488q-47 0 -116 -89t-110 -199l-74 -200h-88l74 229q63 196 63 229q0 27 -17 27q-22 0 -56 -50t-54 -111l-30 15q69 201 178 201q32 0 45.5 -18t13.5 -61q0 -51 -17 -91l3 -3q51 89 104 131t114 42q43 0 66.5 -21t23.5 -60q0 -43 -53 -197t-53 -179q0 -15 10 -15 q27 0 114 97l26 -14q-32 -59 -94 -110t-102 -51q-25 0 -39.5 22t-14.5 58q0 27 12.5 68.5t66.5 194.5q31 89 31 118q0 37 -27 37zM157 611h-29q2 24 3.5 55.5t2.5 49.5t3.5 39.5t6.5 33t11 22t18.5 15t27.5 4.5t25.5 -9.5t9.5 -25.5q0 -5 -2 -15q-3 -10 -16 -39t-32.5 -69.5 t-28.5 -60.5z" />
<glyph unicode="&#x14a;" horiz-adv-x="842" d="M410 -207q46 0 84.5 47t60.5 132l14 53l-251 577h-4l-114 -434q-6 -24 -6 -43q0 -41 25 -62.5t70 -22.5l-12 -40h-286l11 40q46 0 83.5 33.5t51.5 84.5l118 444q4 15 4 31q0 46 -39.5 71t-107.5 26l12 40h235l250 -573h4l106 405q5 22 5 37q0 42 -24 66t-60 25l12 40h256 l-11 -40q-38 0 -69.5 -33t-45.5 -85l-177 -676q-50 -196 -205 -196q-65 0 -102.5 31.5t-37.5 85.5q0 46 25 77.5t62 31.5q23 0 38 -15t15 -38t-21 -42.5t-21 -34.5q0 -19 14.5 -31t37.5 -12z" />
<glyph unicode="&#x14b;" horiz-adv-x="590" d="M299 -113q153 551 153 570q0 31 -28 31q-46 0 -115.5 -89.5t-109.5 -198.5l-74 -200h-88l74 229q63 194 63 230q0 26 -17 26q-22 0 -56 -50t-54 -111l-30 15q69 201 178 201q32 0 45.5 -18t13.5 -62q0 -52 -17 -90l3 -3q98 173 217 173q44 0 67.5 -20.5t23.5 -58.5 q0 -45 -134 -495q-28 -96 -92.5 -161t-130.5 -65q-41 0 -67.5 22.5t-26.5 56.5q0 26 13.5 41t35.5 15q19 0 31 -11.5t16.5 -26t13.5 -26t23 -11.5q21 0 39.5 23t29.5 64z" />
<glyph unicode="&#x14c;" horiz-adv-x="820" d="M505 780q128 0 203.5 -84.5t75.5 -226.5q0 -126 -59 -237t-158 -176.5t-211 -65.5q-128 0 -205 85.5t-77 227.5q0 125 59.5 235.5t159 176t212.5 65.5zM505 728q-130 0 -220 -124t-90 -304q0 -126 44.5 -191t130.5 -65q126 0 209.5 128t83.5 324q0 119 -38.5 175.5 t-119.5 56.5zM677 880h-270l13 50h270z" />
<glyph unicode="&#x14d;" horiz-adv-x="523" d="M187 -10q-70 0 -116.5 54.5t-46.5 146.5q0 131 89 240t198 109q73 0 119 -53t46 -139q0 -83 -41.5 -166.5t-109.5 -137.5t-138 -54zM193 40q43 0 87.5 58.5t72 142.5t27.5 159q0 93 -69 93q-43 0 -86 -57t-69.5 -139t-26.5 -155q0 -102 64 -102zM511 702h-270l13 50h270z " />
<glyph unicode="&#x14e;" horiz-adv-x="820" d="M505 780q128 0 203.5 -84.5t75.5 -226.5q0 -126 -59 -237t-158 -176.5t-211 -65.5q-128 0 -205 85.5t-77 227.5q0 125 59.5 235.5t159 176t212.5 65.5zM505 728q-130 0 -220 -124t-90 -304q0 -126 44.5 -191t130.5 -65q126 0 209.5 128t83.5 324q0 119 -38.5 175.5 t-119.5 56.5zM687 960h37q-17 -50 -65 -82.5t-104 -32.5q-50 0 -80 25t-30 65q0 11 3 25h36q2 -21 26.5 -33.5t62.5 -12.5t69 12.5t45 33.5z" />
<glyph unicode="&#x14f;" horiz-adv-x="523" d="M187 -10q-70 0 -116.5 54.5t-46.5 146.5q0 131 89 240t198 109q73 0 119 -53t46 -139q0 -83 -41.5 -166.5t-109.5 -137.5t-138 -54zM193 40q43 0 87.5 58.5t72 142.5t27.5 159q0 93 -69 93q-43 0 -86 -57t-69.5 -139t-26.5 -155q0 -102 64 -102zM485 776h37 q-19 -57 -68 -93.5t-105 -36.5q-49 0 -78 27t-29 71q0 17 4 32h36q1 -28 24.5 -44.5t60.5 -16.5q38 0 70 16.5t48 44.5z" />
<glyph unicode="&#x150;" horiz-adv-x="820" d="M505 780q128 0 203.5 -84.5t75.5 -226.5q0 -126 -59 -237t-158 -176.5t-211 -65.5q-128 0 -205 85.5t-77 227.5q0 125 59.5 235.5t159 176t212.5 65.5zM505 728q-130 0 -220 -124t-90 -304q0 -126 44.5 -191t130.5 -65q126 0 209.5 128t83.5 324q0 119 -38.5 175.5 t-119.5 56.5zM421 850h-60l120 77q52 33 87 33q17 0 27.5 -9.5t10.5 -25.5q0 -29 -75 -47zM608 850h-60l120 77q52 33 87 33q17 0 27.5 -9.5t10.5 -25.5q0 -29 -75 -47z" />
<glyph unicode="&#x151;" horiz-adv-x="523" d="M187 -10q-70 0 -116.5 54.5t-46.5 146.5q0 131 89 240t198 109q73 0 119 -53t46 -139q0 -83 -41.5 -166.5t-109.5 -137.5t-138 -54zM193 40q43 0 87.5 58.5t72 142.5t27.5 159q0 93 -69 93q-43 0 -86 -57t-69.5 -139t-26.5 -155q0 -102 64 -102zM213 651h-47l130 119 q36 33 67 33q17 0 27.5 -9.5t10.5 -25.5q0 -28 -51 -52zM411 651h-47l130 119q36 33 67 33q17 0 27.5 -9.5t10.5 -25.5q0 -28 -51 -52z" />
<glyph unicode="&#x152;" horiz-adv-x="1158" d="M585 770h539v-202h-38q-27 97 -67 128t-135 31h-81q-19 0 -19 -17l-68 -283q94 0 130.5 20.5t64.5 94.5h38l-60 -295h-40q2 42 2 55q0 52 -27 68t-117 17l-55 -230q-5 -21 -5 -44q1 -39 34.5 -54.5t111.5 -15.5q103 0 157.5 38t95.5 130h47l-78 -211h-614 q-150 0 -241.5 84t-91.5 215q0 124 75.5 234t195 173.5t246.5 63.5zM575 730q-133 0 -232 -95t-136 -259q-15 -63 -15 -113q0 -104 59 -162.5t164 -58.5q70 0 92 19.5t39 90.5l111 466q8 46 8 56q0 33 -20 44.5t-70 11.5z" />
<glyph unicode="&#x153;" horiz-adv-x="792" d="M675 154l32 -21q-87 -143 -214 -143q-101 0 -132 88q-83 -88 -174 -88q-70 0 -116.5 54.5t-46.5 146.5q0 131 89 240t198 109q54 0 94 -30t58 -83q101 113 207 113q48 0 78.5 -24.5t30.5 -62.5q0 -70 -96.5 -142t-230.5 -102q-4 -25 -4 -55q0 -109 77 -109q37 0 76.5 29 t73.5 80zM193 40q43 0 87.5 58.5t72 142.5t27.5 159q0 93 -69 93q-43 0 -86 -57t-69.5 -139t-26.5 -155q0 -102 64 -102zM650 493q-50 0 -104.5 -69.5t-81.5 -161.5l-2 -8q97 26 160 81.5t63 115.5q0 42 -35 42z" />
<glyph unicode="&#x154;" d="M280 375l-47 -168q-21 -76 -21 -102q0 -60 114 -60l-11 -45h-332l11 40q48 0 78.5 29t46.5 90l118 441q13 48 13 75q0 30 -22 42t-82 13l11 40h278q120 0 189 -45.5t69 -126.5q0 -80 -59 -135t-160 -76l74 -183q42 -103 72.5 -133.5t95.5 -30.5l-11 -40h-190l-147 375 h-88zM351 645l-58 -219h49q108 0 174 47t66 131q0 121 -145 121q-40 0 -56.5 -15.5t-29.5 -64.5zM409 850h-60l150 77q65 33 96 33q30 0 30 -25q0 -38 -89 -57z" />
<glyph unicode="&#x155;" horiz-adv-x="463" d="M47 378l-26 13q23 50 83 99.5t100 49.5q46 0 46 -76q0 -30 -7 -66l3 -3q25 59 81.5 107t101.5 48q29 0 48.5 -18.5t19.5 -45.5q0 -26 -16.5 -43t-42.5 -17q-23 0 -41.5 18.5t-28.5 18.5q-38 0 -96 -94.5t-102 -230.5l-45 -138h-93l65 207q63 196 63 233q0 22 -15 22 q-20 0 -52.5 -28t-45.5 -56zM286 651h-47l130 119q36 33 67 33q17 0 27.5 -9.5t10.5 -25.5q0 -28 -51 -52z" />
<glyph unicode="&#x156;" d="M280 375l-47 -168q-21 -76 -21 -102q0 -60 114 -60l-11 -45h-332l11 40q48 0 78.5 29t46.5 90l118 441q13 48 13 75q0 30 -22 42t-82 13l11 40h278q120 0 189 -45.5t69 -126.5q0 -80 -59 -135t-160 -76l74 -183q42 -103 72.5 -133.5t95.5 -30.5l-11 -40h-190l-147 375 h-88zM351 645l-58 -219h49q108 0 174 47t66 131q0 121 -145 121q-40 0 -56.5 -15.5t-29.5 -64.5zM305 -250l-22 26q65 36 65 78q-10 -8 -26 -8q-20 0 -32 13t-12 34q0 23 16.5 38t42.5 15q30 0 46.5 -20.5t16.5 -58.5q0 -66 -95 -117z" />
<glyph unicode="&#x157;" horiz-adv-x="463" d="M47 378l-26 13q23 50 83 99.5t100 49.5q46 0 46 -76q0 -30 -7 -66l3 -3q25 59 81.5 107t101.5 48q29 0 48.5 -18.5t19.5 -45.5q0 -26 -16.5 -43t-42.5 -17q-23 0 -41.5 18.5t-28.5 18.5q-38 0 -96 -94.5t-102 -230.5l-45 -138h-93l65 207q63 196 63 233q0 22 -15 22 q-20 0 -52.5 -28t-45.5 -56zM25 -250l-22 26q65 36 65 78q-10 -8 -26 -8q-20 0 -32 13t-12 34q0 23 16.5 38t42.5 15q30 0 46.5 -20.5t16.5 -58.5q0 -66 -95 -117z" />
<glyph unicode="&#x158;" d="M280 375l-47 -168q-21 -76 -21 -102q0 -60 114 -60l-11 -45h-332l11 40q48 0 78.5 29t46.5 90l118 441q13 48 13 75q0 30 -22 42t-82 13l11 40h278q120 0 189 -45.5t69 -126.5q0 -80 -59 -135t-160 -76l74 -183q42 -103 72.5 -133.5t95.5 -30.5l-11 -40h-190l-147 375 h-88zM351 645l-58 -219h49q108 0 174 47t66 131q0 121 -145 121q-40 0 -56.5 -15.5t-29.5 -64.5zM504 851h-110l-80 109h45l105 -54l133 54h45z" />
<glyph unicode="&#x159;" horiz-adv-x="463" d="M47 378l-26 13q23 50 83 99.5t100 49.5q46 0 46 -76q0 -30 -7 -66l3 -3q25 59 81.5 107t101.5 48q29 0 48.5 -18.5t19.5 -45.5q0 -26 -16.5 -43t-42.5 -17q-23 0 -41.5 18.5t-28.5 18.5q-38 0 -96 -94.5t-102 -230.5l-45 -138h-93l65 207q63 196 63 233q0 22 -15 22 q-20 0 -52.5 -28t-45.5 -56zM356 651h-90l-84 129h45l101 -68l137 68h45z" />
<glyph unicode="&#x15a;" horiz-adv-x="598" d="M538 713l20 42h30l-42 -197h-34q-3 90 -33 130.5t-94 40.5q-61 0 -101 -33t-40 -84q0 -33 20 -63.5t50.5 -53t66 -50t66 -54.5t50.5 -68t20 -89q0 -101 -74 -172.5t-180 -71.5q-109 0 -191 86l-21 -76h-35l42 254h33q7 -103 51.5 -157t121.5 -54q71 0 117.5 39.5 t46.5 99.5q0 46 -29 86t-70.5 71t-83 63t-70.5 75.5t-29 94.5q0 86 69 147t167 61q89 0 156 -67zM355 850h-60l150 77q65 33 96 33q30 0 30 -25q0 -38 -89 -57z" />
<glyph unicode="&#x15b;" horiz-adv-x="381" d="M77 387q0 66 47 109.5t119 43.5q48 0 80 -24.5t32 -61.5q0 -21 -11.5 -33t-31.5 -12t-33 13.5t-17.5 30.5t-14.5 30.5t-27 13.5q-22 0 -37 -19t-15 -47q0 -29 19.5 -62t43.5 -59t43.5 -68t19.5 -87q0 -67 -53.5 -116t-122.5 -49q-59 0 -95 26t-36 68q0 28 13.5 45 t36.5 17q43 0 49 -59q3 -32 11 -42.5t30 -10.5q36 0 57 22t21 59q0 36 -20 71t-44 60t-44 63t-20 78zM239 651h-47l130 119q36 33 67 33q17 0 27.5 -9.5t10.5 -25.5q0 -28 -51 -52z" />
<glyph unicode="&#x15c;" horiz-adv-x="598" d="M538 713l20 42h30l-42 -197h-34q-3 90 -33 130.5t-94 40.5q-61 0 -101 -33t-40 -84q0 -33 20 -63.5t50.5 -53t66 -50t66 -54.5t50.5 -68t20 -89q0 -101 -74 -172.5t-180 -71.5q-109 0 -191 86l-21 -76h-35l42 254h33q7 -103 51.5 -157t121.5 -54q71 0 117.5 39.5 t46.5 99.5q0 46 -29 86t-70.5 71t-83 63t-70.5 75.5t-29 94.5q0 86 69 147t167 61q89 0 156 -67zM379 960h110l80 -109h-45l-105 54l-133 -54h-45z" />
<glyph unicode="&#x15d;" horiz-adv-x="381" d="M77 387q0 66 47 109.5t119 43.5q48 0 80 -24.5t32 -61.5q0 -21 -11.5 -33t-31.5 -12t-33 13.5t-17.5 30.5t-14.5 30.5t-27 13.5q-22 0 -37 -19t-15 -47q0 -29 19.5 -62t43.5 -59t43.5 -68t19.5 -87q0 -67 -53.5 -116t-122.5 -49q-59 0 -95 26t-36 68q0 28 13.5 45 t36.5 17q43 0 49 -59q3 -32 11 -42.5t30 -10.5q36 0 57 22t21 59q0 36 -20 71t-44 60t-44 63t-20 78zM254 780h90l84 -129h-45l-101 68l-137 -68h-45z" />
<glyph unicode="&#x15e;" horiz-adv-x="598" d="M538 713l20 42h30l-42 -197h-34q-3 90 -33 130.5t-94 40.5q-61 0 -101 -33t-40 -84q0 -33 20 -63.5t50.5 -53t66 -50t66 -54.5t50.5 -68t20 -89q0 -99 -71 -169.5t-174 -74.5l-40 -62q104 0 104 -63q0 -51 -47 -88t-105 -37q-44 0 -71.5 18t-27.5 45q0 21 12 35t29 14 q11 0 17 -11t8 -23.5t10.5 -23.5t24.5 -11q25 0 45 18.5t20 44.5q0 41 -67 41q-23 0 -35 -2l-1 3l72 106q-82 12 -148 82l-21 -76h-35l42 254h33q7 -103 51.5 -157t121.5 -54q71 0 117.5 39.5t46.5 99.5q0 46 -29 86t-70.5 71t-83 63t-70.5 75.5t-29 94.5q0 86 69 147 t167 61q89 0 156 -67z" />
<glyph unicode="&#x15f;" horiz-adv-x="381" d="M77 387q0 66 47 109.5t119 43.5q48 0 80 -24.5t32 -61.5q0 -21 -11.5 -33t-31.5 -12t-33 13.5t-17.5 30.5t-14.5 30.5t-27 13.5q-22 0 -37 -19t-15 -47q0 -29 19.5 -62t43.5 -59t43.5 -68t19.5 -87q0 -67 -53.5 -116t-122.5 -49h-5l-40 -62q104 0 104 -63q0 -51 -47 -88 t-105 -37q-44 0 -71.5 18t-27.5 45q0 21 12 35t29 14q11 0 17 -11t8 -23.5t10.5 -23.5t24.5 -11q25 0 45 18.5t20 44.5q0 41 -67 41q-23 0 -35 -2l-1 3l74 109q-36 10 -56 33t-20 54q0 28 13.5 45t36.5 17q43 0 49 -59q3 -32 11 -42.5t30 -10.5q36 0 57 22t21 59 q0 36 -20 71t-44 60t-44 63t-20 78z" />
<glyph unicode="&#x160;" horiz-adv-x="598" d="M538 713l20 42h30l-42 -197h-34q-3 90 -33 130.5t-94 40.5q-61 0 -101 -33t-40 -84q0 -33 20 -63.5t50.5 -53t66 -50t66 -54.5t50.5 -68t20 -89q0 -101 -74 -172.5t-180 -71.5q-109 0 -191 86l-21 -76h-35l42 254h33q7 -103 51.5 -157t121.5 -54q71 0 117.5 39.5 t46.5 99.5q0 46 -29 86t-70.5 71t-83 63t-70.5 75.5t-29 94.5q0 86 69 147t167 61q89 0 156 -67zM458 851h-110l-80 109h45l105 -54l133 54h45z" />
<glyph unicode="&#x161;" horiz-adv-x="381" d="M77 387q0 66 47 109.5t119 43.5q48 0 80 -24.5t32 -61.5q0 -21 -11.5 -33t-31.5 -12t-33 13.5t-17.5 30.5t-14.5 30.5t-27 13.5q-22 0 -37 -19t-15 -47q0 -29 19.5 -62t43.5 -59t43.5 -68t19.5 -87q0 -67 -53.5 -116t-122.5 -49q-59 0 -95 26t-36 68q0 28 13.5 45 t36.5 17q43 0 49 -59q3 -32 11 -42.5t30 -10.5q36 0 57 22t21 59q0 36 -20 71t-44 60t-44 63t-20 78zM309 651h-90l-84 129h45l101 -68l137 68h45z" />
<glyph unicode="&#x162;" horiz-adv-x="780" d="M525 610l-118 -442q-16 -60 -16 -70q0 -32 26 -45t89 -13l-12 -40h-126l-46 -72q104 0 104 -63q0 -51 -47 -88t-105 -37q-44 0 -71.5 18t-27.5 45q0 21 12 35t29 14q11 0 17 -11t8 -23.5t10.5 -23.5t24.5 -11q25 0 45 18.5t20 44.5q0 41 -67 41q-23 0 -35 -2l-1 3l77 112 h-169l11 40q64 0 94.5 22t50.5 96l122 456q9 36 9 60q0 54 -55 54q-170 0 -260 -171h-40l95 213h668l-20 -213h-38q0 93 -34.5 132t-106.5 39q-50 0 -74.5 -23.5t-42.5 -94.5z" />
<glyph unicode="&#x163;" horiz-adv-x="365" d="M344 447h-109l-83 -275q-17 -54 -18 -82q0 -23 20 -23q31 0 71 40t60 74l29 -17q-31 -60 -84 -109t-100 -61l-42 -66q104 0 104 -63q0 -51 -47 -88t-105 -37q-44 0 -71.5 18t-27.5 45q0 21 12 35t29 14q11 0 17 -11t8 -23.5t10.5 -23.5t24.5 -11q25 0 45 18.5t20 44.5 q0 41 -67 41q-23 0 -35 -2l-1 3l72 105q-38 10 -38 62q0 42 31 147l74 245h-86l13 46h87l52 172h92l-52 -172h109z" />
<glyph unicode="&#x164;" horiz-adv-x="780" d="M525 610l-118 -442q-16 -60 -16 -70q0 -32 26 -45t89 -13l-12 -40h-348l11 40q64 0 94.5 22t50.5 96l122 456q9 36 9 60q0 54 -55 54q-170 0 -260 -171h-40l95 213h668l-20 -213h-38q0 93 -34.5 132t-106.5 39q-50 0 -74.5 -23.5t-42.5 -94.5zM587 851h-110l-80 109h45 l105 -54l133 54h45z" />
<glyph unicode="&#x165;" horiz-adv-x="365" d="M344 447h-109l-83 -275q-17 -54 -18 -82q0 -23 20 -23q31 0 71 40t60 74l29 -17q-35 -69 -98 -121.5t-112 -52.5q-35 0 -50.5 15.5t-15.5 49.5q0 42 31 147l74 245h-86l13 46h87l52 172h92l-52 -172h109zM371 584l-15 26q74 36 86 78q-11 -8 -28 -8q-33 0 -33 31 q0 29 22.5 49t52.5 20q46 0 46 -47q0 -88 -131 -149z" />
<glyph unicode="&#x166;" horiz-adv-x="797" d="M529 610l-43 -161h271l-13 -50h-272l-61 -231q-16 -60 -16 -70q0 -32 26 -45t89 -13l-12 -40h-348l11 40q64 0 94.5 22t50.5 96l64 241h-260l13 50h261l44 165q9 36 9 60q0 54 -55 54q-170 0 -260 -171h-40l95 213h668l-20 -213h-38q0 93 -34.5 132t-106.5 39 q-50 0 -74.5 -23.5t-42.5 -94.5z" />
<glyph unicode="&#x167;" horiz-adv-x="366" d="M345 447h-109l-20 -66h112l-15 -53h-113l-47 -156q-17 -54 -18 -82q0 -23 20 -23q31 0 71 40t60 74l29 -17q-35 -69 -98 -121.5t-112 -52.5q-35 0 -50.5 15.5t-15.5 49.5q0 42 31 147l38 126h-74l15 53h75l20 66h-86l13 46h87l52 172h92l-52 -172h109z" />
<glyph unicode="&#x168;" horiz-adv-x="808" d="M134 353l66 246q13 50 13 77q0 30 -21 42t-73 12l13 40h319l-11 -40q-71 0 -95.5 -28t-52.5 -137l-65 -251q-13 -49 -13 -94q0 -81 41.5 -127.5t119.5 -46.5q93 0 151.5 64.5t95.5 179.5q29 90 54.5 216t25.5 164q0 55 -102 60l12 40h263l-12 -40q-50 0 -70.5 -25 t-39.5 -113l-43 -200q-87 -402 -343 -402q-125 0 -189 59t-64 170q0 59 20 134zM406 846h-34q8 50 37.5 82t67.5 32q31 0 84 -23t75 -23q31 0 44 42h33q-6 -47 -33.5 -82.5t-65.5 -35.5q-31 0 -88.5 24t-77.5 24q-30 0 -42 -40z" />
<glyph unicode="&#x169;" horiz-adv-x="593" d="M169 62q34 0 98.5 84t101.5 184l74 200h93l-74 -229q-58 -181 -58 -210q0 -26 18 -26q20 0 52.5 35.5t51.5 80.5l30 -15q-28 -69 -81 -122.5t-103 -53.5q-29 0 -41 21t-12 64q0 40 7 75l-3 3q-91 -163 -194 -163q-84 0 -84 90q0 63 50 188q65 161 65 183q0 11 -9 11 q-24 0 -104 -97l-26 14q32 61 89 111t104 50q50 0 50 -58q0 -49 -70 -223q-46 -115 -46 -159q0 -38 21 -38zM235 660h-34q8 50 37.5 82t67.5 32q31 0 86 -24q50 -22 73 -22q31 0 44 42h33q-5 -47 -32 -82q-27 -36 -67 -36q-22 0 -84 25q-61 23 -82 23q-30 0 -42 -40z" />
<glyph unicode="&#x16a;" horiz-adv-x="808" d="M134 353l66 246q13 50 13 77q0 30 -21 42t-73 12l13 40h319l-11 -40q-71 0 -95.5 -28t-52.5 -137l-65 -251q-13 -49 -13 -94q0 -81 41.5 -127.5t119.5 -46.5q93 0 151.5 64.5t95.5 179.5q29 90 54.5 216t25.5 164q0 55 -102 60l12 40h263l-12 -40q-50 0 -70.5 -25 t-39.5 -113l-43 -200q-87 -402 -343 -402q-125 0 -189 59t-64 170q0 59 20 134zM671 880h-270l13 50h270z" />
<glyph unicode="&#x16b;" horiz-adv-x="593" d="M169 62q34 0 98.5 84t101.5 184l74 200h93l-74 -229q-58 -181 -58 -210q0 -26 18 -26q20 0 52.5 35.5t51.5 80.5l30 -15q-28 -69 -81 -122.5t-103 -53.5q-29 0 -41 21t-12 64q0 40 7 75l-3 3q-91 -163 -194 -163q-84 0 -84 90q0 63 50 188q65 161 65 183q0 11 -9 11 q-24 0 -104 -97l-26 14q32 61 89 111t104 50q50 0 50 -58q0 -49 -70 -223q-46 -115 -46 -159q0 -38 21 -38zM500 702h-270l13 50h270z" />
<glyph unicode="&#x16c;" horiz-adv-x="808" d="M134 353l66 246q13 50 13 77q0 30 -21 42t-73 12l13 40h319l-11 -40q-71 0 -95.5 -28t-52.5 -137l-65 -251q-13 -49 -13 -94q0 -81 41.5 -127.5t119.5 -46.5q93 0 151.5 64.5t95.5 179.5q29 90 54.5 216t25.5 164q0 55 -102 60l12 40h263l-12 -40q-50 0 -70.5 -25 t-39.5 -113l-43 -200q-87 -402 -343 -402q-125 0 -189 59t-64 170q0 59 20 134zM659 960h37q-17 -50 -65 -82.5t-104 -32.5q-50 0 -80 25t-30 65q0 11 3 25h36q2 -21 26.5 -33.5t62.5 -12.5t69 12.5t45 33.5z" />
<glyph unicode="&#x16d;" horiz-adv-x="593" d="M169 62q34 0 98.5 84t101.5 184l74 200h93l-74 -229q-58 -181 -58 -210q0 -26 18 -26q20 0 52.5 35.5t51.5 80.5l30 -15q-28 -69 -81 -122.5t-103 -53.5q-29 0 -41 21t-12 64q0 40 7 75l-3 3q-91 -163 -194 -163q-84 0 -84 90q0 63 50 188q65 161 65 183q0 11 -9 11 q-24 0 -104 -97l-26 14q32 61 89 111t104 50q50 0 50 -58q0 -49 -70 -223q-46 -115 -46 -159q0 -38 21 -38zM490 776h37q-19 -57 -68 -93.5t-105 -36.5q-49 0 -78 27t-29 71q0 17 4 32h36q1 -28 24.5 -44.5t60.5 -16.5q38 0 70 16.5t48 44.5z" />
<glyph unicode="&#x16e;" horiz-adv-x="808" d="M134 353l66 246q13 50 13 77q0 30 -21 42t-73 12l13 40h319l-11 -40q-71 0 -95.5 -28t-52.5 -137l-65 -251q-13 -49 -13 -94q0 -81 41.5 -127.5t119.5 -46.5q93 0 151.5 64.5t95.5 179.5q29 90 54.5 216t25.5 164q0 55 -102 60l12 40h263l-12 -40q-50 0 -70.5 -25 t-39.5 -113l-43 -200q-87 -402 -343 -402q-125 0 -189 59t-64 170q0 59 20 134zM475 878q0 32 26 57t59 25q23 0 36.5 -13.5t13.5 -35.5q0 -31 -26.5 -56t-59.5 -25q-22 0 -35.5 13t-13.5 35zM551 928q-17 0 -30.5 -13t-13.5 -30q0 -24 25 -24q17 0 31 13t14 29q0 25 -26 25 z" />
<glyph unicode="&#x16f;" horiz-adv-x="593" d="M169 62q34 0 98.5 84t101.5 184l74 200h93l-74 -229q-58 -181 -58 -210q0 -26 18 -26q20 0 52.5 35.5t51.5 80.5l30 -15q-28 -69 -81 -122.5t-103 -53.5q-29 0 -41 21t-12 64q0 40 7 75l-3 3q-91 -163 -194 -163q-84 0 -84 90q0 63 50 188q65 161 65 183q0 11 -9 11 q-24 0 -104 -97l-26 14q32 61 89 111t104 50q50 0 50 -58q0 -49 -70 -223q-46 -115 -46 -159q0 -38 21 -38zM282 718q0 43 34 77.5t79 34.5q31 0 49.5 -17t18.5 -45q0 -45 -35 -78.5t-80 -33.5q-30 0 -48 17t-18 45zM385 788q-23 0 -42 -17t-19 -41q0 -15 10 -24.5t27 -9.5 q22 0 40.5 18t18.5 42q0 14 -9.5 23t-25.5 9z" />
<glyph unicode="&#x170;" horiz-adv-x="808" d="M134 353l66 246q13 50 13 77q0 30 -21 42t-73 12l13 40h319l-11 -40q-71 0 -95.5 -28t-52.5 -137l-65 -251q-13 -49 -13 -94q0 -81 41.5 -127.5t119.5 -46.5q93 0 151.5 64.5t95.5 179.5q29 90 54.5 216t25.5 164q0 55 -102 60l12 40h263l-12 -40q-50 0 -70.5 -25 t-39.5 -113l-43 -200q-87 -402 -343 -402q-125 0 -189 59t-64 170q0 59 20 134zM418 850h-60l120 77q52 33 87 33q17 0 27.5 -9.5t10.5 -25.5q0 -29 -75 -47zM605 850h-60l120 77q52 33 87 33q17 0 27.5 -9.5t10.5 -25.5q0 -29 -75 -47z" />
<glyph unicode="&#x171;" horiz-adv-x="593" d="M169 62q34 0 98.5 84t101.5 184l74 200h93l-74 -229q-58 -181 -58 -210q0 -26 18 -26q20 0 52.5 35.5t51.5 80.5l30 -15q-28 -69 -81 -122.5t-103 -53.5q-29 0 -41 21t-12 64q0 40 7 75l-3 3q-91 -163 -194 -163q-84 0 -84 90q0 63 50 188q65 161 65 183q0 11 -9 11 q-24 0 -104 -97l-26 14q32 61 89 111t104 50q50 0 50 -58q0 -49 -70 -223q-46 -115 -46 -159q0 -38 21 -38zM234 651h-47l130 119q36 33 67 33q17 0 27.5 -9.5t10.5 -25.5q0 -28 -51 -52zM432 651h-47l130 119q36 33 67 33q17 0 27.5 -9.5t10.5 -25.5q0 -28 -51 -52z" />
<glyph unicode="&#x172;" horiz-adv-x="808" d="M404 -121l29 -31q-63 -82 -157 -82q-46 0 -71.5 22.5t-25.5 62.5q0 87 116 145q-181 30 -181 223q0 59 20 134l66 246q13 50 13 77q0 30 -21 42t-73 12l13 40h319l-11 -40q-71 0 -95.5 -28t-52.5 -137l-65 -251q-13 -49 -13 -94q0 -81 41.5 -127.5t119.5 -46.5 q93 0 151.5 64.5t95.5 179.5q29 90 54.5 216t25.5 164q0 55 -102 60l12 40h263l-12 -40q-50 0 -70.5 -25t-39.5 -113l-43 -200q-87 -402 -343 -402h-15q-43 -25 -68.5 -57t-25.5 -59q0 -20 15 -34t36 -14q40 0 95 53z" />
<glyph unicode="&#x173;" horiz-adv-x="593" d="M417 -121l29 -31q-63 -82 -157 -82q-46 0 -71.5 22.5t-25.5 62.5q0 46 37 87t104 69q-14 20 -14 68q0 40 7 75l-3 3q-91 -163 -194 -163q-84 0 -84 90q0 63 50 188q65 161 65 183q0 11 -9 11q-24 0 -104 -97l-26 14q32 61 89 111t104 50q50 0 50 -58q0 -49 -70 -223 q-46 -115 -46 -159q0 -38 21 -38q34 0 98.5 84t101.5 184l74 200h93l-74 -229q-58 -181 -58 -210q0 -26 18 -26q20 0 52.5 35.5t51.5 80.5l30 -15q-28 -69 -81 -122.5t-103 -53.5h-7q-43 -25 -68.5 -57t-25.5 -59q0 -20 15 -34t36 -14q40 0 95 53z" />
<glyph unicode="&#x174;" horiz-adv-x="1064" d="M588 152l308 394q59 76 82.5 110.5t23.5 50.5q0 14 -14.5 18.5t-48.5 4.5l10 40h259l-10 -40q-50 0 -105 -41t-138 -150l-421 -549h-84l108 477l-366 -477h-84l139 614q12 52 12 77q0 29 -19 39t-74 10l10 40h276l-10 -40q-43 0 -62 -24t-37 -103l-101 -451h4l339 435 l4 17q12 52 12 77q0 29 -17 39t-66 10l10 40h286l-10 -40q-59 0 -80 -22.5t-39 -104.5l-101 -451h4zM642 960h110l80 -109h-45l-105 54l-133 -54h-45z" />
<glyph unicode="&#x175;" horiz-adv-x="850" d="M407 97q-91 -107 -192 -107q-55 0 -86 35.5t-31 99.5q0 125 129 299l-2 3q-25 0 -45 8t-30.5 18t-21.5 18t-21 8q-16 0 -16 -17q0 -12 17.5 -30.5t17.5 -35.5q0 -18 -14 -29.5t-36 -11.5q-25 0 -39.5 16t-14.5 45q0 49 37 86.5t86 37.5q29 0 61 -21.5t50 -21.5 q15 0 30 15q26 28 47 28t21 -20q0 -7 -6.5 -15.5t-34.5 -41.5q-56 -66 -88 -146.5t-32 -148.5q0 -49 16 -76.5t45 -27.5q55 0 140 101q-5 47 -5 83q0 109 45 200.5t99 91.5q24 0 40.5 -21t16.5 -62q0 -113 -113 -274q9 -47 33.5 -77.5t53.5 -30.5q55 0 110 92.5t55 186.5 q0 33 -11.5 71.5t-11.5 57.5q0 57 52 57q31 0 44.5 -23.5t13.5 -76.5q0 -104 -43.5 -210t-112 -173t-135.5 -67q-86 0 -118 107zM463 247q59 96 59 173q0 38 -15 38q-20 0 -34.5 -48t-14.5 -114q0 -30 5 -49zM537 780h90l84 -129h-45l-101 68l-137 -68h-45z" />
<glyph unicode="&#x176;" horiz-adv-x="689" d="M440 348l-47 -180q-12 -43 -12 -70q0 -33 23 -45.5t78 -12.5l-12 -40h-339l11 40q67 0 96.5 23t48.5 95l46 178l-120 288q-29 70 -50.5 88t-72.5 18l11 40h281l-11 -40q-38 0 -54.5 -8t-16.5 -27q0 -17 8 -36l107 -258l139 203q25 36 33 51t8 32q0 43 -74 43l11 40h247 l-11 -40q-39 0 -58 -14.5t-56 -66.5zM453 960h110l80 -109h-45l-105 54l-133 -54h-45z" />
<glyph unicode="&#x177;" horiz-adv-x="515" d="M215 11l-54 281q-28 145 -67 145q-36 0 -66 -119l-37 10q21 93 62.5 152.5t85.5 59.5q19 0 32.5 -14.5t27.5 -51.5q26 -69 55 -205l34 -161h4q43 54 76.5 124.5t33.5 126.5q0 14 -3.5 57t-3.5 54q0 34 17 52t39 18q24 0 37 -21t13 -52q0 -80 -79 -241t-181 -292 q-150 -194 -261 -194q-41 0 -66 22.5t-25 56.5q0 25 14 40.5t37 15.5q18 0 29.5 -11.5t15.5 -26t12.5 -26t20.5 -11.5q38 0 106.5 73.5t90.5 137.5zM302 780h90l84 -129h-45l-101 68l-137 -68h-45z" />
<glyph unicode="&#x178;" horiz-adv-x="689" d="M440 348l-47 -180q-12 -43 -12 -70q0 -33 23 -45.5t78 -12.5l-12 -40h-339l11 40q67 0 96.5 23t48.5 95l46 178l-120 288q-29 70 -50.5 88t-72.5 18l11 40h281l-11 -40q-38 0 -54.5 -8t-16.5 -27q0 -17 8 -36l107 -258l139 203q25 36 33 51t8 32q0 43 -74 43l11 40h247 l-11 -40q-39 0 -58 -14.5t-56 -66.5zM355 910q5 21 23.5 35.5t39.5 14.5q18 0 29 -10.5t11 -26.5q0 -26 -21 -45t-46 -19q-17 0 -27.5 10t-10.5 26q0 10 2 15zM537 910q5 21 23.5 35.5t40.5 14.5q17 0 28 -10.5t11 -26.5q0 -25 -21 -44.5t-45 -19.5q-18 0 -28.5 10t-10.5 26 q0 10 2 15z" />
<glyph unicode="&#x179;" horiz-adv-x="672" d="M696 751l-538 -701h125q203 0 282 171h43l-84 -221h-531v21l543 701h-101q-83 0 -128.5 -12t-79.5 -42.5t-74 -95.5h-43l101 198h485v-19zM413 850h-60l150 77q65 33 96 33q30 0 30 -25q0 -38 -89 -57z" />
<glyph unicode="&#x17a;" horiz-adv-x="519" d="M424 408l-264 -253l2 -3q29 0 93 -33.5t95 -33.5q29 0 50.5 19t38.5 65l34 -13q-20 -74 -69.5 -120t-107.5 -46q-31 0 -60 14t-47 31.5t-40.5 31.5t-41.5 14t-28.5 -12.5t-12 -28t-13 -28t-29.5 -12.5q-33 0 -33 30q0 18 14.5 37t51.5 55l276 267l-2 3q-26 0 -88.5 42 t-91.5 42q-36 0 -36 -31q0 -17 25.5 -34.5t25.5 -42.5q0 -46 -49 -46q-31 0 -49 20.5t-18 56.5q0 59 45.5 100t112.5 41q34 0 62 -12t44 -27t34 -27t34 -12q15 0 25.5 10.5t15 23.5t14 23.5t24.5 10.5q29 0 29 -31q0 -17 -11 -33t-55 -58zM284 651h-47l130 119q36 33 67 33 q17 0 27.5 -9.5t10.5 -25.5q0 -28 -51 -52z" />
<glyph unicode="&#x17b;" horiz-adv-x="672" d="M696 751l-538 -701h125q203 0 282 171h43l-84 -221h-531v21l543 701h-101q-83 0 -128.5 -12t-79.5 -42.5t-74 -95.5h-43l101 198h485v-19zM416 904q0 23 15.5 39t36.5 16q23 0 39 -16t16 -39q0 -21 -16 -36.5t-39 -15.5q-21 0 -36.5 15.5t-15.5 36.5z" />
<glyph unicode="&#x17c;" horiz-adv-x="519" d="M424 408l-264 -253l2 -3q29 0 93 -33.5t95 -33.5q29 0 50.5 19t38.5 65l34 -13q-20 -74 -69.5 -120t-107.5 -46q-31 0 -60 14t-47 31.5t-40.5 31.5t-41.5 14t-28.5 -12.5t-12 -28t-13 -28t-29.5 -12.5q-33 0 -33 30q0 18 14.5 37t51.5 55l276 267l-2 3q-26 0 -88.5 42 t-91.5 42q-36 0 -36 -31q0 -17 25.5 -34.5t25.5 -42.5q0 -46 -49 -46q-31 0 -49 20.5t-18 56.5q0 59 45.5 100t112.5 41q34 0 62 -12t44 -27t34 -27t34 -12q15 0 25.5 10.5t15 23.5t14 23.5t24.5 10.5q29 0 29 -31q0 -17 -11 -33t-55 -58zM265 743q0 26 18 44t44 18t44 -18 t18 -44t-18 -44t-44 -18t-44 18t-18 44z" />
<glyph unicode="&#x17d;" horiz-adv-x="672" d="M696 751l-538 -701h125q203 0 282 171h43l-84 -221h-531v21l543 701h-101q-83 0 -128.5 -12t-79.5 -42.5t-74 -95.5h-43l101 198h485v-19zM508 851h-110l-80 109h45l105 -54l133 54h45z" />
<glyph unicode="&#x17e;" horiz-adv-x="519" d="M424 408l-264 -253l2 -3q29 0 93 -33.5t95 -33.5q29 0 50.5 19t38.5 65l34 -13q-20 -74 -69.5 -120t-107.5 -46q-31 0 -60 14t-47 31.5t-40.5 31.5t-41.5 14t-28.5 -12.5t-12 -28t-13 -28t-29.5 -12.5q-33 0 -33 30q0 18 14.5 37t51.5 55l276 267l-2 3q-26 0 -88.5 42 t-91.5 42q-36 0 -36 -31q0 -17 25.5 -34.5t25.5 -42.5q0 -46 -49 -46q-31 0 -49 20.5t-18 56.5q0 59 45.5 100t112.5 41q34 0 62 -12t44 -27t34 -27t34 -12q15 0 25.5 10.5t15 23.5t14 23.5t24.5 10.5q29 0 29 -31q0 -17 -11 -33t-55 -58zM354 651h-90l-84 129h45l101 -68 l137 68h45z" />
<glyph unicode="&#x18f;" horiz-adv-x="644" d="M176 570l-46 30q122 181 297 181q96 0 148.5 -61.5t52.5 -172.5q0 -97 -41 -198.5t-105 -180t-147 -128.5t-162 -50q-69 0 -113 35t-44 90q0 66 65.5 137t177.5 128.5t242 85.5q6 32 6 79q0 83 -30 127.5t-86 44.5q-53 0 -110 -39t-105 -108zM199 48q80 0 163 106 t125 247q-150 -39 -248 -121.5t-98 -171.5q0 -29 16 -44.5t42 -15.5z" />
<glyph unicode="&#x192;" horiz-adv-x="460" d="M77 -96q47 0 61 83l87 503h-86l8 41h85q26 158 73.5 228.5t128.5 70.5q52 0 85.5 -25t33.5 -63q0 -31 -22 -52t-55 -21q-29 0 -41 22q18 3 31 19.5t13 36.5q0 19 -13 31t-33 12q-89 0 -119 -259h90l-8 -41h-88l-55 -337q-26 -162 -69.5 -230t-120.5 -68q-49 0 -78.5 24.5 t-29.5 65.5q0 33 20.5 54.5t51.5 21.5q29 0 42 -27q-32 -7 -32 -50q0 -40 40 -40z" />
<glyph unicode="&#x1c4;" horiz-adv-x="1508" d="M152 730l13 40h271q159 0 252 -77q109 -90 109 -246q0 -89 -38.5 -177t-100.5 -149q-122 -121 -337 -121h-350l11 40q66 0 90.5 21t44.5 97l115 442q1 2 7.5 23.5t10.5 38t4 26.5q0 42 -83 42h-19zM355 669l-118 -438q-25 -92 -25 -113q0 -74 100 -74q75 0 138 26t105 68 t71 97t42 111t13 111q0 125 -67.5 194t-185.5 69q-32 0 -48.5 -9.5t-24.5 -41.5zM1532 751l-538 -701h125q203 0 282 171h43l-84 -221h-531v21l543 701h-101q-83 0 -128.5 -12t-79.5 -42.5t-74 -95.5h-43l101 198h485v-19zM1344 851h-110l-80 109h45l105 -54l133 54h45z" />
<glyph unicode="&#x1c5;" horiz-adv-x="1355" d="M152 730l13 40h271q159 0 252 -77q109 -90 109 -246q0 -89 -38.5 -177t-100.5 -149q-122 -121 -337 -121h-350l11 40q66 0 90.5 21t44.5 97l115 442q1 2 7.5 23.5t10.5 38t4 26.5q0 42 -83 42h-19zM355 669l-118 -438q-25 -92 -25 -113q0 -74 100 -74q75 0 138 26t105 68 t71 97t42 111t13 111q0 125 -67.5 194t-185.5 69q-32 0 -48.5 -9.5t-24.5 -41.5zM1260 408l-264 -253l2 -3q29 0 93 -33.5t95 -33.5q29 0 50.5 19t38.5 65l34 -13q-20 -74 -69.5 -120t-107.5 -46q-31 0 -60 14t-47 31.5t-40.5 31.5t-41.5 14t-28.5 -12.5t-12 -28t-13 -28 t-29.5 -12.5q-33 0 -33 30q0 18 14.5 37t51.5 55l276 267l-2 3q-26 0 -88.5 42t-91.5 42q-36 0 -36 -31q0 -17 25.5 -34.5t25.5 -42.5q0 -46 -49 -46q-31 0 -49 20.5t-18 56.5q0 59 45.5 100t112.5 41q34 0 62 -12t44 -27t34 -27t34 -12q15 0 25.5 10.5t15 23.5t14 23.5 t24.5 10.5q29 0 29 -31q0 -17 -11 -33t-55 -58zM1190 651h-90l-84 129h45l101 -68l137 68h45z" />
<glyph unicode="&#x1c6;" horiz-adv-x="1117" d="M410 486l58 206q16 58 16 71q0 15 -20 21t-72 6l11 40h193l-111 -405q-72 -264 -72 -327q0 -41 25 -41q22 0 48 37t45 97l38 -9q-66 -192 -166 -192q-36 0 -55.5 23t-19.5 66q0 20 7 46l-8 2q-36 -64 -90 -100.5t-105 -36.5q-52 0 -86.5 43.5t-34.5 112.5q0 85 49 178 t123 154.5t141 61.5q33 0 50 -12t36 -42zM331 487q-50 0 -103 -59t-86.5 -142t-33.5 -152q0 -36 18 -57.5t48 -21.5q43 0 93 65t82 151.5t32 149.5q0 66 -50 66zM1022 408l-264 -253l2 -3q29 0 93 -33.5t95 -33.5q29 0 50.5 19t38.5 65l34 -13q-20 -74 -69.5 -120 t-107.5 -46q-31 0 -60 14t-47 31.5t-40.5 31.5t-41.5 14t-28.5 -12.5t-12 -28t-13 -28t-29.5 -12.5q-33 0 -33 30q0 18 14.5 37t51.5 55l276 267l-2 3q-26 0 -88.5 42t-91.5 42q-36 0 -36 -31q0 -17 25.5 -34.5t25.5 -42.5q0 -46 -49 -46q-31 0 -49 20.5t-18 56.5 q0 59 45.5 100t112.5 41q34 0 62 -12t44 -27t34 -27t34 -12q15 0 25.5 10.5t15 23.5t14 23.5t24.5 10.5q29 0 29 -31q0 -17 -11 -33t-55 -58zM952 651h-90l-84 129h45l101 -68l137 68h45z" />
<glyph unicode="&#x1c7;" horiz-adv-x="1245" d="M-25 0l11 40q65 0 90.5 23t43.5 95l113 442q15 62 15 82q0 30 -21 39t-78 9l11 40h325l-11 -40q-66 0 -93 -30.5t-54 -133.5l-104 -396q-9 -33 -9 -56q0 -37 25.5 -54t86.5 -17q118 0 179 41.5t104 146.5h47l-88 -231h-593zM836 43q48 0 86.5 47t61.5 132l99 378 q15 56 15 82q0 29 -22 38.5t-87 9.5l11 40h325l-11 -40q-60 0 -85 -30t-52 -134l-100 -380q-25 -94 -87.5 -145t-152.5 -51q-76 0 -117 34.5t-41 96.5q0 47 25 78.5t63 31.5q27 0 44.5 -16.5t17.5 -41.5q0 -27 -26 -48.5t-26 -37.5q0 -19 16.5 -31.5t42.5 -12.5z" />
<glyph unicode="&#x1c8;" horiz-adv-x="977" d="M-25 0l11 40q65 0 90.5 23t43.5 95l113 442q15 62 15 82q0 30 -21 39t-78 9l11 40h325l-11 -40q-66 0 -93 -30.5t-54 -133.5l-104 -396q-9 -33 -9 -56q0 -37 25.5 -54t86.5 -17q118 0 179 41.5t104 146.5h47l-88 -231h-593zM915 704q-25 0 -43.5 17.5t-18.5 43.5 q0 27 18 46t44 19q27 0 45.5 -19t18.5 -45t-19 -44t-45 -18zM689 -113l111 444q21 84 21 103q0 20 -15 20q-19 0 -46.5 -31t-39.5 -54l-29 18q26 51 85.5 102t107.5 51q50 0 50 -56q0 -44 -48 -217l-83 -301q-25 -90 -88 -158t-132 -68q-41 0 -68.5 22t-27.5 54q0 27 13 43 t36 16q19 0 31 -11.5t16.5 -26t13.5 -26t21 -11.5q24 0 42.5 23.5t28.5 63.5z" />
<glyph unicode="&#x1c9;" horiz-adv-x="612" d="M50 202l133 489q15 60 15 64q0 35 -76 35l8 30l183 9l-179 -657q-16 -58 -16 -82q0 -23 21 -23q28 0 63.5 40t53.5 74l30 -17q-31 -69 -90 -121.5t-105 -52.5q-68 0 -68 65q0 42 27 147zM550 704q-25 0 -43.5 17.5t-18.5 43.5q0 27 18 46t44 19q27 0 45.5 -19t18.5 -45 t-19 -44t-45 -18zM324 -113l111 444q21 84 21 103q0 20 -15 20q-19 0 -46.5 -31t-39.5 -54l-29 18q26 51 85.5 102t107.5 51q50 0 50 -56q0 -44 -48 -217l-83 -301q-25 -90 -88 -158t-132 -68q-41 0 -68.5 22t-27.5 54q0 27 13 43t36 16q19 0 31 -11.5t16.5 -26t13.5 -26 t21 -11.5q24 0 42.5 23.5t28.5 63.5z" />
<glyph unicode="&#x1ca;" horiz-adv-x="1385" d="M620 0h-40l-262 602h-4l-114 -434q-6 -24 -6 -43q0 -41 25 -62.5t70 -22.5l-12 -40h-286l11 40q46 0 83.5 33.5t51.5 84.5l118 444q4 15 4 31q0 46 -39.5 71t-107.5 26l12 40h235l250 -573h4l106 405q5 22 5 37q0 42 -24 66t-60 25l12 40h256l-11 -40q-38 0 -69.5 -33 t-45.5 -85zM976 43q48 0 86.5 47t61.5 132l99 378q15 55 15 82q0 29 -22 38.5t-87 9.5l11 40h325l-11 -40q-60 0 -85 -30t-52 -134l-100 -380q-25 -94 -87.5 -145t-152.5 -51q-76 0 -117 34.5t-41 96.5q0 47 25 78.5t63 31.5q27 0 44.5 -16.5t17.5 -41.5q0 -27 -26 -48.5 t-26 -37.5q0 -19 16.5 -31.5t42.5 -12.5z" />
<glyph unicode="&#x1cb;" horiz-adv-x="1136" d="M620 0h-40l-262 602h-4l-114 -434q-6 -24 -6 -43q0 -41 25 -62.5t70 -22.5l-12 -40h-286l11 40q46 0 83.5 33.5t51.5 84.5l118 444q4 15 4 31q0 46 -39.5 71t-107.5 26l12 40h235l250 -573h4l106 405q5 22 5 37q0 42 -24 66t-60 25l12 40h256l-11 -40q-38 0 -69.5 -33 t-45.5 -85zM1074 704q-25 0 -43.5 17.5t-18.5 43.5q0 27 18 46t44 19q27 0 45.5 -19t18.5 -45t-19 -44t-45 -18zM848 -113l111 444q21 84 21 103q0 20 -15 20q-19 0 -46.5 -31t-39.5 -54l-29 18q26 51 85.5 102t107.5 51q50 0 50 -56q0 -44 -48 -217l-83 -301 q-25 -90 -88 -158t-132 -68q-41 0 -68.5 22t-27.5 54q0 27 13 43t36 16q19 0 31 -11.5t16.5 -26t13.5 -26t21 -11.5q24 0 42.5 23.5t28.5 63.5z" />
<glyph unicode="&#x1cc;" horiz-adv-x="926" d="M425 488q-47 0 -116 -89t-110 -199l-74 -200h-88l74 229q63 196 63 229q0 27 -17 27q-22 0 -56 -50t-54 -111l-30 15q69 201 178 201q32 0 45.5 -18t13.5 -61q0 -51 -17 -91l3 -3q51 89 104 131t114 42q43 0 66.5 -21t23.5 -60q0 -43 -53 -197t-53 -179q0 -15 10 -15 q27 0 114 97l26 -14q-32 -59 -94 -110t-102 -51q-25 0 -39.5 22t-14.5 58q0 27 12.5 68.5t66.5 194.5q31 89 31 118q0 37 -27 37zM864 704q-25 0 -43.5 17.5t-18.5 43.5q0 27 18 46t44 19q27 0 45.5 -19t18.5 -45t-19 -44t-45 -18zM638 -113l111 444q21 84 21 103 q0 20 -15 20q-19 0 -46.5 -31t-39.5 -54l-29 18q26 51 85.5 102t107.5 51q50 0 50 -56q0 -44 -48 -217l-83 -301q-25 -90 -88 -158t-132 -68q-41 0 -68.5 22t-27.5 54q0 27 13 43t36 16q19 0 31 -11.5t16.5 -26t13.5 -26t21 -11.5q24 0 42.5 23.5t28.5 63.5z" />
<glyph unicode="&#x1ea;" horiz-adv-x="820" d="M383 -121l29 -31q-63 -82 -157 -82q-46 0 -71.5 22.5t-25.5 62.5q0 43 32 81.5t90 66.5q-96 23 -151 104t-55 200q0 125 59.5 235.5t159 176t212.5 65.5q128 0 203.5 -84.5t75.5 -226.5q0 -126 -59 -237t-158 -176.5t-211 -65.5q-4 0 -12 0.5t-12 0.5q-43 -26 -69 -57.5 t-26 -59.5q0 -20 15 -34t36 -14q40 0 95 53zM505 728q-130 0 -220 -124t-90 -304q0 -126 44.5 -191t130.5 -65q126 0 209.5 128t83.5 324q0 119 -38.5 175.5t-119.5 56.5z" />
<glyph unicode="&#x1eb;" horiz-adv-x="523" d="M255 -121l29 -31q-63 -82 -157 -82q-46 0 -71.5 22.5t-25.5 62.5q0 87 116 145q-54 14 -88 65.5t-34 129.5q0 131 89 240t198 109q73 0 119 -53t46 -139q0 -79 -39 -159.5t-102.5 -135.5t-130.5 -62q-43 -26 -69 -57.5t-26 -59.5q0 -20 15 -34t36 -14q40 0 95 53zM193 40 q43 0 87.5 58.5t72 142.5t27.5 159q0 93 -69 93q-43 0 -86 -57t-69.5 -139t-26.5 -155q0 -102 64 -102z" />
<glyph unicode="&#x1f1;" horiz-adv-x="1499" d="M152 730l13 40h271q159 0 252 -77q109 -90 109 -246q0 -89 -38.5 -177t-100.5 -149q-122 -121 -337 -121h-350l11 40q66 0 90.5 21t44.5 97l115 442q1 2 7.5 23.5t10.5 38t4 26.5q0 42 -83 42h-19zM355 669l-118 -438q-25 -92 -25 -113q0 -74 100 -74q75 0 138 26t105 68 t71 97t42 111t13 111q0 125 -67.5 194t-185.5 69q-32 0 -48.5 -9.5t-24.5 -41.5zM1523 751l-538 -701h125q203 0 282 171h43l-84 -221h-531v21l543 701h-101q-83 0 -128.5 -12t-79.5 -42.5t-74 -95.5h-43l101 198h485v-19z" />
<glyph unicode="&#x1f2;" horiz-adv-x="1350" d="M152 730l13 40h271q159 0 252 -77q109 -90 109 -246q0 -89 -38.5 -177t-100.5 -149q-122 -121 -337 -121h-350l11 40q66 0 90.5 21t44.5 97l115 442q1 2 7.5 23.5t10.5 38t4 26.5q0 42 -83 42h-19zM355 669l-118 -438q-25 -92 -25 -113q0 -74 100 -74q75 0 138 26t105 68 t71 97t42 111t13 111q0 125 -67.5 194t-185.5 69q-32 0 -48.5 -9.5t-24.5 -41.5zM1255 408l-264 -253l2 -3q29 0 93 -33.5t95 -33.5q29 0 50 19t39 65l34 -13q-20 -74 -69.5 -120t-107.5 -46q-31 0 -60 14t-47 31.5t-40.5 31.5t-41.5 14t-28.5 -12.5t-12 -28t-13 -28 t-29.5 -12.5q-33 0 -33 30q0 18 14.5 37t51.5 55l276 267l-2 3q-26 0 -88.5 42t-91.5 42q-36 0 -36 -31q0 -17 25.5 -34.5t25.5 -42.5q0 -46 -49 -46q-31 0 -49 20.5t-18 56.5q0 59 45.5 100t112.5 41q34 0 62 -12t44 -27t34 -27t34 -12q15 0 25.5 10.5t15 23.5t14 23.5 t24.5 10.5q29 0 29 -31q0 -17 -11 -33t-55 -58z" />
<glyph unicode="&#x1f3;" horiz-adv-x="1117" d="M410 486l58 206q16 58 16 71q0 15 -20 21t-72 6l11 40h193l-111 -405q-72 -264 -72 -327q0 -41 25 -41q22 0 48 37t45 97l38 -9q-66 -192 -166 -192q-36 0 -55.5 23t-19.5 66q0 20 7 46l-8 2q-36 -64 -90 -100.5t-105 -36.5q-52 0 -86.5 43.5t-34.5 112.5q0 85 49 178 t123 154.5t141 61.5q33 0 50 -12t36 -42zM331 487q-50 0 -103 -59t-86.5 -142t-33.5 -152q0 -36 18 -57.5t48 -21.5q43 0 93 65t82 151.5t32 149.5q0 66 -50 66zM1022 408l-264 -253l2 -3q29 0 93 -33.5t95 -33.5q29 0 50.5 19t38.5 65l34 -13q-20 -74 -69.5 -120 t-107.5 -46q-31 0 -60 14t-47 31.5t-40.5 31.5t-41.5 14t-28.5 -12.5t-12 -28t-13 -28t-29.5 -12.5q-33 0 -33 30q0 18 14.5 37t51.5 55l276 267l-2 3q-26 0 -88.5 42t-91.5 42q-36 0 -36 -31q0 -17 25.5 -34.5t25.5 -42.5q0 -46 -49 -46q-31 0 -49 20.5t-18 56.5 q0 59 45.5 100t112.5 41q34 0 62 -12t44 -27t34 -27t34 -12q15 0 25.5 10.5t15 23.5t14 23.5t24.5 10.5q29 0 29 -31q0 -17 -11 -33t-55 -58z" />
<glyph unicode="&#x1fa;" d="M517 850l105 44q7 27 31 46.5t52 19.5q25 0 40 -18q29 13 48 13q30 0 30 -20q0 -30 -71 -44q-8 -26 -32 -43.5t-51 -17.5q-34 0 -46 28l-46 -8h-60zM696 928q-17 0 -30.5 -13t-13.5 -30q0 -24 25 -24q17 0 31 13t14 29q0 25 -26 25zM690 780l-139 -614q-12 -52 -12 -77 q0 -29 19 -39t74 -10l-10 -40h-296l10 40q59 0 80 22.5t39 104.5l27 123h-215l-63 -66q-52 -54 -79 -86t-33 -43.5t-6 -20.5q0 -19 17 -26.5t58 -7.5l-10 -40h-259l10 40q47 0 99 40.5t144 150.5l461 549h84zM310 340h181l82 310h-4z" />
<glyph unicode="&#x1fb;" horiz-adv-x="570" d="M332 488q-49 0 -103 -58t-89 -140t-35 -150q0 -36 15 -57.5t41 -21.5q44 0 95 66t84 153.5t33 151.5q0 26 -11 41t-30 15zM414 474l21 56h83l-57 -153q-28 -75 -51 -164t-23 -122q0 -29 19 -29q25 0 100 104l26 -21q-41 -73 -90 -114t-94 -41q-48 0 -48 75q0 14 3 53 l-4 1q-29 -56 -80.5 -92.5t-100.5 -36.5q-50 0 -79 39t-29 106q0 90 48.5 185t123 157.5t144.5 62.5q64 0 88 -66zM301 646q0 43 34 77.5t79 34.5q31 0 49.5 -17t18.5 -45q0 -45 -35 -78.5t-80 -33.5q-30 0 -48 17t-18 45zM404 716q-23 0 -42 -17t-19 -41q0 -15 10 -24.5 t27 -9.5q22 0 40.5 18t18.5 42q0 14 -9.5 23t-25.5 9zM377 790h-47l130 119q36 33 67 33q17 0 27.5 -9.5t10.5 -25.5q0 -28 -51 -52z" />
<glyph unicode="&#x1fc;" horiz-adv-x="1071" d="M928 0h-579l10 40q59 0 80 22.5t39 104.5l27 123h-215l-63 -66q-52 -54 -79 -86t-33 -43.5t-6 -20.5q0 -19 17 -26.5t58 -7.5l-10 -40h-259l10 40q47 0 99 40.5t144 150.5l374 446q16 19 16 29q0 24 -108 24l11 40h576v-202h-38q-24 91 -62.5 124.5t-105.5 33.5h-130 l-68 -297h53q53 0 80 22.5t59 91.5h37l-60 -296h-40q3 30 3 52q0 46 -17.5 66t-62.5 20h-62l-49 -219q-12 -52 -12 -77t27.5 -35.5t96.5 -10.5q113 0 172 37t101 131h47zM333 340h181l82 310h-4zM704 850h-60l150 77q64 33 96 33q30 0 30 -25q0 -38 -89 -57z" />
<glyph unicode="&#x1fd;" horiz-adv-x="756" d="M639 154l32 -21q-87 -143 -214 -143q-61 0 -98 35t-44 99q-35 -57 -91.5 -95.5t-106.5 -38.5t-78.5 39t-28.5 106q0 90 48.5 185t123 157.5t144.5 62.5q64 0 88 -66l28 76h83l-30 -74l3 -2q50 66 136 66q48 0 78.5 -24.5t30.5 -62.5q0 -70 -96.5 -142t-230.5 -102 q-4 -25 -4 -55q0 -109 77 -109q37 0 76.5 29t73.5 80zM329 488q-44 0 -97.5 -56.5t-90 -138t-36.5 -149.5q0 -39 14.5 -61t40.5 -22q46 0 96.5 58.5t83.5 145t33 162.5q0 61 -44 61zM614 493q-51 0 -106.5 -72.5t-81.5 -166.5q97 26 160 81.5t63 115.5q0 42 -35 42zM462 651 h-47l130 119q36 33 67 33q17 0 27.5 -9.5t10.5 -25.5q0 -28 -51 -52z" />
<glyph unicode="&#x1fe;" horiz-adv-x="820" d="M505 780q96 0 166 -51l78 99h69l-107 -135q73 -84 73 -224q0 -126 -59 -237t-158 -176.5t-211 -65.5q-96 0 -163 47l-78 -99h-68l106 135q-79 85 -79 230q0 125 59.5 235.5t159 176t212.5 65.5zM505 728q-130 0 -220 -124t-90 -304q0 -90 22 -147l408 518q-39 57 -120 57 zM663 496q0 68 -14 119l-405 -513q46 -58 126 -58q126 0 209.5 128t83.5 324zM492 850h-60l150 77q65 33 96 33q30 0 30 -25q0 -38 -89 -57z" />
<glyph unicode="&#x1ff;" horiz-adv-x="522" d="M187 -10q-54 0 -95 33l-67 -84h-68l99 125q-32 53 -32 127q0 131 89 240t198 109q55 0 96 -32l66 84h69l-98 -124q32 -51 32 -120q0 -83 -41.5 -166.5t-109.5 -137.5t-138 -54zM193 40q63 0 123 115.5t64 231.5l-242 -306q16 -41 55 -41zM311 493q-63 0 -120.5 -111.5 t-61.5 -225.5l240 304q-17 33 -58 33zM319 651h-47l130 119q36 33 67 33q17 0 27.5 -9.5t10.5 -25.5q0 -28 -51 -52z" />
<glyph unicode="&#x218;" horiz-adv-x="598" d="M538 713l20 42h30l-42 -197h-34q-3 90 -33 130.5t-94 40.5q-61 0 -101 -33t-40 -84q0 -33 20 -63.5t50.5 -53t66 -50t66 -54.5t50.5 -68t20 -89q0 -101 -74 -172.5t-180 -71.5q-109 0 -191 86l-21 -76h-35l42 254h33q7 -103 51.5 -157t121.5 -54q71 0 117.5 39.5 t46.5 99.5q0 46 -29 86t-70.5 71t-83 63t-70.5 75.5t-29 94.5q0 86 69 147t167 61q89 0 156 -67zM207 -250l-22 26q65 36 65 78q-10 -8 -26 -8q-20 0 -32 13t-12 34q0 23 16.5 38t42.5 15q30 0 46.5 -20.5t16.5 -58.5q0 -66 -95 -117z" />
<glyph unicode="&#x219;" horiz-adv-x="381" d="M77 387q0 66 47 109.5t119 43.5q48 0 80 -24.5t32 -61.5q0 -21 -11.5 -33t-31.5 -12t-33 13.5t-17.5 30.5t-14.5 30.5t-27 13.5q-22 0 -37 -19t-15 -47q0 -29 19.5 -62t43.5 -59t43.5 -68t19.5 -87q0 -67 -53.5 -116t-122.5 -49q-59 0 -95 26t-36 68q0 28 13.5 45 t36.5 17q43 0 49 -59q3 -32 11 -42.5t30 -10.5q36 0 57 22t21 59q0 36 -20 71t-44 60t-44 63t-20 78zM51 -250l-22 26q65 36 65 78q-10 -8 -26 -8q-20 0 -32 13t-12 34q0 23 16.5 38t42.5 15q30 0 46.5 -20.5t16.5 -58.5q0 -66 -95 -117z" />
<glyph unicode="&#x21a;" horiz-adv-x="780" d="M525 610l-118 -442q-16 -60 -16 -70q0 -32 26 -45t89 -13l-12 -40h-348l11 40q64 0 94.5 22t50.5 96l122 456q9 36 9 60q0 54 -55 54q-170 0 -260 -171h-40l95 213h668l-20 -213h-38q0 93 -34.5 132t-106.5 39q-50 0 -74.5 -23.5t-42.5 -94.5zM276 -250l-22 26 q65 36 65 78q-10 -8 -26 -8q-20 0 -32 13t-12 34q0 23 16.5 38t42.5 15q30 0 46.5 -20.5t16.5 -58.5q0 -66 -95 -117z" />
<glyph unicode="&#x21b;" horiz-adv-x="365" d="M344 447h-109l-83 -275q-17 -54 -18 -82q0 -23 20 -23q31 0 71 40t60 74l29 -17q-35 -69 -98 -121.5t-112 -52.5q-35 0 -50.5 15.5t-15.5 49.5q0 42 31 147l74 245h-86l13 46h87l52 172h92l-52 -172h109zM40 -250l-22 26q65 36 65 78q-10 -8 -26 -8q-20 0 -32 13t-12 34 q0 23 16.5 38t42.5 15q30 0 46.5 -20.5t16.5 -58.5q0 -66 -95 -117z" />
<glyph unicode="&#x237;" horiz-adv-x="299" d="M11 -113l111 444q21 84 21 103q0 20 -15 20q-19 0 -46.5 -31t-39.5 -54l-29 18q26 51 85.5 102t107.5 51q50 0 50 -56q0 -44 -48 -217l-83 -301q-25 -90 -88 -158t-132 -68q-41 0 -68.5 22t-27.5 54q0 27 13 43t36 16q19 0 31 -11.5t16.5 -26t13.5 -26t21 -11.5 q24 0 42.5 23.5t28.5 63.5z" />
<glyph unicode="&#x259;" horiz-adv-x="457" d="M92 376l-32 21q87 143 214 143q68 0 105.5 -43t37.5 -120q0 -90 -48 -180.5t-123 -148.5t-149 -58q-48 0 -78.5 24.5t-30.5 62.5q0 70 96.5 142t230.5 102q4 25 4 55q0 109 -77 109q-37 0 -76.5 -29t-73.5 -80zM117 37q51 0 106.5 72.5t81.5 166.5q-97 -26 -160 -81.5 t-63 -115.5q0 -42 35 -42z" />
<glyph unicode="&#x2bc;" horiz-adv-x="194" d="M82 611h-29q2 24 3.5 55.5t2.5 49.5t3.5 39.5t6.5 33t11 22t18.5 15t27.5 4.5t25.5 -9.5t9.5 -25.5q0 -5 -2 -15q-3 -10 -16 -39t-32.5 -69.5t-28.5 -60.5z" />
<glyph unicode="&#x2c6;" horiz-adv-x="368" d="M156 780h90l84 -129h-45l-101 68l-137 -68h-45z" />
<glyph unicode="&#x2c7;" horiz-adv-x="368" d="M211 651h-90l-84 129h45l101 -68l137 68h45z" />
<glyph unicode="&#x2d8;" horiz-adv-x="316" d="M276 776h37q-19 -57 -68 -93.5t-105 -36.5q-49 0 -78 27t-29 71q0 17 4 32h36q1 -28 24.5 -44.5t60.5 -16.5q38 0 70 16.5t48 44.5z" />
<glyph unicode="&#x2d9;" horiz-adv-x="164" d="M20 743q0 26 18 44t44 18t44 -18t18 -44t-18 -44t-44 -18t-44 18t-18 44z" />
<glyph unicode="&#x2da;" horiz-adv-x="214" d="M16 718q0 43 34 77.5t79 34.5q31 0 49.5 -17t18.5 -45q0 -45 -35 -78.5t-80 -33.5q-30 0 -48 17t-18 45zM119 788q-23 0 -42 -17t-19 -41q0 -15 10 -24.5t27 -9.5q22 0 40.5 18t18.5 42q0 14 -9.5 23t-25.5 9z" />
<glyph unicode="&#x2db;" horiz-adv-x="265" d="M225 -121l29 -31q-63 -82 -157 -82q-46 0 -71.5 22.5t-25.5 62.5q0 47 39.5 89t109.5 70h53v-4q-54 -26 -88.5 -63t-34.5 -69q0 -20 15 -34t36 -14q40 0 95 53z" />
<glyph unicode="&#x2dc;" horiz-adv-x="381" d="M54 660h-34q8 50 37.5 82t67.5 32q31 0 86 -24q50 -22 73 -22q31 0 44 42h33q-5 -47 -32 -82q-27 -36 -67 -36q-22 0 -84 25q-61 23 -82 23q-30 0 -42 -40z" />
<glyph unicode="&#x2dd;" horiz-adv-x="473" d="M67 651h-47l130 119q36 33 67 33q17 0 27.5 -9.5t10.5 -25.5q0 -28 -51 -52zM265 651h-47l130 119q36 33 67 33q17 0 27.5 -9.5t10.5 -25.5q0 -28 -51 -52z" />
<glyph unicode="&#x3bc;" horiz-adv-x="640" d="M123 268q41 127 41 160q0 21 -11 21q-24 0 -93 -84l-26 14q32 64 90.5 112.5t102.5 48.5q23 0 36.5 -14.5t13.5 -40.5q0 -23 -10 -57.5t-56 -168.5q-35 -103 -35 -155q0 -42 27 -42q38 0 96 80t98 188l74 200h93l-74 -229q-58 -179 -58 -210q0 -26 17 -26q21 0 53.5 35.5 t51.5 80.5l30 -15q-30 -74 -83.5 -125t-101.5 -51q-28 0 -40 21t-12 70q0 25 5 57l-3 3q-32 -73 -71.5 -112t-79.5 -39q-46 0 -63 36l-3 -1l-34 -206q-13 -79 -67 -79q-45 0 -45 50q0 17 6 41q32 129 131 437z" />
<glyph unicode="&#x1e0c;" horiz-adv-x="836" d="M152 730l13 40h271q159 0 252 -77q109 -90 109 -246q0 -89 -38.5 -177t-100.5 -149q-122 -121 -337 -121h-350l11 40q66 0 90.5 21t44.5 97l115 442q1 2 7.5 23.5t10.5 38t4 26.5q0 42 -83 42h-19zM355 669l-118 -438q-25 -92 -25 -113q0 -74 100 -74q75 0 138 26t105 68 t71 97t42 111t13 111q0 125 -67.5 194t-185.5 69q-32 0 -48.5 -9.5t-24.5 -41.5zM229 -170q0 26 18 44t44 18t44 -18t18 -44t-18 -44t-44 -18t-44 18t-18 44z" />
<glyph unicode="&#x1e0d;" horiz-adv-x="598" d="M410 486l58 206q16 58 16 71q0 15 -20 21t-72 6l11 40h193l-111 -405q-72 -264 -72 -327q0 -41 25 -41q22 0 48 37t45 97l38 -9q-66 -192 -166 -192q-36 0 -55.5 23t-19.5 66q0 20 7 46l-8 2q-36 -64 -90 -100.5t-105 -36.5q-52 0 -86.5 43.5t-34.5 112.5q0 85 49 178 t123 154.5t141 61.5q33 0 50 -12t36 -42zM331 487q-50 0 -103 -59t-86.5 -142t-33.5 -152q0 -36 18 -57.5t48 -21.5q43 0 93 65t82 151.5t32 149.5q0 66 -50 66zM145 -168q0 26 18 44t44 18t44 -18t18 -44t-18 -44t-44 -18t-44 18t-18 44z" />
<glyph unicode="&#x1e24;" horiz-adv-x="911" d="M820 566l-105 -398q-12 -44 -12 -70q0 -33 21 -45.5t70 -12.5l-12 -40h-319l11 40q61 0 88.5 23t46.5 95l55 209h-388l-52 -199q-12 -44 -12 -70q0 -33 21 -45.5t70 -12.5l-12 -40h-319l11 40q61 0 88.5 23t46.5 95l117 442q15 56 15 82q0 30 -21 39t-78 9l11 40h325 l-11 -40q-66 0 -93 -30.5t-54 -133.5l-39 -148h388l48 182q15 56 15 82q0 30 -21 39t-78 9l11 40h325l-11 -40q-66 0 -93 -30.5t-54 -133.5zM315 -168q0 26 18 44t44 18t44 -18t18 -44t-18 -44t-44 -18t-44 18t-18 44z" />
<glyph unicode="&#x1e25;" horiz-adv-x="574" d="M356 311q32 95 32 134q0 23 -7.5 32.5t-25.5 9.5q-61 0 -121 -98.5t-134 -319.5l-23 -69h-84l198 678q15 55 15 74q0 20 -19 28.5t-70 9.5l7 40h204l-114 -386l3 -2q68 98 162 98q47 0 72.5 -28t25.5 -81q0 -67 -41 -178q-55 -153 -55 -165q0 -23 19 -23q44 0 109 89 l28 -21q-31 -58 -90.5 -100.5t-109.5 -42.5q-27 0 -39 15t-12 48q0 34 13.5 84t56.5 174zM72 -168q0 26 18 44t44 18t44 -18t18 -44t-18 -44t-44 -18t-44 18t-18 44z" />
<glyph unicode="&#x1e44;" horiz-adv-x="842" d="M620 0h-40l-262 602h-4l-114 -434q-6 -24 -6 -43q0 -41 25 -62.5t70 -22.5l-12 -40h-286l11 40q46 0 83.5 33.5t51.5 84.5l118 444q4 15 4 31q0 46 -39.5 71t-107.5 26l12 40h235l250 -573h4l106 405q5 22 5 37q0 42 -24 66t-60 25l12 40h256l-11 -40q-38 0 -69.5 -33 t-45.5 -85zM505 904q0 23 15.5 39t36.5 16q23 0 39 -16t16 -39q0 -21 -16 -36.5t-39 -15.5q-21 0 -36.5 15.5t-15.5 36.5z" />
<glyph unicode="&#x1e45;" horiz-adv-x="627" d="M425 488q-47 0 -116 -89t-110 -199l-74 -200h-88l74 229q63 196 63 229q0 27 -17 27q-22 0 -56 -50t-54 -111l-30 15q69 201 178 201q32 0 45.5 -18t13.5 -61q0 -51 -17 -91l3 -3q51 89 104 131t114 42q43 0 66.5 -21t23.5 -60q0 -43 -53 -197t-53 -179q0 -15 10 -15 q27 0 114 97l26 -14q-32 -59 -94 -110t-102 -51q-25 0 -39.5 22t-14.5 58q0 27 12.5 68.5t66.5 194.5q31 89 31 118q0 37 -27 37zM352 743q0 26 18 44t44 18t44 -18t18 -44t-18 -44t-44 -18t-44 18t-18 44z" />
<glyph unicode="&#x1e5a;" d="M280 375l-47 -168q-21 -76 -21 -102q0 -60 114 -60l-11 -45h-332l11 40q48 0 78.5 29t46.5 90l118 441q13 48 13 75q0 30 -22 42t-82 13l11 40h278q120 0 189 -45.5t69 -126.5q0 -80 -59 -135t-160 -76l74 -183q42 -103 72.5 -133.5t95.5 -30.5l-11 -40h-190l-147 375 h-88zM351 645l-58 -219h49q108 0 174 47t66 131q0 121 -145 121q-40 0 -56.5 -15.5t-29.5 -64.5zM275 -168q0 26 18 44t44 18t44 -18t18 -44t-18 -44t-44 -18t-44 18t-18 44z" />
<glyph unicode="&#x1e5b;" horiz-adv-x="463" d="M47 378l-26 13q23 50 83 99.5t100 49.5q46 0 46 -76q0 -30 -7 -66l3 -3q25 59 81.5 107t101.5 48q29 0 48.5 -18.5t19.5 -45.5q0 -26 -16.5 -43t-42.5 -17q-23 0 -41.5 18.5t-28.5 18.5q-38 0 -96 -94.5t-102 -230.5l-45 -138h-93l65 207q63 196 63 233q0 22 -15 22 q-20 0 -52.5 -28t-45.5 -56zM-25 -168q0 26 18 44t44 18t44 -18t18 -44t-18 -44t-44 -18t-44 18t-18 44z" />
<glyph unicode="&#x1e62;" horiz-adv-x="598" d="M538 713l20 42h30l-42 -197h-34q-3 90 -33 130.5t-94 40.5q-61 0 -101 -33t-40 -84q0 -33 20 -63.5t50.5 -53t66 -50t66 -54.5t50.5 -68t20 -89q0 -101 -74 -172.5t-180 -71.5q-109 0 -191 86l-21 -76h-35l42 254h33q7 -103 51.5 -157t121.5 -54q71 0 117.5 39.5 t46.5 99.5q0 46 -29 86t-70.5 71t-83 63t-70.5 75.5t-29 94.5q0 86 69 147t167 61q89 0 156 -67zM158 -168q0 26 18 44t44 18t44 -18t18 -44t-18 -44t-44 -18t-44 18t-18 44z" />
<glyph unicode="&#x1e63;" horiz-adv-x="381" d="M77 387q0 66 47 109.5t119 43.5q48 0 80 -24.5t32 -61.5q0 -21 -11.5 -33t-31.5 -12t-33 13.5t-17.5 30.5t-14.5 30.5t-27 13.5q-22 0 -37 -19t-15 -47q0 -29 19.5 -62t43.5 -59t43.5 -68t19.5 -87q0 -67 -53.5 -116t-122.5 -49q-59 0 -95 26t-36 68q0 28 13.5 45 t36.5 17q43 0 49 -59q3 -32 11 -42.5t30 -10.5q36 0 57 22t21 59q0 36 -20 71t-44 60t-44 63t-20 78zM46 -168q0 26 18 44t44 18t44 -18t18 -44t-18 -44t-44 -18t-44 18t-18 44z" />
<glyph unicode="&#x1e6c;" horiz-adv-x="780" d="M525 610l-118 -442q-16 -60 -16 -70q0 -32 26 -45t89 -13l-12 -40h-348l11 40q64 0 94.5 22t50.5 96l122 456q9 36 9 60q0 54 -55 54q-170 0 -260 -171h-40l95 213h668l-20 -213h-38q0 93 -34.5 132t-106.5 39q-50 0 -74.5 -23.5t-42.5 -94.5zM226 -168q0 26 18 44t44 18 t44 -18t18 -44t-18 -44t-44 -18t-44 18t-18 44z" />
<glyph unicode="&#x1e6d;" horiz-adv-x="365" d="M344 447h-109l-83 -275q-17 -54 -18 -82q0 -23 20 -23q31 0 71 40t60 74l29 -17q-35 -69 -98 -121.5t-112 -52.5q-35 0 -50.5 15.5t-15.5 49.5q0 42 31 147l74 245h-86l13 46h87l52 172h92l-52 -172h109zM2 -168q0 26 18 44t44 18t44 -18t18 -44t-18 -44t-44 -18t-44 18 t-18 44z" />
<glyph unicode="&#x1e80;" horiz-adv-x="1064" d="M588 152l308 394q59 76 82.5 110.5t23.5 50.5q0 14 -14.5 18.5t-48.5 4.5l10 40h259l-10 -40q-50 0 -105 -41t-138 -150l-421 -549h-84l108 477l-366 -477h-84l139 614q12 52 12 77q0 29 -19 39t-74 10l10 40h276l-10 -40q-43 0 -62 -24t-37 -103l-101 -451h4l339 435 l4 17q12 52 12 77q0 29 -17 39t-66 10l10 40h286l-10 -40q-59 0 -80 -22.5t-39 -104.5l-101 -451h4zM774 850h-60l-113 28q-63 15 -63 41q0 18 15 29.5t33 11.5q32 0 78 -33z" />
<glyph unicode="&#x1e81;" horiz-adv-x="850" d="M407 97q-91 -107 -192 -107q-55 0 -86 35.5t-31 99.5q0 125 129 299l-2 3q-25 0 -45 8t-30.5 18t-21.5 18t-21 8q-16 0 -16 -17q0 -12 17.5 -30.5t17.5 -35.5q0 -18 -14 -29.5t-36 -11.5q-25 0 -39.5 16t-14.5 45q0 49 37 86.5t86 37.5q29 0 61 -21.5t50 -21.5 q15 0 30 15q26 28 47 28t21 -20q0 -7 -6.5 -15.5t-34.5 -41.5q-56 -66 -88 -146.5t-32 -148.5q0 -49 16 -76.5t45 -27.5q55 0 140 101q-5 47 -5 83q0 109 45 200.5t99 91.5q24 0 40.5 -21t16.5 -62q0 -113 -113 -274q9 -47 33.5 -77.5t53.5 -30.5q55 0 110 92.5t55 186.5 q0 33 -11.5 71.5t-11.5 57.5q0 57 52 57q31 0 44.5 -23.5t13.5 -76.5q0 -104 -43.5 -210t-112 -173t-135.5 -67q-86 0 -118 107zM463 247q59 96 59 173q0 38 -15 38q-20 0 -34.5 -48t-14.5 -114q0 -30 5 -49zM644 651h-47l-119 65q-39 21 -39 44q0 19 15 31t34 12 q31 0 58 -33z" />
<glyph unicode="&#x1e82;" horiz-adv-x="1064" d="M588 152l308 394q59 76 82.5 110.5t23.5 50.5q0 14 -14.5 18.5t-48.5 4.5l10 40h259l-10 -40q-50 0 -105 -41t-138 -150l-421 -549h-84l108 477l-366 -477h-84l139 614q12 52 12 77q0 29 -19 39t-74 10l10 40h276l-10 -40q-43 0 -62 -24t-37 -103l-101 -451h4l339 435 l4 17q12 52 12 77q0 29 -17 39t-66 10l10 40h286l-10 -40q-59 0 -80 -22.5t-39 -104.5l-101 -451h4zM628 850h-60l150 77q64 33 96 33q30 0 30 -25q0 -38 -89 -57z" />
<glyph unicode="&#x1e83;" horiz-adv-x="850" d="M407 97q-91 -107 -192 -107q-55 0 -86 35.5t-31 99.5q0 125 129 299l-2 3q-25 0 -45 8t-30.5 18t-21.5 18t-21 8q-16 0 -16 -17q0 -12 17.5 -30.5t17.5 -35.5q0 -18 -14 -29.5t-36 -11.5q-25 0 -39.5 16t-14.5 45q0 49 37 86.5t86 37.5q29 0 61 -21.5t50 -21.5 q15 0 30 15q26 28 47 28t21 -20q0 -7 -6.5 -15.5t-34.5 -41.5q-56 -66 -88 -146.5t-32 -148.5q0 -49 16 -76.5t45 -27.5q55 0 140 101q-5 47 -5 83q0 109 45 200.5t99 91.5q24 0 40.5 -21t16.5 -62q0 -113 -113 -274q9 -47 33.5 -77.5t53.5 -30.5q55 0 110 92.5t55 186.5 q0 33 -11.5 71.5t-11.5 57.5q0 57 52 57q31 0 44.5 -23.5t13.5 -76.5q0 -104 -43.5 -210t-112 -173t-135.5 -67q-86 0 -118 107zM463 247q59 96 59 173q0 38 -15 38q-20 0 -34.5 -48t-14.5 -114q0 -30 5 -49zM522 651h-47l130 119q36 33 67 33q17 0 27.5 -9.5t10.5 -25.5 q0 -28 -51 -52z" />
<glyph unicode="&#x1e84;" horiz-adv-x="1064" d="M588 152l308 394q59 76 82.5 110.5t23.5 50.5q0 14 -14.5 18.5t-48.5 4.5l10 40h259l-10 -40q-50 0 -105 -41t-138 -150l-421 -549h-84l108 477l-366 -477h-84l139 614q12 52 12 77q0 29 -19 39t-74 10l10 40h276l-10 -40q-43 0 -62 -24t-37 -103l-101 -451h4l339 435 l4 17q12 52 12 77q0 29 -17 39t-66 10l10 40h286l-10 -40q-59 0 -80 -22.5t-39 -104.5l-101 -451h4zM542 910q5 21 23.5 35.5t39.5 14.5q18 0 29 -10.5t11 -26.5q0 -26 -21 -45t-46 -19q-17 0 -27.5 10t-10.5 26q0 10 2 15zM724 910q5 21 23.5 35.5t40.5 14.5q17 0 28 -10.5 t11 -26.5q0 -25 -21 -44.5t-45 -19.5q-18 0 -28.5 10t-10.5 26q0 10 2 15z" />
<glyph unicode="&#x1e85;" horiz-adv-x="850" d="M407 97q-91 -107 -192 -107q-55 0 -86 35.5t-31 99.5q0 125 129 299l-2 3q-25 0 -45 8t-30.5 18t-21.5 18t-21 8q-16 0 -16 -17q0 -12 17.5 -30.5t17.5 -35.5q0 -18 -14 -29.5t-36 -11.5q-25 0 -39.5 16t-14.5 45q0 49 37 86.5t86 37.5q29 0 61 -21.5t50 -21.5 q15 0 30 15q26 28 47 28t21 -20q0 -7 -6.5 -15.5t-34.5 -41.5q-56 -66 -88 -146.5t-32 -148.5q0 -49 16 -76.5t45 -27.5q55 0 140 101q-5 47 -5 83q0 109 45 200.5t99 91.5q24 0 40.5 -21t16.5 -62q0 -113 -113 -274q9 -47 33.5 -77.5t53.5 -30.5q55 0 110 92.5t55 186.5 q0 33 -11.5 71.5t-11.5 57.5q0 57 52 57q31 0 44.5 -23.5t13.5 -76.5q0 -104 -43.5 -210t-112 -173t-135.5 -67q-86 0 -118 107zM463 247q59 96 59 173q0 38 -15 38q-20 0 -34.5 -48t-14.5 -114q0 -30 5 -49zM424 709q6 25 27 41.5t46 16.5q21 0 33 -12t12 -31 q0 -29 -23.5 -51t-52.5 -22q-20 0 -32 11.5t-12 30.5q0 10 2 16zM591 709q6 25 27 41.5t46 16.5q21 0 33 -12t12 -31q0 -29 -23.5 -51t-52.5 -22q-20 0 -32 11.5t-12 30.5q0 10 2 16z" />
<glyph unicode="&#x1e92;" horiz-adv-x="672" d="M696 751l-538 -701h125q203 0 282 171h43l-84 -221h-531v21l543 701h-101q-83 0 -128.5 -12t-79.5 -42.5t-74 -95.5h-43l101 198h485v-19zM167 -168q0 26 18 44t44 18t44 -18t18 -44t-18 -44t-44 -18t-44 18t-18 44z" />
<glyph unicode="&#x1e93;" horiz-adv-x="519" d="M424 408l-264 -253l2 -3q29 0 93 -33.5t95 -33.5q29 0 50.5 19t38.5 65l34 -13q-20 -74 -69.5 -120t-107.5 -46q-31 0 -60 14t-47 31.5t-40.5 31.5t-41.5 14t-28.5 -12.5t-12 -28t-13 -28t-29.5 -12.5q-33 0 -33 30q0 18 14.5 37t51.5 55l276 267l-2 3q-26 0 -88.5 42 t-91.5 42q-36 0 -36 -31q0 -17 25.5 -34.5t25.5 -42.5q0 -46 -49 -46q-31 0 -49 20.5t-18 56.5q0 59 45.5 100t112.5 41q34 0 62 -12t44 -27t34 -27t34 -12q15 0 25.5 10.5t15 23.5t14 23.5t24.5 10.5q29 0 29 -31q0 -17 -11 -33t-55 -58zM88 -168q0 26 18 44t44 18t44 -18 t18 -44t-18 -44t-44 -18t-44 18t-18 44z" />
<glyph unicode="&#x1eb8;" horiz-adv-x="740" d="M-26 0l11 40q65 0 90 22.5t44 95.5l116 441q14 53 14 78q0 32 -22 42.5t-78 10.5l11 40h546v-202h-38q-24 91 -62.5 124.5t-105.5 33.5h-130l-78 -297h63q53 0 80 22.5t59 91.5h37l-60 -296h-40q3 30 3 52q0 46 -17.5 66t-62.5 20h-75l-57 -215q-9 -33 -9 -56 q0 -37 33 -54t109 -17q113 0 172 37t101 131h47l-78 -211h-623zM240 -168q0 26 18 44t44 18t44 -18t18 -44t-18 -44t-44 -18t-44 18t-18 44z" />
<glyph unicode="&#x1eb9;" horiz-adv-x="456" d="M339 154l32 -21q-87 -143 -214 -143q-68 0 -105.5 43t-37.5 120q0 90 48 180.5t123 148.5t149 58q48 0 78.5 -24.5t30.5 -62.5q0 -70 -96.5 -142t-230.5 -102q-4 -25 -4 -55q0 -109 77 -109q37 0 76.5 29t73.5 80zM314 493q-51 0 -106.5 -72.5t-81.5 -166.5 q97 26 160 81.5t63 115.5q0 42 -35 42zM57 -168q0 26 18 44t44 18t44 -18t18 -44t-18 -44t-44 -18t-44 18t-18 44z" />
<glyph unicode="&#x1ebc;" horiz-adv-x="740" d="M-26 0l11 40q65 0 90 22.5t44 95.5l116 441q14 53 14 78q0 32 -22 42.5t-78 10.5l11 40h546v-202h-38q-24 91 -62.5 124.5t-105.5 33.5h-130l-78 -297h63q53 0 80 22.5t59 91.5h37l-60 -296h-40q3 30 3 52q0 46 -17.5 66t-62.5 20h-75l-57 -215q-9 -33 -9 -56 q0 -37 33 -54t109 -17q113 0 172 37t101 131h47l-78 -211h-623zM358 846h-34q8 50 37.5 82t67.5 32q31 0 84 -23t75 -23q31 0 44 42h33q-6 -47 -33.5 -82.5t-65.5 -35.5q-31 0 -88.5 24t-77.5 24q-30 0 -42 -40z" />
<glyph unicode="&#x1ebd;" horiz-adv-x="456" d="M339 154l32 -21q-87 -143 -214 -143q-68 0 -105.5 43t-37.5 120q0 90 48 180.5t123 148.5t149 58q48 0 78.5 -24.5t30.5 -62.5q0 -70 -96.5 -142t-230.5 -102q-4 -25 -4 -55q0 -109 77 -109q37 0 76.5 29t73.5 80zM314 493q-51 0 -106.5 -72.5t-81.5 -166.5 q97 26 160 81.5t63 115.5q0 42 -35 42zM223 660h-34q8 50 37.5 82t67.5 32q31 0 86 -24q50 -22 73 -22q31 0 44 42h33q-5 -47 -32 -82q-27 -36 -67 -36q-22 0 -84 25q-61 23 -82 23q-30 0 -42 -40z" />
<glyph unicode="&#x1eca;" horiz-adv-x="420" d="M329 566l-105 -398q-12 -44 -12 -70q0 -33 21 -45.5t70 -12.5l-12 -40h-319l11 40q61 0 88.5 23t46.5 95l117 442q15 56 15 82q0 30 -21 39t-78 9l11 40h325l-11 -40q-66 0 -93 -30.5t-54 -133.5zM39 -168q0 26 18 44t44 18t44 -18t18 -44t-18 -44t-44 -18t-44 18t-18 44 z" />
<glyph unicode="&#x1ecb;" horiz-adv-x="344" d="M86 202l45 128q26 71 26 101q0 23 -14 23q-19 0 -47 -31.5t-40 -53.5l-29 18q26 51 85.5 102t107.5 51q26 0 38 -15.5t12 -51.5q0 -8 -1.5 -17.5t-5 -22.5t-6.5 -24t-9.5 -29.5t-11.5 -31.5t-14 -38t-15 -41l-37 -101q-21 -59 -21 -78q0 -23 21 -23q25 0 57 36t50 68 l30 -17q-29 -60 -84.5 -112t-115.5 -52q-58 0 -58 65q0 42 37 147zM278 704q-25 0 -43.5 17.5t-18.5 43.5q0 27 18 46t44 19q27 0 45.5 -19t18.5 -45t-19 -44t-45 -18zM45 -168q0 26 18 44t44 18t44 -18t18 -44t-18 -44t-44 -18t-44 18t-18 44z" />
<glyph unicode="&#x1ecc;" horiz-adv-x="820" d="M505 780q128 0 203.5 -84.5t75.5 -226.5q0 -126 -59 -237t-158 -176.5t-211 -65.5q-128 0 -205 85.5t-77 227.5q0 125 59.5 235.5t159 176t212.5 65.5zM505 728q-130 0 -220 -124t-90 -304q0 -126 44.5 -191t130.5 -65q126 0 209.5 128t83.5 324q0 119 -38.5 175.5 t-119.5 56.5zM262 -168q0 26 18 44t44 18t44 -18t18 -44t-18 -44t-44 -18t-44 18t-18 44z" />
<glyph unicode="&#x1ecd;" horiz-adv-x="523" d="M187 -10q-70 0 -116.5 54.5t-46.5 146.5q0 131 89 240t198 109q73 0 119 -53t46 -139q0 -83 -41.5 -166.5t-109.5 -137.5t-138 -54zM193 40q43 0 87.5 58.5t72 142.5t27.5 159q0 93 -69 93q-43 0 -86 -57t-69.5 -139t-26.5 -155q0 -102 64 -102zM87 -168q0 26 18 44 t44 18t44 -18t18 -44t-18 -44t-44 -18t-44 18t-18 44z" />
<glyph unicode="&#x1ee4;" horiz-adv-x="808" d="M134 353l66 246q13 50 13 77q0 30 -21 42t-73 12l13 40h319l-11 -40q-71 0 -95.5 -28t-52.5 -137l-65 -251q-13 -49 -13 -94q0 -81 41.5 -127.5t119.5 -46.5q93 0 151.5 64.5t95.5 179.5q29 90 54.5 216t25.5 164q0 55 -102 60l12 40h263l-12 -40q-50 0 -70.5 -25 t-39.5 -113l-43 -200q-87 -402 -343 -402q-125 0 -189 59t-64 170q0 59 20 134zM283 -168q0 26 18 44t44 18t44 -18t18 -44t-18 -44t-44 -18t-44 18t-18 44z" />
<glyph unicode="&#x1ee5;" horiz-adv-x="593" d="M169 62q34 0 98.5 84t101.5 184l74 200h93l-74 -229q-58 -181 -58 -210q0 -26 18 -26q20 0 52.5 35.5t51.5 80.5l30 -15q-28 -69 -81 -122.5t-103 -53.5q-29 0 -41 21t-12 64q0 40 7 75l-3 3q-91 -163 -194 -163q-84 0 -84 90q0 63 50 188q65 161 65 183q0 11 -9 11 q-24 0 -104 -97l-26 14q32 61 89 111t104 50q50 0 50 -58q0 -49 -70 -223q-46 -115 -46 -159q0 -38 21 -38zM100 -168q0 26 18 44t44 18t44 -18t18 -44t-18 -44t-44 -18t-44 18t-18 44z" />
<glyph unicode="&#x1ef2;" horiz-adv-x="689" d="M440 348l-47 -180q-12 -43 -12 -70q0 -33 23 -45.5t78 -12.5l-12 -40h-339l11 40q67 0 96.5 23t48.5 95l46 178l-120 288q-29 70 -50.5 88t-72.5 18l11 40h281l-11 -40q-38 0 -54.5 -8t-16.5 -27q0 -17 8 -36l107 -258l139 203q25 36 33 51t8 32q0 43 -74 43l11 40h247 l-11 -40q-39 0 -58 -14.5t-56 -66.5zM571 850h-60l-113 28q-63 15 -63 41q0 18 15 29.5t33 11.5q31 0 78 -33z" />
<glyph unicode="&#x1ef3;" horiz-adv-x="515" d="M215 11l-54 281q-28 145 -67 145q-36 0 -66 -119l-37 10q21 93 62.5 152.5t85.5 59.5q19 0 32.5 -14.5t27.5 -51.5q26 -69 55 -205l34 -161h4q43 54 76.5 124.5t33.5 126.5q0 14 -3.5 57t-3.5 54q0 34 17 52t39 18q24 0 37 -21t13 -52q0 -80 -79 -241t-181 -292 q-150 -194 -261 -194q-41 0 -66 22.5t-25 56.5q0 25 14 40.5t37 15.5q18 0 29.5 -11.5t15.5 -26t12.5 -26t20.5 -11.5q38 0 106.5 73.5t90.5 137.5zM398 651h-47l-119 65q-39 21 -39 44q0 19 15 31t34 12q31 0 58 -33z" />
<glyph unicode="&#x1ef8;" horiz-adv-x="689" d="M440 348l-47 -180q-12 -43 -12 -70q0 -33 23 -45.5t78 -12.5l-12 -40h-339l11 40q67 0 96.5 23t48.5 95l46 178l-120 288q-29 70 -50.5 88t-72.5 18l11 40h281l-11 -40q-38 0 -54.5 -8t-16.5 -27q0 -17 8 -36l107 -258l139 203q25 36 33 51t8 32q0 43 -74 43l11 40h247 l-11 -40q-39 0 -58 -14.5t-56 -66.5zM343 846h-34q8 50 37.5 82t67.5 32q32 0 84 -23t75 -23q31 0 44 42h33q-6 -47 -33.5 -82.5t-65.5 -35.5q-31 0 -88.5 24t-77.5 24q-30 0 -42 -40z" />
<glyph unicode="&#x1ef9;" horiz-adv-x="515" d="M215 11l-54 281q-16 83 -30 114t-37 31q-36 0 -66 -119l-37 10q21 93 62.5 152.5t85.5 59.5q19 0 32.5 -14.5t27.5 -51.5q26 -69 55 -205l34 -161h4q43 54 76.5 124.5t33.5 126.5q0 14 -3.5 57t-3.5 54q0 34 17 52t39 18q24 0 37 -21t13 -52q0 -80 -79 -241t-181 -292 q-150 -194 -261 -194q-41 0 -66 22.5t-25 56.5q0 25 14 40.5t37 15.5q18 0 29.5 -11.5t15.5 -26t12.5 -26t20.5 -11.5q38 0 106.5 73.5t90.5 137.5zM189 660h-34q8 50 37.5 82t67.5 32q31 0 86 -24q50 -22 73 -22q31 0 44 42h33q-5 -47 -32 -82q-27 -36 -67 -36 q-22 0 -84 25q-61 23 -82 23q-30 0 -42 -40z" />
<glyph unicode="&#x2013;" horiz-adv-x="726" d="M630 248h-570l23 83h570z" />
<glyph unicode="&#x2014;" horiz-adv-x="1114" d="M1018 248h-958l23 83h958z" />
<glyph unicode="&#x2018;" horiz-adv-x="251" d="M309 830l16 -27q-102 -63 -122 -136q14 8 32 8q19 0 29.5 -10.5t10.5 -28.5q0 -32 -26 -54.5t-61 -22.5q-52 0 -52 53q0 63 39.5 111.5t133.5 106.5z" />
<glyph unicode="&#x2019;" horiz-adv-x="249" d="M145 559l-16 27q102 63 122 136q-14 -8 -32 -8q-40 0 -40 39q0 32 26 54.5t61 22.5q52 0 52 -53q0 -64 -39.5 -112t-133.5 -106z" />
<glyph unicode="&#x201a;" horiz-adv-x="260" d="M-42 -165l-16 27q102 63 122 136q-14 -8 -32 -8q-40 0 -40 39q0 32 26 54.5t61 22.5q52 0 52 -53q0 -64 -39.5 -112t-133.5 -106z" />
<glyph unicode="&#x201c;" horiz-adv-x="443" d="M501 830l16 -27q-102 -63 -122 -136q14 8 32 8q19 0 29.5 -10.5t10.5 -28.5q0 -32 -26 -54.5t-61 -22.5q-52 0 -52 53q0 63 39.5 111.5t133.5 106.5zM309 830l16 -27q-102 -63 -122 -136q14 8 32 8q19 0 29.5 -10.5t10.5 -28.5q0 -32 -26 -54.5t-61 -22.5q-52 0 -52 53 q0 63 39.5 111.5t133.5 106.5z" />
<glyph unicode="&#x201d;" horiz-adv-x="441" d="M145 559l-16 27q102 63 122 136q-14 -8 -32 -8q-40 0 -40 39q0 32 26 54.5t61 22.5q52 0 52 -53q0 -64 -39.5 -112t-133.5 -106zM337 559l-16 27q102 63 122 136q-14 -8 -32 -8q-40 0 -40 39q0 32 26 54.5t61 22.5q52 0 52 -53q0 -64 -39.5 -112t-133.5 -106z" />
<glyph unicode="&#x201e;" horiz-adv-x="452" d="M-42 -165l-16 27q102 63 122 136q-14 -8 -32 -8q-40 0 -40 39q0 32 26 54.5t61 22.5q52 0 52 -53q0 -64 -39.5 -112t-133.5 -106zM150 -165l-16 27q102 63 122 136q-14 -8 -32 -8q-40 0 -40 39q0 32 26 54.5t61 22.5q52 0 52 -53q0 -64 -39.5 -112t-133.5 -106z" />
<glyph unicode="&#x2020;" horiz-adv-x="560" d="M128 429q-22 0 -35 13t-13 33q0 31 25.5 54.5t55.5 23.5q19 0 61.5 -18.5t91.5 -22.5q13 56 13 100q0 16 -2 39t-2 32q0 39 23.5 68t60.5 29q21 0 34 -12.5t13 -32.5q0 -26 -15.5 -53t-41 -71.5t-42.5 -98.5q49 5 101.5 23t72.5 18q21 0 34 -12.5t13 -32.5q0 -31 -25 -55 t-55 -24q-20 0 -63 18t-89 22q-19 -70 -19 -117q0 -44 18 -91q-43 -81 -102 -238.5t-93 -282.5h-40q34 125 59.5 282.5t25.5 238.5q40 43 65.5 89.5t45.5 118.5q-51 -4 -103.5 -22t-72.5 -18z" />
<glyph unicode="&#x2021;" horiz-adv-x="595" d="M363 261q-41 -44 -66.5 -91t-45.5 -119q50 4 102 22t72 18q22 0 35 -13t13 -33q0 -31 -25.5 -54.5t-55.5 -23.5q-20 0 -62.5 18t-89.5 23q-12 -52 -12 -99q0 -16 1.5 -39.5t1.5 -32.5q0 -40 -23.5 -68.5t-59.5 -28.5q-22 0 -35 12t-13 32q0 27 16 54.5t41.5 71.5t41.5 98 q-51 -4 -103.5 -22.5t-71.5 -18.5q-21 0 -34 12t-13 32q0 32 24.5 56t55.5 24q20 0 63 -18t91 -22q19 72 19 119q0 42 -17 91q40 43 65.5 89.5t45.5 118.5q-51 -4 -103.5 -22t-72.5 -18q-22 0 -35 13t-13 33q0 31 25.5 54.5t55.5 23.5q19 0 61.5 -18.5t91.5 -22.5 q13 56 13 100q0 16 -2 39t-2 32q0 39 23.5 68t60.5 29q21 0 34 -12.5t13 -32.5q0 -26 -15.5 -53t-41 -71.5t-42.5 -98.5q49 5 101.5 23t72.5 18q21 0 34 -12.5t13 -32.5q0 -31 -25 -55t-55 -24q-20 0 -63 18t-89 22q-19 -70 -19 -117q0 -44 18 -91z" />
<glyph unicode="&#x2022;" horiz-adv-x="485" d="M250 216q-61 0 -106 45t-45 108t46 107.5t110 44.5q62 0 107 -44.5t45 -107.5q0 -64 -46 -108.5t-111 -44.5z" />
<glyph unicode="&#x2026;" horiz-adv-x="722" d="M68 -10q-28 0 -48.5 19.5t-20.5 48.5q0 30 20 51t49 21q30 0 50.5 -21t20.5 -50t-21 -49t-50 -20zM298 -10q-28 0 -48.5 19.5t-20.5 48.5q0 30 20 51t49 21q30 0 50.5 -21t20.5 -50t-21 -49t-50 -20zM528 -10q-28 0 -48.5 19.5t-20.5 48.5q0 30 20 51t49 21 q30 0 50.5 -21t20.5 -50t-21 -49t-50 -20z" />
<glyph unicode="&#x2030;" horiz-adv-x="988" d="M694 770l-614 -770h-67l623 770h58zM207 465q-38 0 -62 29.5t-24 77.5q0 77 49.5 143t107.5 66q39 0 63 -28t24 -74q0 -76 -51 -145t-107 -69zM274 755q-35 0 -67 -68t-32 -141q0 -55 38 -55q34 0 65.5 68.5t31.5 143.5q0 52 -36 52zM449 -10q-38 0 -62 29.5t-24 77.5 q0 77 49.5 143t107.5 66q39 0 63 -28t24 -74q0 -76 -51 -145t-107 -69zM516 280q-35 0 -67 -68t-32 -141q0 -55 38 -55q34 0 65.5 68.5t31.5 143.5q0 52 -36 52zM757 -10q-38 0 -62 29.5t-24 77.5q0 77 49.5 143t107.5 66q39 0 63 -28t24 -74q0 -76 -51 -145t-107 -69z M824 280q-35 0 -67 -68t-32 -141q0 -55 38 -55q34 0 65.5 68.5t31.5 143.5q0 52 -36 52z" />
<glyph unicode="&#x2039;" horiz-adv-x="307" d="M157 104l-128 158l213 159l14 -21l-136 -138l61 -138z" />
<glyph unicode="&#x203a;" horiz-adv-x="307" d="M250 262l-212 -158l-14 20l135 138l-62 138l26 21z" />
<glyph unicode="&#x2044;" horiz-adv-x="40" d="M380 770l-614 -770h-67l623 770h58z" />
<glyph unicode="&#x2070;" horiz-adv-x="307" d="M201 465q-38 0 -62 29.5t-24 77.5q0 77 49.5 143t107.5 66q39 0 63 -28t24 -74q0 -76 -51 -145t-107 -69zM268 755q-35 0 -67 -68t-32 -141q0 -55 38 -55q34 0 65.5 68.5t31.5 143.5q0 52 -36 52z" />
<glyph unicode="&#x2074;" horiz-adv-x="260" d="M306 780l-44 -174h49l-6 -24h-49l-33 -114h-42l29 114h-118l5 20l186 178h23zM134 606h83l29 105l-3 1z" />
<glyph unicode="&#x2075;" horiz-adv-x="286" d="M225 665q43 0 71 -25.5t28 -64.5q0 -46 -38.5 -78.5t-93.5 -32.5q-39 0 -63 17.5t-24 46.5q0 22 14 38t33 16q22 0 26 -18q-13 0 -21.5 -11t-8.5 -27q0 -17 12.5 -26.5t34.5 -9.5q33 0 55 25.5t22 64.5q0 60 -61 60q-23 0 -41.5 -12t-19.5 -12q-6 0 -6 7q0 2 4 14l50 143 q21 -7 67 -7q44 0 66 8l3 -1q-17 -49 -70 -49q-25 0 -55 7l-27 -77l3 -2q14 6 40 6z" />
<glyph unicode="&#x2076;" horiz-adv-x="291" d="M321 580q0 -46 -34.5 -81t-80.5 -35q-41 0 -65.5 30t-24.5 82q0 79 50 141.5t114 62.5q29 0 48 -12t19 -31q0 -12 -7.5 -20t-19.5 -8q-19 0 -19 22q0 14 -4.5 20t-16.5 6q-32 0 -61.5 -30.5t-42.5 -78.5l3 -1q25 16 53 16q40 0 64.5 -23t24.5 -60zM225 639 q-29 0 -46.5 -23.5t-17.5 -61.5q0 -67 43 -67q27 0 45.5 26t18.5 64q0 62 -43 62z" />
<glyph unicode="&#x2077;" horiz-adv-x="245" d="M286 729h-70q-26 0 -38.5 -4t-20.5 -20l-8 -16h-22l37 95h17q0 -1 -0.5 -1.5t-0.5 -1.5q0 -11 30 -11h121l-1 -13q-63 -99 -142 -241q-32 -58 -56 -58q-21 0 -21 19q0 12 62 97z" />
<glyph unicode="&#x2078;" horiz-adv-x="296" d="M266 640q51 -31 51 -83q0 -41 -32.5 -67t-83.5 -26q-44 0 -69 20.5t-25 56.5q0 65 84 89q-43 29 -43 69q0 34 31 57.5t73 23.5q37 0 62 -18.5t25 -45.5t-21 -49t-52 -27zM232 608l-21 13q-58 -24 -58 -78q0 -53 51 -53q29 0 48 15.5t19 39.5q0 39 -39 63zM230 658l16 -10 q50 25 50 61q0 20 -12.5 32.5t-34.5 12.5q-23 0 -38.5 -12t-15.5 -30q0 -30 35 -54z" />
<glyph unicode="&#x2079;" horiz-adv-x="292" d="M136 664q0 46 34.5 81t80.5 35q41 0 65.5 -30t24.5 -82q0 -79 -50 -141.5t-114 -62.5q-29 0 -48 12t-19 31q0 12 7.5 20t19.5 8q15 0 19 -24t21 -24q32 0 61.5 30.5t42.5 78.5l-3 1q-25 -16 -53 -16q-40 0 -64.5 23t-24.5 60zM232 605q29 0 46.5 23.5t17.5 61.5 q0 67 -43 67q-27 0 -45.5 -26t-18.5 -64q0 -62 43 -62z" />
<glyph unicode="&#x2080;" horiz-adv-x="307" d="M74 -10q-38 0 -62 29.5t-24 77.5q0 77 49.5 143t107.5 66q39 0 63 -28t24 -74q0 -76 -51 -145t-107 -69zM141 280q-35 0 -67 -68t-32 -141q0 -55 38 -55q34 0 65.5 68.5t31.5 143.5q0 52 -36 52z" />
<glyph unicode="&#x2081;" horiz-adv-x="273" d="M162 312l-51 -200q-10 -37 -10 -56q0 -35 42 -35l-5 -21h-153l5 21q29 0 43.5 12t22.5 44l40 159q1 2 1 6q0 6 -6 6q-2 0 -21 -3.5t-37 -3.5l7 22q49 0 102 49h20z" />
<glyph unicode="&#x2082;" horiz-adv-x="283" d="M38 43v-4h72q19 0 30.5 6.5t22.5 23.5h19l-25 -69h-185l3 21q100 80 140.5 129t40.5 90q0 21 -12 33.5t-33 12.5q-23 0 -39.5 -14.5t-16.5 -34.5q0 -38 38 -38q-8 -22 -35 -22q-22 0 -35 13.5t-13 36.5q0 35 32 60.5t77 25.5q40 0 64.5 -20.5t24.5 -53.5 q0 -41 -39.5 -86.5t-130.5 -109.5z" />
<glyph unicode="&#x2083;" horiz-adv-x="287" d="M132 82q0 26 -13 44t-32 18q-5 0 -16 -1.5t-15 -1.5q-13 0 -13 8q0 11 16.5 16.5t37 7.5t37 17.5t16.5 45.5q0 45 -36 45q-21 0 -34.5 -10.5t-13.5 -26.5q0 -26 25 -26q-7 -15 -27 -15q-18 0 -28.5 10t-10.5 27q0 29 26 47.5t66 18.5q38 0 60 -17t22 -45t-21 -51.5 t-52 -30.5v-4q27 -7 42.5 -25.5t15.5 -44.5q0 -41 -36 -69.5t-88 -28.5q-39 0 -63.5 17t-24.5 45q0 23 16 39.5t38 16.5q24 0 28 -18q-15 0 -26 -12.5t-11 -29.5q0 -32 46 -32q31 0 50 18t19 48z" />
<glyph unicode="&#x2084;" horiz-adv-x="259" d="M180 312l-44 -174h49l-6 -24h-49l-33 -114h-42l29 114h-118l5 20l186 178h23zM8 138h83l29 105l-3 1z" />
<glyph unicode="&#x2085;" horiz-adv-x="285" d="M98 191q43 0 71 -25.5t28 -64.5q0 -46 -38.5 -78.5t-93.5 -32.5q-39 0 -63 17.5t-24 46.5q0 22 14 38t33 16q22 0 26 -18q-13 0 -21.5 -11t-8.5 -27q0 -17 12.5 -26.5t34.5 -9.5q33 0 55 25.5t22 64.5q0 60 -61 60q-23 0 -41.5 -12t-19.5 -12q-6 0 -6 7q0 4 8 25l46 132 q21 -7 67 -7q44 0 66 8l3 -1q-17 -49 -70 -49q-25 0 -55 7l-27 -77l3 -2q14 6 40 6z" />
<glyph unicode="&#x2086;" horiz-adv-x="293" d="M194 106q0 -46 -34.5 -81t-80.5 -35q-41 0 -65.5 30t-24.5 82q0 79 50 141.5t114 62.5q29 0 48 -12t19 -31q0 -12 -7.5 -20t-19.5 -8q-19 0 -19 22q0 14 -4.5 20t-16.5 6q-32 0 -61.5 -30.5t-42.5 -78.5l3 -1q25 16 53 16q40 0 64.5 -23t24.5 -60zM98 165 q-29 0 -46.5 -23.5t-17.5 -61.5q0 -67 43 -67q27 0 45.5 26t18.5 64q0 62 -43 62z" />
<glyph unicode="&#x2087;" horiz-adv-x="246" d="M161 261h-70q-27 0 -39 -4t-20 -20l-8 -16h-22l37 95h17q0 -1 -0.5 -1.5t-0.5 -1.5q0 -11 30 -11h121l-1 -13q-63 -99 -142 -241q-32 -58 -56 -58q-21 0 -21 19q0 12 62 97z" />
<glyph unicode="&#x2088;" horiz-adv-x="295" d="M139 166q51 -31 51 -83q0 -41 -32.5 -67t-83.5 -26q-44 0 -69 20.5t-25 56.5q0 65 84 89q-43 29 -43 69q0 34 31 57.5t73 23.5q37 0 62 -18.5t25 -45.5t-21 -49t-52 -27zM105 134l-21 13q-58 -24 -58 -78q0 -53 51 -53q29 0 48 15.5t19 39.5q0 35 -39 63zM103 184l16 -10 q50 25 50 61q0 20 -12.5 32.5t-34.5 12.5q-23 0 -38.5 -12t-15.5 -30q0 -30 35 -54z" />
<glyph unicode="&#x2089;" horiz-adv-x="293" d="M10 190q0 46 34.5 81t80.5 35q41 0 65.5 -30t24.5 -82q0 -79 -50 -141.5t-114 -62.5q-29 0 -48 12t-19 31q0 12 7.5 20t19.5 8q15 0 19 -24t21 -24q32 0 61.5 30.5t42.5 78.5l-3 1q-25 -16 -53 -16q-40 0 -64.5 23t-24.5 60zM106 131q29 0 46.5 23.5t17.5 61.5 q0 67 -43 67q-27 0 -45.5 -26t-18.5 -64q0 -62 43 -62z" />
<glyph unicode="&#x20ac;" horiz-adv-x="712" d="M368 43q64 0 112 36.5t48 87.5q0 38 -26 53q32 24 60 24q54 0 54 -71q0 -73 -81.5 -128t-186.5 -55q-107 0 -165.5 64.5t-58.5 182.5q0 29 4 63h-85l14 52h80q8 42 25 84h-83l12 52h90q59 134 160.5 213t213.5 79q76 0 122 -37.5t46 -99.5q0 -45 -26 -72t-69 -27 q-30 0 -41 21q24 7 39.5 31t15.5 55q0 37 -23.5 57.5t-67.5 20.5q-152 0 -245 -241h231l-13 -52h-234q-15 -41 -24 -84h235l-14 -52h-233q-16 -59 -16 -107q0 -71 34 -110.5t96 -39.5z" />
<glyph unicode="&#x2120;" horiz-adv-x="812" d="M589 544h4l98 226h100v-20q-26 -1 -33 -12.5t-7 -48.5v-146q0 -39 7.5 -49.5t36.5 -11.5v-20h-135v20q29 1 36.5 10.5t7.5 47.5v180h-4l-117 -262h-8l-113 262h-4v-177q0 -39 7.5 -49.5t36.5 -11.5v-20h-117v20q29 1 36.5 11t7.5 47v152q0 35 -7 46t-33 12v20h106z M153 472v90h18q6 -32 27 -52.5t58 -20.5q26 0 43 12.5t17 34.5q0 26 -24 43t-52 25.5t-52 31.5t-24 60q0 39 26.5 61.5t63.5 22.5q33 0 63 -24l11 18h11v-79h-17q-20 60 -67 60q-20 0 -34 -10t-14 -29q0 -25 24.5 -43t54.5 -28t54.5 -33t24.5 -58q0 -43 -33 -66.5t-77 -23.5 q-43 0 -77 28l-11 -20h-14z" />
<glyph unicode="&#x2122;" horiz-adv-x="939" d="M480 770l4 -76h-21q-3 31 -15.5 42.5t-43.5 11.5q-28 0 -36.5 -2.5t-8.5 -10.5v-204q0 -27 9.5 -37.5t42.5 -11.5v-20h-161v20q32 1 42 11.5t10 37.5v204q0 8 -7.5 10.5t-32.5 2.5q-32 0 -47.5 -9.5t-16.5 -44.5h-20v76h302zM708 544h4l98 226h100v-20q-26 -1 -33 -12.5 t-7 -48.5v-146q0 -39 7.5 -49.5t36.5 -11.5v-20h-135v20q29 1 36.5 10.5t7.5 47.5v180h-4l-117 -262h-8l-113 262h-4v-177q0 -39 7.5 -49.5t36.5 -11.5v-20h-117v20q29 1 36.5 11t7.5 47v152q0 35 -7 46t-33 12v20h106z" />
<glyph unicode="&#x2153;" horiz-adv-x="652" d="M669 770l-614 -770h-67l623 770h58zM287 780l-51 -200q-10 -40 -10 -56q0 -35 42 -35l-5 -21h-153l5 21q29 0 43.5 12t22.5 44l40 159q1 2 1 6q0 6 -6 6q-2 0 -21 -3.5t-37 -3.5l7 22q49 0 102 49h20zM499 82q0 26 -13 44t-32 18q-5 0 -16 -1.5t-15 -1.5q-13 0 -13 8 q0 11 16.5 16.5t37 7.5t37 17.5t16.5 45.5q0 45 -36 45q-21 0 -34.5 -10.5t-13.5 -26.5q0 -26 25 -26q-7 -15 -27 -15q-18 0 -28.5 10t-10.5 27q0 29 26 47.5t66 18.5q38 0 60 -17t22 -45t-21 -51.5t-52 -30.5v-4q27 -7 42.5 -25.5t15.5 -44.5q0 -41 -36 -69.5t-88 -28.5 q-39 0 -63.5 17t-24.5 45q0 23 16 39.5t38 16.5q24 0 28 -18q-15 0 -26 -12.5t-11 -29.5q0 -32 46 -32q31 0 50 18t19 48z" />
<glyph unicode="&#x2154;" horiz-adv-x="661" d="M678 770l-614 -770h-67l623 770h58zM180 511v-4h72q19 0 30.5 6.5t22.5 23.5h19l-25 -69h-185l3 21q100 80 140.5 129t40.5 90q0 21 -12 33.5t-33 12.5q-23 0 -39.5 -14.5t-16.5 -34.5q0 -38 38 -38q-8 -22 -35 -22q-22 0 -35 13.5t-13 36.5q0 35 32 60.5t77 25.5 q40 0 64.5 -20.5t24.5 -53.5q0 -41 -40 -87.5t-130 -108.5zM508 82q0 26 -13 44t-32 18q-5 0 -16 -1.5t-15 -1.5q-13 0 -13 8q0 11 16.5 16.5t37 7.5t37 17.5t16.5 45.5q0 45 -36 45q-21 0 -34.5 -10.5t-13.5 -26.5q0 -26 25 -26q-7 -15 -27 -15q-18 0 -28.5 10t-10.5 27 q0 29 26 47.5t66 18.5q38 0 60 -17t22 -45t-21 -51.5t-52 -30.5v-4q27 -7 42.5 -25.5t15.5 -44.5q0 -41 -36 -69.5t-88 -28.5q-39 0 -63.5 17t-24.5 45q0 23 16 39.5t38 16.5q24 0 28 -18q-15 0 -26 -12.5t-11 -29.5q0 -32 46 -32q31 0 50 18t19 48z" />
<glyph unicode="&#x215b;" horiz-adv-x="652" d="M669 770l-614 -770h-67l623 770h58zM287 780l-51 -200q-10 -40 -10 -56q0 -35 42 -35l-5 -21h-153l5 21q29 0 43.5 12t22.5 44l40 159q1 2 1 6q0 6 -6 6q-2 0 -21 -3.5t-37 -3.5l7 22q49 0 102 49h20zM497 166q51 -31 51 -83q0 -41 -32.5 -67t-83.5 -26q-44 0 -69 20.5 t-25 56.5q0 65 84 89q-43 29 -43 69q0 34 31 57.5t73 23.5q37 0 62 -18.5t25 -45.5t-21 -49t-52 -27zM463 134l-21 13q-58 -24 -58 -78q0 -53 51 -53q29 0 48 15.5t19 39.5q0 35 -39 63zM461 184l16 -10q50 25 50 61q0 20 -12.5 32.5t-34.5 12.5q-23 0 -38.5 -12t-15.5 -30 q0 -30 35 -54z" />
<glyph unicode="&#x215c;" horiz-adv-x="678" d="M695 770l-614 -770h-67l623 770h58zM523 166q51 -31 51 -83q0 -41 -32.5 -67t-83.5 -26q-44 0 -69 20.5t-25 56.5q0 65 84 89q-43 29 -43 69q0 34 31 57.5t73 23.5q37 0 62 -18.5t25 -45.5t-21 -49t-52 -27zM489 134l-21 13q-58 -24 -58 -78q0 -53 51 -53q29 0 48 15.5 t19 39.5q0 35 -39 63zM487 184l16 -10q50 25 50 61q0 20 -12.5 32.5t-34.5 12.5q-23 0 -38.5 -12t-15.5 -30q0 -30 35 -54zM267 556q0 26 -13 44t-32 18q-5 0 -16 -1.5t-15 -1.5q-13 0 -13 8q0 11 16.5 16.5t37 7.5t37 17.5t16.5 45.5q0 45 -36 45q-21 0 -34.5 -10.5 t-13.5 -26.5q0 -26 25 -26q-7 -15 -27 -15q-18 0 -28.5 10t-10.5 27q0 29 26 47.5t66 18.5q38 0 60 -17t22 -45t-21 -51.5t-52 -30.5v-4q27 -7 42.5 -25.5t15.5 -44.5q0 -41 -36 -69.5t-88 -28.5q-39 0 -63.5 17t-24.5 45q0 23 16 39.5t38 16.5q24 0 28 -18q-15 0 -26 -12.5 t-11 -29.5q0 -32 46 -32q31 0 50 18t19 48z" />
<glyph unicode="&#x215d;" horiz-adv-x="679" d="M696 770l-614 -770h-67l623 770h58zM524 166q51 -31 51 -83q0 -41 -32.5 -67t-83.5 -26q-44 0 -69 20.5t-25 56.5q0 65 84 89q-43 29 -43 69q0 34 31 57.5t73 23.5q37 0 62 -18.5t25 -45.5t-21 -49t-52 -27zM490 134l-21 13q-58 -24 -58 -78q0 -53 51 -53q29 0 48 15.5 t19 39.5q0 35 -39 63zM488 184l16 -10q50 25 50 61q0 20 -12.5 32.5t-34.5 12.5q-23 0 -38.5 -12t-15.5 -30q0 -30 35 -54zM226 665q43 0 71 -25.5t28 -64.5q0 -46 -38.5 -78.5t-93.5 -32.5q-39 0 -63 17.5t-24 46.5q0 22 14 38t33 16q22 0 26 -18q-13 0 -21.5 -11t-8.5 -27 q0 -17 12.5 -26.5t34.5 -9.5q33 0 55 25.5t22 64.5q0 60 -61 60q-23 0 -41.5 -12t-19.5 -12q-6 0 -6 7q0 2 4 14l50 143q21 -7 67 -7q44 0 66 8l3 -1q-17 -49 -70 -49q-25 0 -55 7l-27 -77l3 -2q14 6 40 6z" />
<glyph unicode="&#x215e;" horiz-adv-x="650" d="M667 770l-614 -770h-67l623 770h58zM495 166q51 -31 51 -83q0 -41 -32.5 -67t-83.5 -26q-44 0 -69 20.5t-25 56.5q0 65 84 89q-43 29 -43 69q0 34 31 57.5t73 23.5q37 0 62 -18.5t25 -45.5t-21 -49t-52 -27zM461 134l-21 13q-58 -24 -58 -78q0 -53 51 -53q29 0 48 15.5 t19 39.5q0 35 -39 63zM459 184l16 -10q50 25 50 61q0 20 -12.5 32.5t-34.5 12.5q-23 0 -38.5 -12t-15.5 -30q0 -30 35 -54zM310 729h-70q-27 0 -39 -4t-20 -20l-8 -16h-22l37 95h17q0 -1 -0.5 -1.5t-0.5 -1.5q0 -11 30 -11h121l-1 -13q-63 -99 -142 -241q-32 -58 -56 -58 q-21 0 -21 19q0 12 62 97z" />
<glyph unicode="&#x2212;" horiz-adv-x="657" d="M566 363v-50h-468v50h468z" />
<glyph unicode="&#x2215;" horiz-adv-x="464" d="M592 770l-614 -770h-67l623 770h58z" />
<glyph unicode="&#x2219;" horiz-adv-x="275" d="M61 274q0 28 19 47t46 19q28 0 47 -19t19 -47q0 -27 -19 -46t-47 -19q-27 0 -46 19t-19 46z" />
<glyph unicode="&#xe000;" horiz-adv-x="540" d="M0 540h540v-540h-540v540z" />
<glyph unicode="&#xf6c3;" horiz-adv-x="162" d="M47 -260l-22 26q65 36 65 78q-10 -8 -26 -8q-20 0 -32 13t-12 34q0 23 16.5 38t42.5 15q30 0 46.5 -20.5t16.5 -58.5q0 -66 -95 -117z" />
<glyph unicode="&#xfb06;" horiz-adv-x="721" d="M77 387q0 66 47 109.5t119 43.5h4q-27 40 -27 82q0 46 34.5 77t84.5 31q26 0 78 -16t76 -16q65 0 102 67l2 4h92l-84 -276h109l-14 -46h-109l-83 -275q-18 -59 -18 -82t21 -23q23 0 63.5 35.5t66.5 78.5l29 -17q-38 -74 -100.5 -124t-115.5 -50q-60 0 -60 65q0 43 31 147 l74 245h-86l13 46h87l57 188q-35 -33 -79 -33q-35 0 -81 15.5t-66 15.5q-34 0 -54 -21t-20 -56q0 -52 49 -83q36 -26 36 -65q0 -21 -11.5 -33t-31.5 -12t-33 13.5t-17.5 30.5t-14.5 30.5t-27 13.5q-22 0 -37 -19t-15 -47q0 -29 19.5 -62t43.5 -59t43.5 -68t19.5 -87 q0 -67 -53.5 -116t-122.5 -49q-59 0 -95 26t-36 68q0 28 13.5 45t36.5 17q43 0 49 -59q3 -32 11 -42.5t30 -10.5q36 0 57 22t21 59q0 36 -20 71t-44 60t-44 63t-20 78z" />
<glyph horiz-adv-x="162" d="M20 584l-15 26q74 36 86 78q-11 -8 -28 -8q-33 0 -33 31q0 29 22.5 49t52.5 20q46 0 46 -47q0 -88 -131 -149z" />
<glyph horiz-adv-x="164" d="M20 -168q0 26 18 44t44 18t44 -18t18 -44t-18 -44t-44 -18t-44 18t-18 44z" />
<glyph horiz-adv-x="728" d="M550 780l-3 -614q0 -57 5 -77q7 -29 29 -39t75 -10l-2 -40h-296l2 40q59 0 75 22.5t16 104.5v123h-223l-44 -66q-82 -123 -82 -146q0 -38 83 -38l-2 -40h-258l2 40q47 0 89 40.5t110 150.5l340 549h84zM258 340h191l13 333h-4z" />
<glyph horiz-adv-x="723" d="M308 116l268 430q57 92 69.5 114t12.5 31q0 21 -19 30t-60 9l2 40h258l-2 -40q-47 0 -89 -40.5t-110 -150.5l-340 -549h-84q0 135 1.5 370t1.5 248q0 80 -17.5 101t-91.5 21l2 40h296l-2 -40q-58 0 -73.5 -22.5t-17.5 -104.5q-7 -363 -9 -487h4z" />
<glyph horiz-adv-x="1028" d="M655 142l222 404q71 129 71 161q0 23 -69 23l2 40h259l-2 -40q-50 0 -95 -41t-105 -150l-302 -549h-81v477l-261 -477h-84q1 203 5 614q0 57 -5 77q-7 29 -28 39t-76 10l2 40h276l-2 -40q-43 0 -56.5 -23.5t-14.5 -103.5q-2 -306 -2 -459h4l244 435v25q0 57 -5 77 q-7 29 -26 39t-68 10l2 40h286l-2 -40q-58 0 -74 -22.5t-17 -104.5q-2 -308 -2 -461h4z" />
<glyph horiz-adv-x="165" d="M30 904q0 23 15.5 39t36.5 16q23 0 39 -16t16 -39q0 -21 -16 -36.5t-39 -15.5q-21 0 -36.5 15.5t-15.5 36.5z" />
<glyph horiz-adv-x="323" d="M20 910q5 21 23.5 35.5t39.5 14.5q18 0 29 -10.5t11 -26.5q0 -26 -21 -45t-46 -19q-17 0 -27.5 10t-10.5 26q0 10 2 15zM202 910q5 21 23.5 35.5t40.5 14.5q17 0 28 -10.5t11 -26.5q0 -25 -21 -44.5t-45 -19.5q-18 0 -28.5 10t-10.5 26q0 10 2 15z" />
<glyph horiz-adv-x="295" d="M65 850h-60l150 77q65 33 96 33q30 0 30 -25q0 -38 -89 -57z" />
<glyph horiz-adv-x="295" d="M260 850h-60l-113 28q-63 15 -63 41q0 18 15 29.5t33 11.5q32 0 78 -33z" />
<glyph horiz-adv-x="473" d="M80 850h-60l120 77q52 33 87 33q17 0 27.5 -9.5t10.5 -25.5q0 -29 -75 -47zM267 850h-60l120 77q52 33 87 33q17 0 27.5 -9.5t10.5 -25.5q0 -29 -75 -47z" />
<glyph horiz-adv-x="381" d="M54 846h-34q8 50 37.5 82t67.5 32q31 0 84 -23t75 -23q31 0 44 42h33q-6 -47 -33.5 -82.5t-65.5 -35.5q-31 0 -88.5 24t-77.5 24q-30 0 -42 -40z" />
<glyph horiz-adv-x="316" d="M274 960h37q-17 -50 -65 -82.5t-104 -32.5q-50 0 -80 25t-30 65q0 11 3 25h36q2 -21 26.5 -33.5t62.5 -12.5t69 12.5t45 33.5z" />
<glyph horiz-adv-x="170" d="M17 878q0 32 26 57t59 25q23 0 36.5 -13.5t13.5 -35.5q0 -31 -26.5 -56t-59.5 -25q-22 0 -35.5 13t-13.5 35zM93 928q-17 0 -30.5 -13t-13.5 -30q0 -24 25 -24q17 0 31 13t14 29q0 25 -26 25z" />
<glyph horiz-adv-x="310" d="M283 880h-270l13 50h270z" />
<glyph horiz-adv-x="368" d="M143 960h110l80 -109h-45l-105 54l-133 -54h-45z" />
<glyph horiz-adv-x="368" d="M224 851h-110l-80 109h45l105 -54l133 54h45z" />
<glyph horiz-adv-x="794" d="M338 181l35 -20q-41 -83 -97 -127t-119 -44q-64 0 -103.5 44.5t-39.5 118.5q0 87 46.5 178t118.5 150t141 59q-27 40 -27 82q0 46 34.5 77t84.5 31q26 0 78 -16t76 -16q65 0 102 67l2 4h92l-84 -276h109l-14 -46h-109l-83 -275q-18 -59 -18 -82t21 -23q23 0 63.5 35.5 t66.5 78.5l29 -17q-38 -74 -100.5 -124t-115.5 -50q-60 0 -60 65q0 43 31 147l74 245h-86l13 46h87l57 188q-35 -33 -79 -33q-34 0 -81 15.5t-66 15.5q-34 0 -54 -21t-20 -56q0 -50 42 -79q45 -27 45 -74q0 -25 -14.5 -40.5t-37.5 -15.5q-22 0 -37 14.5t-15 35.5 q0 10 4 21.5t4 14.5q0 14 -24 14q-43 0 -88 -51.5t-74 -132t-29 -157.5q0 -48 18.5 -75.5t51.5 -27.5q35 0 77 37.5t72 94.5z" />
<glyph horiz-adv-x="888" d="M77 387q0 66 47.5 109.5t122.5 43.5q-27 40 -27 82q0 46 34.5 77t84.5 31q26 0 78 -16t76 -16q67 0 105 72h76l-66 -238q37 7 63 7q85 0 132 -46t47 -129q0 -128 -113 -227t-266 -119l-37 -139q-8 -27 -8 -43q0 -25 20.5 -35t72.5 -11l-6 -40h-283l6 40q42 0 61.5 10 t26.5 36l181 618q-42 -21 -68 -47l-27 28q36 40 110 70l52 179q-34 -36 -81 -36q-35 0 -81 15.5t-66 15.5q-34 0 -54 -21t-20 -56q0 -49 49 -83q36 -25 36 -65q0 -21 -11.5 -33t-31.5 -12t-33 13.5t-17.5 30.5t-14.5 30.5t-27 13.5q-22 0 -37 -19t-15 -47q0 -29 19.5 -62 t43.5 -59t43.5 -68t19.5 -87q0 -67 -53.5 -116t-122.5 -49q-59 0 -95 26t-36 68q0 28 13.5 45t36.5 17q43 0 49 -59q3 -32 11 -42.5t30 -10.5q36 0 57 22t21 59q0 36 -20 71t-44 60t-44 63t-20 78zM645 490q-23 0 -50 -5l-113 -424q104 20 184 106t80 191q0 60 -27.5 96 t-73.5 36z" />
</font>
</defs>
</svg>
